<svg xmlns="http://www.w3.org/2000/svg" width="108.72" height="132.779" viewBox="0 0 108.72 132.779">
  <g id="Group_383" data-name="Group 383" transform="translate(-859.757 -745.652)">
    <path id="Path_1888" data-name="Path 1888" d="M914.116,824.3c-14.364,0-27.882-1.869-38.065-5.268-10.506-3.5-16.294-8.3-16.294-13.5V782.717a.953.953,0,0,1,1.907,0v22.809c0,4.256,5.463,8.517,14.992,11.7,9.991,3.334,23.3,5.17,37.461,5.17s27.472-1.837,37.463-5.17c9.529-3.179,14.992-7.439,14.992-11.7V782.717a.953.953,0,0,1,1.907,0v22.809c0,5.2-5.788,10-16.294,13.5-10.184,3.4-23.7,5.268-38.068,5.268Z" transform="translate(0 54.135)" fill="#333"/>
    <path id="Path_1889" data-name="Path 1889" d="M914.116,811.595c-14.364,0-27.882-1.872-38.065-5.268-10.506-3.506-16.294-8.3-16.294-13.5V770.013a.953.953,0,0,1,1.907,0v22.811c0,4.253,5.463,8.517,14.992,11.693,9.991,3.334,23.3,5.17,37.461,5.17s27.472-1.837,37.463-5.17c9.529-3.176,14.992-7.44,14.992-11.693V770.013a.953.953,0,0,1,1.907,0v22.811c0,5.2-5.788,10-16.294,13.5-10.184,3.4-23.7,5.268-38.068,5.268Z" transform="translate(0 35.091)" fill="#333"/>
    <path id="Path_1890" data-name="Path 1890" d="M914.116,798.891c-14.364,0-27.882-1.87-38.065-5.268-10.506-3.5-16.294-8.3-16.294-13.5V757.309a.953.953,0,0,1,1.907,0V780.12c0,4.253,5.463,8.517,14.992,11.7,9.991,3.334,23.3,5.168,37.461,5.168s27.472-1.834,37.463-5.168c9.529-3.179,14.992-7.442,14.992-11.7V757.309a.953.953,0,0,1,1.907,0V780.12c0,5.2-5.788,10-16.294,13.5-10.184,3.4-23.7,5.268-38.068,5.268Z" transform="translate(0 16.047)" fill="#333"/>
    <path id="Path_1891" data-name="Path 1891" d="M914.116,747.556c-14.164,0-27.469,1.837-37.461,5.171-9.529,3.179-14.992,7.44-14.992,11.7s5.463,8.514,14.992,11.693c9.991,3.334,23.3,5.168,37.461,5.168s27.472-1.834,37.463-5.168c9.529-3.179,14.992-7.44,14.992-11.693s-5.463-8.516-14.992-11.7c-9.991-3.334-23.3-5.171-37.463-5.171Zm0,35.634c-14.364,0-27.882-1.872-38.065-5.268-10.506-3.5-16.294-8.3-16.294-13.5s5.788-10,16.294-13.5c10.184-3.4,23.7-5.265,38.065-5.265s27.884,1.869,38.068,5.265c10.506,3.506,16.294,8.3,16.294,13.5s-5.788,10-16.294,13.5c-10.184,3.4-23.7,5.268-38.068,5.268Z" transform="translate(0 0)" fill="#333"/>
    <path id="Path_1892" data-name="Path 1892" d="M868.625,764.966a2.179,2.179,0,1,1-2.179-2.179,2.179,2.179,0,0,1,2.179,2.179Z" transform="translate(6.761 25.686)" fill="#333"/>
    <path id="Path_1893" data-name="Path 1893" d="M868.625,777.892a2.179,2.179,0,1,1-2.179-2.179,2.179,2.179,0,0,1,2.179,2.179Z" transform="translate(6.761 45.063)" fill="#333"/>
    <path id="Path_1894" data-name="Path 1894" d="M868.625,790.819a2.179,2.179,0,1,1-2.179-2.179,2.181,2.181,0,0,1,2.179,2.179Z" transform="translate(6.761 64.441)" fill="#333"/>
  </g>
</svg>
