<svg id="Group_375" data-name="Group 375" xmlns="http://www.w3.org/2000/svg" width="159.18" height="137.138" viewBox="0 0 159.18 137.138">
  <path id="Path_1826" data-name="Path 1826" d="M773.134,693.032c0-3.931,2.773-7.13,6.184-7.13h50.295c3.411,0,6.184,3.2,6.184,7.13v42.735c0,3.933-2.773,7.13-6.184,7.13H779.318c-3.411,0-6.184-3.2-6.184-7.13V693.032Zm10.2-15.472a21.131,21.131,0,1,1,42.263,0v6.016H783.334V677.56Zm-4.016,67.662h50.295c4.69,0,8.509-4.243,8.509-9.456V693.032c0-5.213-3.818-9.456-8.509-9.456h-1.694V677.56a23.454,23.454,0,1,0-46.908,0v6.016h-1.693c-4.693,0-8.509,4.242-8.509,9.456v42.735c0,5.213,3.816,9.456,8.509,9.456Z" transform="translate(-724.875 -654.105)" fill="#333"/>
  <path id="Path_1827" data-name="Path 1827" d="M788.361,674.282a5.568,5.568,0,0,1,2.315,10.632,1.159,1.159,0,0,0-.68,1.056v7.4a1.633,1.633,0,1,1-3.267,0v-7.4a1.166,1.166,0,0,0-.677-1.056,5.567,5.567,0,0,1,2.309-10.632ZM784.4,686.676v6.7a3.959,3.959,0,1,0,7.917,0v-6.7a7.892,7.892,0,1,0-7.917,0Z" transform="translate(-708.772 -624.35)" fill="#333"/>
  <path id="Path_1828" data-name="Path 1828" d="M833.464,662.867a3.375,3.375,0,1,1-3.376,3.376,3.38,3.38,0,0,1,3.376-3.376ZM798.113,691.5H809.55a1.161,1.161,0,0,0,.821-.339l20.082-20.082a5.7,5.7,0,1,0-1.682-1.605l-19.7,19.7H798.113a1.163,1.163,0,0,0,0,2.325Z" transform="translate(-681.309 -643.374)" fill="#333"/>
  <path id="Path_1829" data-name="Path 1829" d="M827.1,676.791a3.373,3.373,0,1,1-3.373,3.373,3.375,3.375,0,0,1,3.373-3.373Zm-28.989,4.837h23.482a5.7,5.7,0,1,0-.125-2.325H798.113a1.163,1.163,0,1,0,0,2.325Z" transform="translate(-681.309 -620.171)" fill="#333"/>
  <path id="Path_1830" data-name="Path 1830" d="M837.477,707.81a3.371,3.371,0,1,1-.637-4.731,3.361,3.361,0,0,1,.637,4.731Zm.773-6.578a5.708,5.708,0,0,0-7.624.645l-20.256-20.256a1.153,1.153,0,0,0-.821-.341H798.113a1.163,1.163,0,0,0,0,2.325H809.07l20.328,20.33a5.7,5.7,0,0,0,5.384,7.528,5.779,5.779,0,0,0,.771-.053,5.7,5.7,0,0,0,2.7-10.178Z" transform="translate(-681.309 -608.815)" fill="#333"/>
  <path id="Path_1831" data-name="Path 1831" d="M775.782,729.094a3.372,3.372,0,1,1-.635-4.728,3.373,3.373,0,0,1,.635,4.728Zm21.8-27.29V690.367a1.161,1.161,0,1,0-2.323,0v10.957l-20.33,20.327a5.7,5.7,0,0,0-5.285,9.925,5.643,5.643,0,0,0,3.445,1.171,5.778,5.778,0,0,0,.771-.054,5.641,5.641,0,0,0,3.77-2.189,5.705,5.705,0,0,0-.643-7.624l20.255-20.256a1.151,1.151,0,0,0,.339-.821Z" transform="translate(-730.549 -595.609)" fill="#333"/>
  <path id="Path_1832" data-name="Path 1832" d="M790.334,719.355a3.375,3.375,0,1,1-3.373-3.373,3.379,3.379,0,0,1,3.373,3.373ZM786.657,689.2a1.164,1.164,0,0,0-1.163,1.163v23.482a5.7,5.7,0,1,0,2.325-.125V690.367a1.162,1.162,0,0,0-1.162-1.163Z" transform="translate(-707.454 -595.609)" fill="#333"/>
  <path id="Path_1833" data-name="Path 1833" d="M816.48,725.715a3.373,3.373,0,1,1-3.373-3.373,3.379,3.379,0,0,1,3.373,3.373Zm-3.373,5.7a5.7,5.7,0,1,0-3.229-10.389l-19.7-19.7V690.367a1.163,1.163,0,1,0-2.326,0V701.8a1.166,1.166,0,0,0,.341.821l20.08,20.082a5.7,5.7,0,0,0,4.837,8.706Z" transform="translate(-696.476 -595.609)" fill="#333"/>
  <path id="Path_1834" data-name="Path 1834" d="M761.326,708.445a3.374,3.374,0,1,1,.634-4.728,3.378,3.378,0,0,1-.634,4.728ZM785,683.605H795.96a1.163,1.163,0,0,0,0-2.325H784.523a1.153,1.153,0,0,0-.821.341l-20.255,20.256a5.67,5.67,0,1,0,1.232,2.056L785,683.605Z" transform="translate(-753.583 -608.815)" fill="#333"/>
  <path id="Path_1835" data-name="Path 1835" d="M762.166,683.538a3.373,3.373,0,1,1,3.373-3.373,3.378,3.378,0,0,1-3.373,3.373Zm28.988-4.235H767.8a5.7,5.7,0,1,0-.128,2.325h23.485a1.163,1.163,0,1,0,0-2.325Z" transform="translate(-748.778 -620.171)" fill="#333"/>
  <path id="Path_1836" data-name="Path 1836" d="M759.781,662.867a3.375,3.375,0,1,1-3.376,3.376,3.38,3.38,0,0,1,3.376-3.376Zm0,9.072a5.652,5.652,0,0,0,3.008-.861l20.082,20.082a1.161,1.161,0,0,0,.821.339h11.437a1.163,1.163,0,1,0,0-2.325H784.172l-19.7-19.7a5.7,5.7,0,1,0-4.691,2.466Z" transform="translate(-752.752 -643.374)" fill="#333"/>
</svg>
