<svg xmlns="http://www.w3.org/2000/svg" width="149.935" height="137.138" viewBox="0 0 149.935 137.138">
  <g id="Group_362" data-name="Group 362" transform="translate(0 0)">
    <g id="Group_350" data-name="Group 350" transform="translate(10.787 22.909)">
      <path id="Path_1895" data-name="Path 1895" d="M988.958,741.076h-125.9a1.232,1.232,0,0,1-1.229-1.233V666.114a1.23,1.23,0,0,1,1.229-1.232h125.9a1.23,1.23,0,0,1,1.232,1.232v73.729A1.233,1.233,0,0,1,988.958,741.076Zm-124.671-2.468H987.729V667.347H864.287Z" transform="translate(-861.826 -664.882)" fill="#333"/>
    </g>
    <g id="Group_351" data-name="Group 351" transform="translate(0 12.296)">
      <path id="Path_1896" data-name="Path 1896" d="M1007.259,674.738H859.784a1.235,1.235,0,0,1-1.232-1.232V662.893a1.232,1.232,0,0,1,1.232-1.232h147.474a1.23,1.23,0,0,1,1.229,1.232v10.613A1.232,1.232,0,0,1,1007.259,674.738Zm-146.242-2.465h145.01v-8.148H861.017Z" transform="translate(-858.552 -661.661)" fill="#333"/>
    </g>
    <g id="Group_352" data-name="Group 352" transform="translate(42.431 96.635)">
      <path id="Path_1897" data-name="Path 1897" d="M931.924,727.762a1.233,1.233,0,0,1-.873-.363l-20.132-20.115H897.608L877.473,727.4a1.232,1.232,0,0,1-1.74,0l-3.941-3.924a1.233,1.233,0,0,1,0-1.746L891.42,702.1V688.494a1.235,1.235,0,0,1,1.232-1.235h22.613a1.233,1.233,0,0,1,1.232,1.235v13.015l20.221,20.224a1.229,1.229,0,0,1,0,1.743l-3.924,3.924A1.231,1.231,0,0,1,931.924,727.762Zm-57.518-5.16,2.2,2.188,19.624-19.611a1.241,1.241,0,0,1,.873-.359H911.43a1.228,1.228,0,0,1,.87.359l19.624,19.608,2.181-2.181-19.71-19.713a1.232,1.232,0,0,1-.359-.873V689.726H893.884v12.886a1.218,1.218,0,0,1-.362.869Z" transform="translate(-871.43 -687.258)" fill="#333"/>
    </g>
    <g id="Group_353" data-name="Group 353" transform="translate(98.236 40.415)">
      <path id="Path_1898" data-name="Path 1898" d="M898.456,717.555H889.6a1.23,1.23,0,0,1-1.229-1.232v-44.9A1.232,1.232,0,0,1,889.6,670.2h8.86a1.235,1.235,0,0,1,1.232,1.232v44.9A1.232,1.232,0,0,1,898.456,717.555Zm-7.628-2.464h6.4V672.659h-6.4Z" transform="translate(-888.367 -670.195)" fill="#333"/>
    </g>
    <g id="Group_354" data-name="Group 354" transform="translate(83.785 45.99)">
      <path id="Path_1899" data-name="Path 1899" d="M894.054,713.672h-8.84a1.232,1.232,0,0,1-1.232-1.232V673.119a1.235,1.235,0,0,1,1.232-1.232h8.84a1.232,1.232,0,0,1,1.232,1.232V712.44A1.23,1.23,0,0,1,894.054,713.672Zm-7.608-2.464h6.379V674.352h-6.379Z" transform="translate(-883.981 -671.887)" fill="#333"/>
    </g>
    <g id="Group_355" data-name="Group 355" transform="translate(69.317 51.393)">
      <path id="Path_1900" data-name="Path 1900" d="M889.662,709.909h-8.84a1.232,1.232,0,0,1-1.232-1.232V674.759a1.232,1.232,0,0,1,1.232-1.232h8.84a1.23,1.23,0,0,1,1.232,1.232v33.917A1.23,1.23,0,0,1,889.662,709.909Zm-7.608-2.464h6.375V675.992h-6.375Z" transform="translate(-879.59 -673.527)" fill="#333"/>
    </g>
    <g id="Group_356" data-name="Group 356" transform="translate(54.849 58.932)">
      <path id="Path_1901" data-name="Path 1901" d="M885.271,704.658h-8.84a1.233,1.233,0,0,1-1.232-1.232V677.048a1.233,1.233,0,0,1,1.232-1.233h8.84a1.233,1.233,0,0,1,1.233,1.233v26.378A1.233,1.233,0,0,1,885.271,704.658Zm-7.608-2.464h6.376V678.279h-6.376Z" transform="translate(-875.199 -675.815)" fill="#333"/>
    </g>
    <g id="Group_357" data-name="Group 357" transform="translate(40.382 66.797)">
      <path id="Path_1902" data-name="Path 1902" d="M880.884,699.18H872.04a1.23,1.23,0,0,1-1.232-1.232V679.434a1.23,1.23,0,0,1,1.232-1.232h8.844a1.23,1.23,0,0,1,1.229,1.232v18.514A1.229,1.229,0,0,1,880.884,699.18Zm-7.611-2.465h6.379V680.667h-6.379Z" transform="translate(-870.808 -678.202)" fill="#333"/>
    </g>
    <g id="Group_358" data-name="Group 358" transform="translate(34.355 90.799)">
      <path id="Path_1903" data-name="Path 1903" d="M948.958,687.951H870.212a1.232,1.232,0,1,1,0-2.464h78.747a1.232,1.232,0,0,1,0,2.464Z" transform="translate(-868.979 -685.487)" fill="#333"/>
    </g>
    <g id="Group_359" data-name="Group 359" transform="translate(40.401 29.682)">
      <path id="Path_1904" data-name="Path 1904" d="M872.047,698.684a1.231,1.231,0,0,1-.419-2.389c.333-.122,33.265-12.115,47.713-28.929a1.233,1.233,0,1,1,1.868,1.608c-14.873,17.308-47.37,29.143-48.747,29.637A1.213,1.213,0,0,1,872.047,698.684Z" transform="translate(-870.814 -666.938)" fill="#333"/>
    </g>
    <g id="Group_360" data-name="Group 360" transform="translate(81.491 29.871)">
      <path id="Path_1905" data-name="Path 1905" d="M891.483,676.807a1.233,1.233,0,0,1-1.232-1.232v-6.109l-5.726.03h-.007a1.232,1.232,0,0,1-.007-2.465l6.965-.036h0a1.237,1.237,0,0,1,1.236,1.236v7.344A1.234,1.234,0,0,1,891.483,676.807Z" transform="translate(-883.285 -666.995)" fill="#333"/>
    </g>
    <g id="Group_361" data-name="Group 361" transform="translate(68.935)">
      <path id="Path_1906" data-name="Path 1906" d="M890.294,672.69h-9.588a1.235,1.235,0,0,1-1.232-1.232v-7.5a6.026,6.026,0,0,1,12.053,0v7.5A1.232,1.232,0,0,1,890.294,672.69Zm-8.356-2.465h7.123v-6.27a3.562,3.562,0,1,0-7.123,0Z" transform="translate(-879.474 -657.929)" fill="#333"/>
    </g>
  </g>
</svg>
