<svg xmlns="http://www.w3.org/2000/svg" width="153.742" height="117.283" viewBox="0 0 153.742 117.283">
  <g id="Group_387" data-name="Group 387" transform="translate(-750.015 -711.556)">
    <g id="Group_331" data-name="Group 331" transform="translate(781.597 751.129)">
      <path id="Path_1870" data-name="Path 1870" d="M770.124,742.98a8.333,8.333,0,1,1,8.335-8.332A8.344,8.344,0,0,1,770.124,742.98Zm0-14.519a6.187,6.187,0,1,0,6.187,6.187A6.19,6.19,0,0,0,770.124,728.461Z" transform="translate(-761.792 -726.313)" fill="#333"/>
    </g>
    <g id="Group_332" data-name="Group 332" transform="translate(772.93 767.89)">
      <path id="Path_1871" data-name="Path 1871" d="M791.488,749.155a1.076,1.076,0,0,1-1.075-1.073,14.776,14.776,0,0,0-7.831-13.1,15.913,15.913,0,0,1-14.036,0,14.75,14.75,0,0,0-7.841,13.1,1.073,1.073,0,1,1-2.145,0,16.883,16.883,0,0,1,9.523-15.275l.5-.244.488.268a13.661,13.661,0,0,0,12.988,0l.491-.268.5.244a16.915,16.915,0,0,1,9.512,15.275A1.074,1.074,0,0,1,791.488,749.155Z" transform="translate(-758.56 -732.563)" fill="#333"/>
    </g>
    <g id="Group_333" data-name="Group 333" transform="translate(781.597 795.487)">
      <path id="Path_1872" data-name="Path 1872" d="M770.124,759.52a8.333,8.333,0,1,1,8.335-8.332A8.344,8.344,0,0,1,770.124,759.52Zm0-14.518a6.187,6.187,0,1,0,6.187,6.187A6.19,6.19,0,0,0,770.124,745Z" transform="translate(-761.792 -742.854)" fill="#333"/>
    </g>
    <g id="Group_334" data-name="Group 334" transform="translate(772.93 812.247)">
      <path id="Path_1873" data-name="Path 1873" d="M791.488,765.7a1.076,1.076,0,0,1-1.075-1.073,14.775,14.775,0,0,0-7.831-13.1,15.922,15.922,0,0,1-14.036,0,14.756,14.756,0,0,0-7.841,13.1,1.073,1.073,0,1,1-2.145,0,16.889,16.889,0,0,1,9.523-15.275l.5-.244.488.268a13.63,13.63,0,0,0,12.988,0l.491-.268.5.247a16.915,16.915,0,0,1,9.512,15.272A1.074,1.074,0,0,1,791.488,765.7Z" transform="translate(-758.56 -749.104)" fill="#333"/>
    </g>
    <g id="Group_335" data-name="Group 335" transform="translate(821.929 751.129)">
      <path id="Path_1874" data-name="Path 1874" d="M785.164,742.98a8.333,8.333,0,1,1,8.337-8.332A8.344,8.344,0,0,1,785.164,742.98Zm0-14.519a6.187,6.187,0,1,0,6.189,6.187A6.19,6.19,0,0,0,785.164,728.461Z" transform="translate(-776.832 -726.313)" fill="#333"/>
    </g>
    <g id="Group_336" data-name="Group 336" transform="translate(813.262 767.89)">
      <path id="Path_1875" data-name="Path 1875" d="M806.528,749.155a1.074,1.074,0,0,1-1.073-1.073,14.775,14.775,0,0,0-7.833-13.1,15.912,15.912,0,0,1-14.036,0,14.753,14.753,0,0,0-7.841,13.1,1.073,1.073,0,0,1-2.146,0,16.887,16.887,0,0,1,9.523-15.275l.5-.244.491.268a13.656,13.656,0,0,0,12.985,0l.491-.268.5.244a16.912,16.912,0,0,1,9.512,15.275A1.074,1.074,0,0,1,806.528,749.155Z" transform="translate(-773.6 -732.563)" fill="#333"/>
    </g>
    <g id="Group_337" data-name="Group 337" transform="translate(821.929 795.487)">
      <path id="Path_1876" data-name="Path 1876" d="M785.164,759.52a8.333,8.333,0,1,1,8.337-8.332A8.344,8.344,0,0,1,785.164,759.52Zm0-14.518a6.187,6.187,0,1,0,6.189,6.187A6.19,6.19,0,0,0,785.164,745Z" transform="translate(-776.832 -742.854)" fill="#333"/>
    </g>
    <g id="Group_338" data-name="Group 338" transform="translate(813.262 812.247)">
      <path id="Path_1877" data-name="Path 1877" d="M806.528,765.7a1.074,1.074,0,0,1-1.073-1.073,14.778,14.778,0,0,0-7.833-13.1,15.9,15.9,0,0,1-14.036,0,14.756,14.756,0,0,0-7.841,13.1,1.073,1.073,0,0,1-2.146,0,16.892,16.892,0,0,1,9.523-15.275l.5-.244.491.268a13.625,13.625,0,0,0,12.985,0l.491-.268.5.244a16.918,16.918,0,0,1,9.512,15.275A1.074,1.074,0,0,1,806.528,765.7Z" transform="translate(-773.6 -749.104)" fill="#333"/>
    </g>
    <g id="Group_341" data-name="Group 341" transform="translate(750.015 782.339)">
      <g id="Group_339" data-name="Group 339">
        <path id="Path_1878" data-name="Path 1878" d="M870.189,784.446H846.2a1.074,1.074,0,1,1,0-2.148h21.389l-8.174-42.2H760.364l-7.771,42.2H774a1.074,1.074,0,0,1,0,2.148H750.015l8.563-46.495h102.6Z" transform="translate(-750.015 -737.951)" fill="#333"/>
      </g>
      <g id="Group_340" data-name="Group 340" transform="translate(54.765 44.347)">
        <path id="Path_1879" data-name="Path 1879" d="M780,756.636h-8.488a1.074,1.074,0,0,1,0-2.148H780a1.074,1.074,0,0,1,0,2.148Z" transform="translate(-770.437 -754.488)" fill="#333"/>
      </g>
    </g>
    <g id="Group_342" data-name="Group 342" transform="translate(863.401 728.014)">
      <path id="Path_1880" data-name="Path 1880" d="M811.739,740.736,792.3,728.983l19.458-11.29,1.079,1.854-16.326,9.472,16.342,9.878Z" transform="translate(-792.297 -717.693)" fill="#333"/>
    </g>
    <g id="Group_343" data-name="Group 343" transform="translate(860.358 734.171)">
      <path id="Path_1881" data-name="Path 1881" d="M791.562,724.466a4.076,4.076,0,1,1,4.076,4.076A4.076,4.076,0,0,1,791.562,724.466Z" transform="translate(-790.489 -719.315)" fill="#333"/>
      <path id="Path_1882" data-name="Path 1882" d="M796.311,730.289a5.15,5.15,0,1,1,5.151-5.149A5.154,5.154,0,0,1,796.311,730.289Zm0-8.152a3,3,0,1,0,3,3A3,3,0,0,0,796.311,722.137Z" transform="translate(-791.162 -719.989)" fill="#333"/>
    </g>
    <g id="Group_344" data-name="Group 344" transform="translate(878.25 723.79)">
      <path id="Path_1883" data-name="Path 1883" d="M798.234,720.6a4.076,4.076,0,1,1,4.076,4.076A4.076,4.076,0,0,1,798.234,720.6Z" transform="translate(-797.161 -715.444)" fill="#333"/>
      <path id="Path_1884" data-name="Path 1884" d="M802.983,726.418a5.15,5.15,0,1,1,5.151-5.149A5.154,5.154,0,0,1,802.983,726.418Zm0-8.152a3,3,0,1,0,3,3A3,3,0,0,0,802.983,718.266Z" transform="translate(-797.834 -716.118)" fill="#333"/>
    </g>
    <g id="Group_345" data-name="Group 345" transform="translate(878.25 744.986)">
      <path id="Path_1885" data-name="Path 1885" d="M798.234,728.5a4.076,4.076,0,1,1,4.076,4.076A4.078,4.078,0,0,1,798.234,728.5Z" transform="translate(-797.161 -723.348)" fill="#333"/>
      <path id="Path_1886" data-name="Path 1886" d="M802.983,734.322a5.15,5.15,0,1,1,5.151-5.149A5.153,5.153,0,0,1,802.983,734.322Zm0-8.152a3,3,0,1,0,3,3A3,3,0,0,0,802.983,726.17Z" transform="translate(-797.834 -724.022)" fill="#333"/>
    </g>
    <g id="Group_347" data-name="Group 347" transform="translate(848.82 711.556)">
      <g id="Group_346" data-name="Group 346">
        <path id="Path_1887" data-name="Path 1887" d="M789.827,771.827l2.143-16.852a27.463,27.463,0,1,1,48.656-23.867h0a27.491,27.491,0,0,1-18.37,34.216,27.217,27.217,0,0,1-16.988-.37ZM814.364,713.7a25.328,25.328,0,0,0-20.413,40.351l.255.346-1.773,13.921,12.751-5.68.413.153a25.317,25.317,0,1,0,8.767-49.09Z" transform="translate(-786.859 -711.556)" fill="#333"/>
      </g>
    </g>
  </g>
</svg>
