<svg id="Group_384" data-name="Group 384" xmlns="http://www.w3.org/2000/svg" width="130.889" height="137.138" viewBox="0 0 130.889 137.138">
  <path id="Path_1837" data-name="Path 1837" d="M742.333,673.043a5.632,5.632,0,1,0,1.826.3,5.633,5.633,0,0,0-1.826-.3Zm0,13.437h0a7.8,7.8,0,1,1,7.378-5.272,7.829,7.829,0,0,1-7.378,5.272Z" transform="translate(-636.074 -627.166)" fill="#333"/>
  <path id="Path_1838" data-name="Path 1838" d="M742.723,713.818a1.076,1.076,0,0,1-.352-.058l-6.107-2.094a1.084,1.084,0,0,1-.715-1.229l.877-4.592a19.413,19.413,0,0,1-4.693-4.3,1.084,1.084,0,1,1,1.7-1.339,17.338,17.338,0,0,0,4.749,4.181,1.086,1.086,0,0,1,.509,1.133l-.84,4.4,4.328,1.485,2.037-3.981a1.09,1.09,0,0,1,1.093-.581,17.613,17.613,0,0,0,6.317-.395,1.079,1.079,0,0,1,1.157.442l2.517,3.7,4.109-2.011-1.376-4.256a1.088,1.088,0,0,1,.363-1.187,17.459,17.459,0,0,0,4.186-4.741,1.292,1.292,0,0,1,.1-.136,1.08,1.08,0,0,1,1.038-.373l4.392.837,1.485-4.328-3.989-2.037a1.086,1.086,0,0,1-.581-1.1,17.38,17.38,0,0,0-.387-6.317,1.087,1.087,0,0,1,.443-1.16l3.7-2.51-2.01-4.109-4.253,1.376a1.083,1.083,0,0,1-1.187-.363,17.337,17.337,0,0,0-4.746-4.186,1.081,1.081,0,0,1-.509-1.134l.837-4.394-4.328-1.485-2.029,3.978a1.088,1.088,0,0,1-1.1.584,17.406,17.406,0,0,0-6.32.392,1.085,1.085,0,0,1-.528-2.1,19.455,19.455,0,0,1,6.349-.517l2.122-4.157a1.085,1.085,0,0,1,1.317-.531l6.107,2.093a1.085,1.085,0,0,1,.712,1.23l-.874,4.589a19.424,19.424,0,0,1,4.21,3.714L767,674.811a1.077,1.077,0,0,1,1.306.555l2.837,5.8a1.082,1.082,0,0,1-.365,1.373l-3.861,2.624a19.36,19.36,0,0,1,.344,5.6l4.162,2.128a1.085,1.085,0,0,1,.533,1.317l-2.093,6.107a1.09,1.09,0,0,1-1.229.712l-4.589-.872a19.461,19.461,0,0,1-3.712,4.205l1.437,4.445a1.089,1.089,0,0,1-.555,1.309l-5.8,2.837a1.089,1.089,0,0,1-1.374-.366l-2.627-3.864a19.417,19.417,0,0,1-5.6.349l-2.131,4.16a1.082,1.082,0,0,1-.962.589Z" transform="translate(-641.125 -637.681)" fill="#333"/>
  <path id="Path_1839" data-name="Path 1839" d="M711.723,673.043a5.634,5.634,0,1,0,5.325,3.805,5.64,5.64,0,0,0-5.325-3.805Zm0,13.437a7.807,7.807,0,1,1,2.533-.424,7.806,7.806,0,0,1-2.533.424Z" transform="translate(-687.094 -627.166)" fill="#333"/>
  <path id="Path_1840" data-name="Path 1840" d="M726.9,713.818a1.084,1.084,0,0,1-.965-.589l-2.128-4.16a19.592,19.592,0,0,1-5.6-.349l-2.629,3.864a1.089,1.089,0,0,1-1.373.366l-5.8-2.837a1.086,1.086,0,0,1-.555-1.309l1.434-4.445a19.607,19.607,0,0,1-3.712-4.205l-4.587.872a1.088,1.088,0,0,1-1.229-.712l-2.093-6.107a1.083,1.083,0,0,1,.531-1.317l4.163-2.128a19.535,19.535,0,0,1,.344-5.6l-3.861-2.624a1.084,1.084,0,0,1-.363-1.373l2.835-5.8a1.082,1.082,0,0,1,1.309-.555l4.443,1.437a19.43,19.43,0,0,1,4.211-3.714l-.875-4.589a1.086,1.086,0,0,1,.712-1.23l6.107-2.093a1.085,1.085,0,0,1,1.317.531l2.123,4.157a19.527,19.527,0,0,1,6.349.517,1.085,1.085,0,0,1-.528,2.1,17.42,17.42,0,0,0-6.322-.392,1.087,1.087,0,0,1-1.094-.584l-2.032-3.978-4.328,1.485.84,4.394a1.085,1.085,0,0,1-.509,1.134,17.3,17.3,0,0,0-4.747,4.186,1.082,1.082,0,0,1-1.187.363l-4.253-1.376-2.011,4.109,3.7,2.51a1.087,1.087,0,0,1,.443,1.16,17.38,17.38,0,0,0-.387,6.317,1.088,1.088,0,0,1-.584,1.1l-3.986,2.037,1.485,4.328,4.389-.837a1.077,1.077,0,0,1,1.048.387,1.009,1.009,0,0,1,.088.123,17.462,17.462,0,0,0,4.187,4.741,1.087,1.087,0,0,1,.363,1.187l-1.376,4.256,4.11,2.011,2.515-3.7a1.083,1.083,0,0,1,1.16-.442,17.478,17.478,0,0,0,6.315.395,1.089,1.089,0,0,1,1.094.581l2.037,3.981,4.33-1.485-.84-4.4a1.082,1.082,0,0,1,.509-1.133,17.339,17.339,0,0,0,4.747-4.181,1.085,1.085,0,1,1,1.707,1.339,19.47,19.47,0,0,1-4.693,4.3l.875,4.592a1.086,1.086,0,0,1-.712,1.229l-6.107,2.094a1.087,1.087,0,0,1-.352.058Z" transform="translate(-697.61 -637.681)" fill="#333"/>
  <path id="Path_1841" data-name="Path 1841" d="M726.006,668.18a3.99,3.99,0,1,0,3.925,3.309,3.994,3.994,0,0,0-3.925-3.309Zm-.013,10.149a6.155,6.155,0,1,1,1.058-.091,6.4,6.4,0,0,1-1.058.091Z" transform="translate(-660.559 -635.266)" fill="#333"/>
  <path id="Path_1842" data-name="Path 1842" d="M726.27,679.736a1.085,1.085,0,0,1-1.024-.723l-6.562-18.56a1.084,1.084,0,0,1,2.043-.725l6.565,18.562a1.084,1.084,0,0,1-.661,1.384,1.067,1.067,0,0,1-.36.061Z" transform="translate(-662.593 -646.942)" fill="#333"/>
  <path id="Path_1843" data-name="Path 1843" d="M735.469,674.362a1.066,1.066,0,0,1-.349-.059l-10.629-3.6a1.083,1.083,0,1,1,.693-2.053l10.632,3.6a1.084,1.084,0,0,1-.347,2.112Z" transform="translate(-654.04 -630.963)" fill="#333"/>
  <path id="Path_1844" data-name="Path 1844" d="M745.2,656.65a34.711,34.711,0,0,0-.112,69.423h.117a34.711,34.711,0,0,0,.112-69.423Zm.006,71.59h-.125a36.879,36.879,0,0,1,.12-73.758h.123a36.879,36.879,0,0,1-.117,73.758Z" transform="translate(-679.756 -654.482)" fill="#333"/>
  <path id="Path_1845" data-name="Path 1845" d="M742.1,658.567a29.6,29.6,0,1,0-.195,59.2l.1,1.085v-1.085a29.6,29.6,0,0,0,.093-59.2Zm-.093,61.37H741.9a31.818,31.818,0,1,1,.107,0Z" transform="translate(-676.564 -651.287)" fill="#333"/>
  <path id="Path_1846" data-name="Path 1846" d="M775.18,745.355H715.4a7.136,7.136,0,0,1-7.128-7.13v-54.9a1.084,1.084,0,1,1,2.168,0v54.9a4.968,4.968,0,0,0,4.96,4.962H775.18a4.968,4.968,0,0,0,4.962-4.962v-54.9a1.084,1.084,0,1,1,2.168,0v54.9a7.137,7.137,0,0,1-7.13,7.13Z" transform="translate(-679.845 -608.217)" fill="#333"/>
  <path id="Path_1847" data-name="Path 1847" d="M757.849,701.479h-39.82a1.084,1.084,0,0,1,0-2.168h39.82a1.084,1.084,0,0,1,0,2.168Z" transform="translate(-665.384 -579.77)" fill="#333"/>
  <path id="Path_1848" data-name="Path 1848" d="M752.535,703.406H718.029a1.084,1.084,0,0,1,0-2.168h34.506a1.084,1.084,0,1,1,0,2.168Z" transform="translate(-665.384 -576.558)" fill="#333"/>
  <path id="Path_1849" data-name="Path 1849" d="M715.351,706.262a1.08,1.08,0,0,1-.768-.317l-3.01-3.011a1.084,1.084,0,0,1,1.533-1.533l2.245,2.245,3.563-3.557a1.085,1.085,0,0,1,1.533,1.536l-4.331,4.322a1.076,1.076,0,0,1-.765.315Z" transform="translate(-674.869 -578.999)" fill="#333"/>
  <path id="Path_1850" data-name="Path 1850" d="M757.849,694.157h-39.82a1.084,1.084,0,0,1,0-2.168h39.82a1.084,1.084,0,0,1,0,2.168Z" transform="translate(-665.384 -591.973)" fill="#333"/>
  <path id="Path_1851" data-name="Path 1851" d="M752.535,696.085H718.029a1.084,1.084,0,0,1,0-2.168h34.506a1.084,1.084,0,1,1,0,2.168Z" transform="translate(-665.384 -588.76)" fill="#333"/>
  <path id="Path_1852" data-name="Path 1852" d="M715.351,698.943a1.09,1.09,0,0,1-.768-.317l-3.01-3.013a1.084,1.084,0,0,1,1.533-1.533l2.245,2.248,3.563-3.557a1.084,1.084,0,0,1,1.533,1.534l-4.331,4.322a1.079,1.079,0,0,1-.765.317Z" transform="translate(-674.869 -591.202)" fill="#333"/>
  <path id="Path_1853" data-name="Path 1853" d="M757.849,686.836h-39.82a1.084,1.084,0,0,1,0-2.168h39.82a1.084,1.084,0,0,1,0,2.168Z" transform="translate(-665.384 -604.174)" fill="#333"/>
  <path id="Path_1854" data-name="Path 1854" d="M752.535,688.763H718.029a1.084,1.084,0,0,1,0-2.168h34.506a1.084,1.084,0,1,1,0,2.168Z" transform="translate(-665.384 -600.962)" fill="#333"/>
  <path id="Path_1855" data-name="Path 1855" d="M715.351,691.622a1.083,1.083,0,0,1-.768-.32l-3.01-3.011a1.084,1.084,0,0,1,1.533-1.533L715.351,689l3.563-3.557a1.085,1.085,0,0,1,1.533,1.536l-4.331,4.322a1.079,1.079,0,0,1-.765.317Z" transform="translate(-674.869 -603.403)" fill="#333"/>
</svg>
