<svg xmlns="http://www.w3.org/2000/svg" viewBox="0 0 160.68 164.2"><g id="Layer_2" data-name="Layer 2"><g id="Layer_1-2" data-name="Layer 1"><g id="Group_95" data-name="Group 95" style="opacity:0.6700000166893005"><g id="Group_90" data-name="Group 90"><path id="Path_382" data-name="Path 382" d="M118,105.26h0a346.25,346.25,0,0,1-36.55-2.53,5.57,5.57,0,0,1-5.33-5.8V75.64C76.9,64.11,81.39,58.8,93.2,55.46l9.56-6a4.82,4.82,0,0,1,.5-.27l1.84-2.4A9.35,9.35,0,0,1,103,41.4l-.13-2a7.28,7.28,0,0,1-2.47-2.94,15.39,15.39,0,0,1-1.26-9.77,4.18,4.18,0,0,1,1.25-1.74l-1.72-4.84A9.19,9.19,0,0,1,99.8,9.89a8.36,8.36,0,0,1,5.69-2.74.47.47,0,0,1,.06-.19,10.48,10.48,0,0,1,5-5.2,21.29,21.29,0,0,1,21.25,2.77c1.47.87,2,.45,2.7-.18a2.54,2.54,0,0,1,3.26-.45,8,8,0,0,1,2.68,6.26,13.55,13.55,0,0,1-4.26,10.14,10.34,10.34,0,0,1-.36,4.72,3.91,3.91,0,0,1,1.28,1.8,14.71,14.71,0,0,1-1.24,9.63A7.25,7.25,0,0,1,133,39.6l-.11,1.83a9.42,9.42,0,0,1-1.62,4.75l1.4,2.76a4.47,4.47,0,0,1,1.2.54l9.56,6c11.82,3.34,16.31,8.65,17.14,20.18V95.3c0,5.85-3.33,7.16-5.31,7.43A360.33,360.33,0,0,1,118,105.26h0Zm-38-29.41v21c0,1.36.45,1.85,1.94,2a339.6,339.6,0,0,0,34.17,2.47l.3-35.76a25.09,25.09,0,0,1-10.75,2.59A2.3,2.3,0,0,1,104,66.52a45.1,45.1,0,0,1-.58-12.86L95,58.89a2.12,2.12,0,0,1-.51.22c-11.57,3.22-13.93,8-14.57,16.73Zm40.29-11.44-.3,36.92c11.9-.26,25.08-1.19,34.86-2.46.62-.08,1.94-.26,1.94-3.61V75.84c-.64-8.78-3-13.51-14.58-16.74a1.92,1.92,0,0,1-.51-.22l-8.36-5.23a45.09,45.09,0,0,1-.58,12.86,2.23,2.23,0,0,1-1.6,1.65,22.83,22.83,0,0,1-10.86-3.74Zm-13-9.3a42.18,42.18,0,0,0,.28,9.26,44.38,44.38,0,0,0,7-2.16l-6.75-6.83a3.78,3.78,0,0,0-.47-.25ZM122.9,61.5a43.75,43.75,0,0,0,6.3,2.7,43.26,43.26,0,0,0,.26-9.17l-.5.32Zm-4.59-1h.11l.13-.08,7.78-7.87.2-.17c.31-.24.72-.48,1.19-.77s1-.61,1.48-1l-1.93-3.81a1.94,1.94,0,0,1,.31-2.18A5.42,5.42,0,0,0,129,41.17l.21-3.07a1.92,1.92,0,0,1,1.45-1.75l.28-.08a3,3,0,0,0,1.48-1.6,11.43,11.43,0,0,0,1-6.59.31.31,0,0,0-.13-.08,1,1,0,0,0-.25-.06,1.93,1.93,0,0,1-1.5-3,6,6,0,0,0,.64-5.05,1.94,1.94,0,0,1,.67-1.8,9.78,9.78,0,0,0,3.69-7.8A6.38,6.38,0,0,0,136.15,8a5.57,5.57,0,0,1-6.36-.16,17.58,17.58,0,0,0-17.64-2.52c-1.35.6-3.05,2.51-3,3.13a1.91,1.91,0,0,1-.22,2.14,2,2,0,0,1-2.09.59,4.27,4.27,0,0,0-4.19,1.35,5.48,5.48,0,0,0-.45,6.09l.05.12,2.2,6.14A2,2,0,0,1,103.32,28a2.32,2.32,0,0,1-.58.08,12.29,12.29,0,0,0,1.09,6.68,3,3,0,0,0,1.36,1.55A1.94,1.94,0,0,1,106.62,38l.2,3.18a5.48,5.48,0,0,0,1.58,3.58l.58.61a1.93,1.93,0,0,1,.14,2.51l-1.91,2.5a2.07,2.07,0,0,1,.12.49l1,.53a11.75,11.75,0,0,1,1.69,1l.2.18L118,60.4a1.4,1.4,0,0,0,.17.09Z" style="stroke:#000;stroke-miterlimit:10;stroke-width:0.20000000298023224px"/></g><g id="Group_91" data-name="Group 91"><path id="Path_383" data-name="Path 383" d="M42,163.81H30.51l-21.28,0a8.9,8.9,0,0,1-6.76-3,8.9,8.9,0,0,1-2.32-7c.27-2.75.54-5.83.79-8.8A120.44,120.44,0,0,1,2.4,131.69a10,10,0,0,1,3-5.79,14,14,0,0,1,5.16-1.85l3.41-.84c.9-.28,1.73-.52,2.52-.74s1.35-.39,2-.59a17.93,17.93,0,0,0,7-3.6A11.26,11.26,0,0,1,20.82,116l-.16-.12a42.22,42.22,0,0,1-3.79-3.53,23,23,0,0,1-2.54-3.42,5.3,5.3,0,0,1-.6-3.83A91.9,91.9,0,0,1,15,95.76,74.12,74.12,0,0,1,18.44,83,13.59,13.59,0,0,1,23,76.61a13.16,13.16,0,0,1,3.63-1.87,19.51,19.51,0,0,1,5.56-3.28,16.77,16.77,0,0,1,8.77-.64,20.2,20.2,0,0,1,8.63,4.27,22.66,22.66,0,0,1,5.85,7.37A41.23,41.23,0,0,1,58.82,93c.9,4.27,1.64,9.67,2.38,14.89a2.08,2.08,0,0,1-.31,1.42,19.77,19.77,0,0,1-11.12,9.26,17.85,17.85,0,0,0,6.6,3.34l2,.58c.79.23,1.63.45,2.52.74l3.41.85a13.83,13.83,0,0,1,5.16,1.84,10,10,0,0,1,3,5.8A123,123,0,0,1,73.94,145c.25,3,.52,6.06.79,8.8a9.13,9.13,0,0,1-9.08,10l-20.2,0a8.51,8.51,0,0,1-1,0H42Zm-8.79-3.88h9.21V140.12a60.37,60.37,0,0,1,1.89-11.79l.24-1.1a11.36,11.36,0,0,1-4.61,1.94,12.92,12.92,0,0,1-5.07,0,10.12,10.12,0,0,1-4.2-1.75c.05.25.09.49.14.73a71.55,71.55,0,0,1,1.67,12v19.81ZM49.31,123c-.27,1.8-.75,3.92-1.25,6.19a57.93,57.93,0,0,0-1.8,11V160l19.36,0a5.28,5.28,0,0,0,5.24-5.78c-.28-2.75-.54-5.85-.8-8.84-.45-5.31-1-11.31-1.32-12.52-.79-2.73-1.19-3.45-1.61-3.77a13.57,13.57,0,0,0-3.77-1.19L59.88,127l-.1,0c-.9-.28-1.71-.51-2.49-.73s-1.41-.4-2.06-.61A23.73,23.73,0,0,1,49.3,123Zm-23.41-.24a22.85,22.85,0,0,1-6.27,2.82c-.66.21-1.35.4-2.05.61s-1.61.45-2.5.73l-.1,0-3.48.87A13.13,13.13,0,0,0,7.73,129c-.43.32-.83,1-1.62,3.77C5.76,134,5.25,140,4.8,145.3c-.26,3-.53,6.09-.8,8.85a5,5,0,0,0,1.35,4,5,5,0,0,0,3.88,1.72h5.46l13.9,0V140.15A71.72,71.72,0,0,0,27,128.86c-.48-2.47-.86-4.48-1.1-6.11Zm3.6-4.23a21.71,21.71,0,0,0,2.79,5.17,5.73,5.73,0,0,0,3.3,1.65,9.09,9.09,0,0,0,3.6,0,7,7,0,0,0,3.29-1.46,11.39,11.39,0,0,0,2.11-3.11l1.28-2.45,0,0a9.75,9.75,0,0,1-2.32-1.06,13.51,13.51,0,0,1-6.06,1.86h-.23a14.68,14.68,0,0,1-6.75-2.1,13.42,13.42,0,0,1-1.49.69,2,2,0,0,1,.44.81Zm4-28.31a28.11,28.11,0,0,0-3,.14,7.66,7.66,0,0,0-3,.77c-1.93,1.62-1,16.06.63,18.21l.09.12a12.37,12.37,0,0,0,9.22,5.79,9.91,9.91,0,0,0,5-1.8,1.19,1.19,0,0,1,.23-.16A24.65,24.65,0,0,0,47,109.07h0c1.32-1.65.81-12.76-.6-18.83a5.71,5.71,0,0,1-1.62.48,28.61,28.61,0,0,1-5.85-.18l-2.09-.18c-1.13-.09-2.24-.15-3.27-.15Zm13.55,24.4a4.68,4.68,0,0,0,2,.12c3.43-.53,6.72-4.89,8.21-7-.7-5-1.42-10-2.25-14a37.3,37.3,0,0,0-3.06-9.56,18.82,18.82,0,0,0-4.84-6.14,16.26,16.26,0,0,0-6.93-3.46,13,13,0,0,0-6.71.48A16.77,16.77,0,0,0,28.73,78a1.83,1.83,0,0,1-.53.29,10.63,10.63,0,0,0-2.92,1.45A10,10,0,0,0,22,84.44a72.55,72.55,0,0,0-3.23,12,86.29,86.29,0,0,0-1.21,8.93,10.17,10.17,0,0,0-.06,1.35s.06.11.12.2a19.14,19.14,0,0,0,2.09,2.81,38.07,38.07,0,0,0,3.36,3.12c2.05,1.41,2.74,1.87,4.05,1.45a22.83,22.83,0,0,1-2.07-2.53c-2.15-2.7-3.15-13-2.25-18.6a7.2,7.2,0,0,1,2.62-5.32,10.89,10.89,0,0,1,4.63-1.35,41.38,41.38,0,0,1,7,0l2.16.18a27,27,0,0,0,4.92.21c.58-.09.6-.14.71-.49l0-.12a2.27,2.27,0,0,1,2-1.84,2.4,2.4,0,0,1,2.25,1.75c1.9,4.51,4,21.53.76,25.38a34.84,34.84,0,0,1-2.89,3.06Z" style="stroke:#000;stroke-miterlimit:10;stroke-width:0.20000000298023224px"/></g><g id="Group_92" data-name="Group 92"><path id="Path_384" data-name="Path 384" d="M59.07,12.16a1.29,1.29,0,1,1,1.32-2.22ZM86.18,28.24,59.07,12.16l1.32-2.22L87.5,26l-.68,2.4-.64-.18ZM87.5,26A1.3,1.3,0,0,1,88,27.79h0a1.29,1.29,0,0,1-1.77.45ZM59.31,25.6l27.54.24,0,2.58-27.53-.23h-.1l.12-2.58Zm0,2.59A1.29,1.29,0,0,1,58,26.89h0a1.3,1.3,0,0,1,1.3-1.29l0,2.59ZM33.76,57.45l-2.55.39-.29-2.09-.22-2-.14-2-.07-1.9V48l.08-1.75.15-1.7L31,43l.31-1.56.39-1.49.45-1.43.54-1.35.63-1.29.7-1.22.79-1.15.86-1.08.95-1,1-.92,1.1-.85,1.17-.77,1.25-.68,1.32-.61L43.83,27l1.46-.45,1.52-.38,1.6-.3,1.66-.23,1.73-.16,1.8-.08h1.87l1.93.07,2,.13-.22,2.58-1.91-.13L55.42,28H53.66L52,28.09l-1.62.14-1.53.21-1.46.28L46,29.07l-1.31.41-1.23.45-1.15.53-1.08.6-1,.66-.94.72-.86.79-.81.85-.74.9-.67,1L35.58,37,35,38.14l-.48,1.2-.41,1.27L33.8,42l-.28,1.42-.22,1.49-.14,1.58-.08,1.64v1.72l.07,1.8.14,1.87.2,1.94.28,2Zm0,0a1.28,1.28,0,0,1-1.07,1.47h0a1.3,1.3,0,0,1-1.47-1.09Zm26.66-12.1A1.29,1.29,0,0,1,58.63,45v0A1.28,1.28,0,0,1,59,43.17l0,0,1.38,2.18Zm27.1-17.11L60.42,45.35,59,43.17l27.1-17.11,1.39,2.19Zm-1.38-2.18a1.29,1.29,0,0,1,1.78.37l0,0a1.29,1.29,0,0,1-.38,1.79h0l-1.38-2.18Z" style="stroke:#000;stroke-miterlimit:10;stroke-width:0.20000000298023224px"/></g><g id="Group_93" data-name="Group 93"><path id="Path_385" data-name="Path 385" d="M109.94,161.7a1.29,1.29,0,1,1-1.32,2.22h0ZM82.83,145.62l27.11,16.08-1.32,2.22L81.51,147.83l.67-2.4.65.18Zm-1.32,2.22a1.3,1.3,0,0,1-.45-1.77,1.28,1.28,0,0,1,1.76-.45h0l-1.32,2.22Zm28.19.41L82.16,148v-2.59l27.54.24h.1l-.13,2.58Zm0-2.58a1.29,1.29,0,1,1,0,2.58h0v-2.58Zm25.52-29.27,2.55-.38.29,2.09.22,2,.14,2,.07,1.9v1.82l-.07,1.76-.16,1.7L138,130.9l-.31,1.55-.39,1.5-.45,1.43-.54,1.35-.63,1.29-.71,1.22-.78,1.15-.86,1.07-1,1-1,.9-1.09.84-1.18.77-1.25.69-1.32.62-1.39.53-1.45.45-1.53.38-1.59.3-1.66.23-1.73.15-1.8.08h-1.87l-1.94-.06-2-.14.21-2.57,1.92.13,1.84.07h1.77l1.69-.08,1.61-.14,1.53-.22,1.46-.27,1.39-.35,1.3-.4,1.23-.48,1.16-.53,1.08-.6,1-.66.94-.72.87-.79.8-.85.74-.9.67-1,.61-1.06.54-1.12.49-1.2.41-1.27.35-1.35.28-1.42.21-1.49.15-1.58.07-1.64V124l-.06-1.8-.14-1.87-.2-1.94-.28-2Zm0,0a1.29,1.29,0,0,1,2.55-.39l-2.55.39Zm-26.65,12.11a1.29,1.29,0,0,1,1.79.38v0a1.28,1.28,0,0,1-.38,1.78l0,0-1.38-2.19Zm-27.1,17.1,27.1-17.1,1.38,2.18L82.84,147.8l-1.37-2.18Zm1.37,2.18a1.28,1.28,0,0,1-1.78-.38l0,0a1.28,1.28,0,0,1,.38-1.78l0,0,1.38,2.18Z" style="stroke:#000;stroke-miterlimit:10;stroke-width:0.20000000298023224px"/></g></g></g></g></svg>