<svg xmlns="http://www.w3.org/2000/svg" viewBox="0 0 164.3 164.2"><g id="Layer_2" data-name="Layer 2"><g id="Layer_1-2" data-name="Layer 1"><g id="Group_187" data-name="Group 187"><path id="Path_1003" data-name="Path 1003" d="M82.13,164.1a81.66,81.66,0,0,1-63-29.52,2.11,2.11,0,0,1,.27-3l0,0a2.12,2.12,0,0,1,3,.27l0,0A77.75,77.75,0,0,0,159.93,82.05a78.39,78.39,0,0,0-4.74-26.86,2.12,2.12,0,0,1,4-1.45h0A82.06,82.06,0,0,1,82.12,164.09Z" style="fill:#525252;stroke:#525252;stroke-width:0.20000000298023224px"/><path id="Path_1004" data-name="Path 1004" d="M7.15,111.82a2.16,2.16,0,0,1-2-1.38,82,82,0,0,1,140-80.82,2.11,2.11,0,0,1-.27,3l0,0a2.12,2.12,0,0,1-3-.26l0,0A77.76,77.76,0,0,0,4.32,82.12,78.4,78.4,0,0,0,9.06,109a2.11,2.11,0,0,1-1.27,2.71,1.73,1.73,0,0,1-.64.12Z" style="fill:#525252;stroke:#525252;stroke-width:0.20000000298023224px"/><path id="Path_1005" data-name="Path 1005" d="M143.48,33.14a1.91,1.91,0,0,1-.58-.06L126,28.52A2.11,2.11,0,0,1,124.46,26s0,0,0,0A2.09,2.09,0,0,1,127,24.41h0L140.42,28l-3.58-13.35a2.1,2.1,0,0,1,1.46-2.59h0a2.09,2.09,0,0,1,2.59,1.45s0,0,0,.05l4.56,16.92a2.09,2.09,0,0,1-2,2.66Z" style="fill:#525252;stroke:#525252;stroke-width:0.20000000298023224px"/><path id="Path_1006" data-name="Path 1006" d="M25.29,152.25a2.21,2.21,0,0,1-2.08-1.56l-4.56-16.92a2.16,2.16,0,0,1,.57-2.08,2.26,2.26,0,0,1,2.08-.58l16.93,4.56a2.11,2.11,0,0,1,1.52,2.56l0,0a2.1,2.1,0,0,1-2.55,1.52l0,0-13.35-3.58,3.58,13.35a2.1,2.1,0,0,1-1.46,2.59h0a1.17,1.17,0,0,1-.58.12Z" style="fill:#525252;stroke:#525252;stroke-width:0.20000000298023224px"/><path id="Path_1007" data-name="Path 1007" d="M98.71,121.35A48.34,48.34,0,0,1,80,117.42c-2.2-.81-4.74-1.67-7.69-2.6a21.2,21.2,0,0,0-18.49,4.05,2.12,2.12,0,0,1-2.36-3.53,25.66,25.66,0,0,1,22.12-4.56c3,.92,5.61,1.84,7.86,2.66A43.72,43.72,0,0,0,101.31,117a14.67,14.67,0,0,0,9.7-2.76c.47-.29,1-.58,1.51-.87l28.71-16.57a2.06,2.06,0,0,0,.75-2.76l-1.5-2.6a4.83,4.83,0,0,0-3.06-2.31,4.93,4.93,0,0,0-3.81.52l-21.55,12.48a11.11,11.11,0,0,1-.29,1.27c-.63,2.43-1.15,4.56-2.94,5.52a7.12,7.12,0,0,1-5.53,0L83.43,103A2.12,2.12,0,0,1,82,100.4l0-.06a2.1,2.1,0,0,1,2.6-1.46l0,0,19.8,5.89a6.17,6.17,0,0,0,2.25.4,17.23,17.23,0,0,0,.92-2.88,6.1,6.1,0,0,0,.24-1.33,2,2,0,0,1,.05-.64,4.62,4.62,0,0,0-.69-2.83c-1.79-2.89-7-4-11.21-5-.69-.11-1.33-.29-1.91-.4a63.32,63.32,0,0,1-17.9-8.26c-.06,0-.06-.06-.12-.06C63.25,74,38.52,91.56,38.29,91.74a2.11,2.11,0,0,1-2.94-.46h0a2.1,2.1,0,0,1,.45-2.94h0c1.09-.81,27.44-19.52,42.81-7.91A63.4,63.4,0,0,0,95.09,88c.57.12,1.21.29,1.84.41,5,1.1,11.2,2.42,14,6.87a8.4,8.4,0,0,1,.92,2.08L131.62,86a9.28,9.28,0,0,1,12.66,3.35l1.5,2.6a6.25,6.25,0,0,1-2.28,8.53l0,0L114.77,117c-.58.34-1,.58-1.51.87a18.43,18.43,0,0,1-11.66,3.35,25.38,25.38,0,0,1-2.89.11Z" style="fill:#525252;stroke:#525252;stroke-width:0.20000000298023224px"/><path id="Path_1008" data-name="Path 1008" d="M22.63,91.26l21.14,36.68,5.84-3.35a4.25,4.25,0,0,0,2-2.6,4.19,4.19,0,0,0-.4-3.23L34.24,89.48a4.32,4.32,0,0,0-5.82-1.57h0l-5.78,3.36ZM43,133a2.76,2.76,0,0,1-.57-.06,2.44,2.44,0,0,1-1.27-1L17.9,91.55a2.23,2.23,0,0,1-.23-1.62,2.42,2.42,0,0,1,1-1.27l7.68-4.45A8.53,8.53,0,0,1,38,87.34l16.93,29.28a8.47,8.47,0,0,1,.86,6.47,8.57,8.57,0,0,1-4,5.2l-7.69,4.45A3.72,3.72,0,0,1,43,133Z" style="fill:#525252;stroke:#525252;stroke-width:0.20000000298023224px"/><path id="Path_1009" data-name="Path 1009" d="M119,97.78a2.18,2.18,0,0,1-1.5-.64,2.16,2.16,0,0,1,0-3l16.57-16.57a2,2,0,0,0,.07-2.76l-.07-.07-2.13-2.14a5,5,0,0,0-7,0l0,0L104,93.51a2.12,2.12,0,0,1-3-3L121.87,69.6a9.34,9.34,0,0,1,13.11,0l2.14,2.14a6.27,6.27,0,0,1,0,8.84L120.55,97.15a2.09,2.09,0,0,1-1.56.63Z" style="fill:#525252;stroke:#525252;stroke-width:0.20000000298023224px"/><path id="Path_1010" data-name="Path 1010" d="M49.67,129.14a2.19,2.19,0,0,1-1.84-1l-9.36-16.17a2.09,2.09,0,0,1,.77-2.86l0,0a2.08,2.08,0,0,1,2.86.77l0,0L51.52,126a2.09,2.09,0,0,1-.77,2.86l0,0a3.08,3.08,0,0,1-1,.23Z" style="fill:#525252;stroke:#525252;stroke-width:0.20000000298023224px"/><path id="Path_1011" data-name="Path 1011" d="M77.33,35.55a7.28,7.28,0,0,0-7.27,7.28c0,8,8.2,16.69,16.63,25.13,8.44-8.44,16.64-17.1,16.64-25.13a7.28,7.28,0,0,0-7.28-7.28c-3.46,0-5.26,1.45-7.45,5.84a2.15,2.15,0,0,1-1.91,1.15h0a2.14,2.14,0,0,1-1.9-1.15C82.59,36.94,80.8,35.55,77.33,35.55ZM86.69,73a2.17,2.17,0,0,1-1.5-.63c-9.53-9.53-19.34-19.34-19.34-29.63A11.51,11.51,0,0,1,77.36,31.27a10.58,10.58,0,0,1,9.36,4.91,10.44,10.44,0,0,1,9.36-4.91,11.51,11.51,0,0,1,11.51,11.51c0,10.28-9.88,20.1-19.34,29.63a2.05,2.05,0,0,1-1.5.63Z" style="fill:#525252;stroke:#525252;stroke-width:0.20000000298023224px"/></g></g></g></svg>