<svg xmlns="http://www.w3.org/2000/svg" viewBox="0 0 164.25 104.09"><g id="Layer_2" data-name="Layer 2"><g id="Layer_1-2" data-name="Layer 1"><g id="Group_212" data-name="Group 212"><path id="Path_354" data-name="Path 354" d="M82.12,104A84.34,84.34,0,0,1,40.71,93,106.79,106.79,0,0,1,5.33,60.11l-4.87-7A1.88,1.88,0,0,1,.46,51l4.87-7,1.54,1.07L5.33,44A106.58,106.58,0,0,1,40.71,11.13a83.44,83.44,0,0,1,82.82,0A106.65,106.65,0,0,1,158.93,44l4.86,7a1.88,1.88,0,0,1,0,2.15l-4.86,7A106.86,106.86,0,0,1,123.53,93,84.31,84.31,0,0,1,82.12,104ZM4.28,52.06,8.4,58C27.09,84.82,54,100.22,82.12,100.22s55-15.4,73.73-42.25L160,52.06l-4.12-5.91C137.16,19.29,110.3,3.9,82.12,3.9S27.09,19.3,8.4,46.15Z" style="fill:#535353;stroke:#535353;stroke-miterlimit:10;stroke-width:0.25px;fill-rule:evenodd"/><path id="Path_355" data-name="Path 355" d="M82.12,91.74A72.14,72.14,0,0,1,46.23,82,94.76,94.76,0,0,1,15.36,53.12a1.88,1.88,0,0,1,0-2.15A94.79,94.79,0,0,1,46.23,22,71.31,71.31,0,0,1,118,22,95,95,0,0,1,148.88,51a1.88,1.88,0,0,1,0,2.15A94.86,94.86,0,0,1,118,82,72.27,72.27,0,0,1,82.12,91.74ZM19.18,52C35.74,75.23,58,88,82.12,88S128.52,75.23,145.06,52C128.49,28.85,106.21,16.1,82.12,16.1S35.72,28.85,19.18,52Z" style="fill:#535353;stroke:#535353;stroke-miterlimit:10;stroke-width:0.25px;fill-rule:evenodd"/><path id="Path_356" data-name="Path 356" d="M82.12,82.72a1.88,1.88,0,0,1-1.53-.78L57.79,50a1.84,1.84,0,0,1-.35-1.09V35.94a1.87,1.87,0,0,1,1-1.64l22.8-12.7a1.88,1.88,0,0,1,1.84,0l22.81,12.7a1.88,1.88,0,0,1,1,1.64V48.87a1.86,1.86,0,0,1-.35,1.09l-22.8,32a1.89,1.89,0,0,1-1.53.79ZM61.19,48.27,82.12,77.61,103,48.27V37L82.12,25.39,61.19,37Z" style="fill:#535353;stroke:#535353;stroke-miterlimit:10;stroke-width:0.25px;fill-rule:evenodd"/><path id="Path_359" data-name="Path 359" d="M44.74,63a1.88,1.88,0,0,1-1.88-1.88h0V43a1.88,1.88,0,0,1,1.87-1.88h0A1.88,1.88,0,0,1,46.62,43h0v18.1A1.88,1.88,0,0,1,44.74,63Z" style="fill:#535353;stroke:#535353;stroke-miterlimit:10;stroke-width:0.25px;fill-rule:evenodd"/><path id="Path_360" data-name="Path 360" d="M119.5,63a1.88,1.88,0,0,1-1.87-1.88h0V43a1.87,1.87,0,0,1,1.87-1.88h0A1.88,1.88,0,0,1,121.38,43h0v18.1A1.88,1.88,0,0,1,119.5,63Z" style="fill:#535353;stroke:#535353;stroke-miterlimit:10;stroke-width:0.25px;fill-rule:evenodd"/></g></g></g></svg>