<svg xmlns="http://www.w3.org/2000/svg" viewBox="0 0 167.43 164.17"><g id="Layer_2" data-name="Layer 2"><g id="Layer_1-2" data-name="Layer 1"><g id="Group_87" data-name="Group 87" style="opacity:0.6700000166893005"><path id="Path_361" data-name="Path 361" d="M83.71,48.76a16.41,16.41,0,1,0,0,32.82h0a16.41,16.41,0,0,0,16.42-16.41h0A16.42,16.42,0,0,0,83.71,48.76Zm0,36.54a20.17,20.17,0,1,1,20.17-20.16A20.17,20.17,0,0,1,83.71,85.3ZM79.94,101h7.59l1-6.64A1.86,1.86,0,0,1,90,92.84a28.17,28.17,0,0,0,9-3.75,1.88,1.88,0,0,1,2.18.08l5.37,4,5.32-5.33-4-5.37a1.93,1.93,0,0,1-.08-2.18,27.72,27.72,0,0,0,3.75-9,1.9,1.9,0,0,1,1.59-1.47l6.61-1V61.35l-6.64-1a1.88,1.88,0,0,1-1.56-1.48,28.17,28.17,0,0,0-3.75-9,1.86,1.86,0,0,1,.08-2.18l4-5.36L106.54,37l-5.37,4a1.93,1.93,0,0,1-2.18.08,28.17,28.17,0,0,0-9-3.75,1.91,1.91,0,0,1-1.48-1.55l-1-6.65H79.94l-1,6.65A1.86,1.86,0,0,1,77.5,37.3a28.31,28.31,0,0,0-9,3.75A1.91,1.91,0,0,1,66.34,41l-5.45-4-5.28,5.29,4,5.36a2,2,0,0,1,.08,2.18,27.72,27.72,0,0,0-3.75,9,1.92,1.92,0,0,1-1.56,1.48l-6.64,1v7.62l6.64,1a1.88,1.88,0,0,1,1.56,1.48,28.17,28.17,0,0,0,3.75,9,1.88,1.88,0,0,1-.08,2.18l-4,5.37,5.32,5.32,5.37-4a1.93,1.93,0,0,1,2.18-.08,28.17,28.17,0,0,0,9,3.75,1.9,1.9,0,0,1,1.47,1.56l1,6.68Zm9.22,3.82H78.37a1.87,1.87,0,0,1-1.87-1.63l-1-7A32.42,32.42,0,0,1,67.67,93L62,97.26a1.88,1.88,0,0,1-2.49-.2l-7.66-7.65a1.88,1.88,0,0,1-.19-2.49l4.22-5.63a31,31,0,0,1-3.23-7.81l-7-1a2,2,0,0,1-1.63-1.88V59.81a1.87,1.87,0,0,1,1.63-1.88l7-1a32.51,32.51,0,0,1,3.23-7.81l-4.22-5.63A1.87,1.87,0,0,1,51.85,41l7.62-7.62A1.87,1.87,0,0,1,62,33.18l5.63,4.22a31,31,0,0,1,7.81-3.23l1-7a2,2,0,0,1,1.87-1.64H89.09A1.9,1.9,0,0,1,91,27.21l1,7a32.11,32.11,0,0,1,7.81,3.23l5.63-4.22a1.88,1.88,0,0,1,2.49.19L115.56,41a1.91,1.91,0,0,1,.2,2.49l-4.12,5.59a31.63,31.63,0,0,1,3.23,7.82l7,1a2,2,0,0,1,1.63,1.88V70.6a1.88,1.88,0,0,1-1.63,1.88l-6.92,1a32.75,32.75,0,0,1-3.23,7.81l4.22,5.63a1.88,1.88,0,0,1-.19,2.49L108.05,97a1.88,1.88,0,0,1-2.49.19L99.93,93a30.67,30.67,0,0,1-7.81,3.23l-1,7a1.94,1.94,0,0,1-1.91,1.71ZM159.37,61a4.16,4.16,0,1,0,4.16,4.16A4.22,4.22,0,0,0,159.37,61Zm0,12.09a7.92,7.92,0,0,1-7.93-7.9v0a7.91,7.91,0,0,1,7.89-7.94h0a7.92,7.92,0,0,1,7.93,7.9v0A8,8,0,0,1,159.37,73.1ZM153.3,67H138.25a1.91,1.91,0,0,1,0-3.81H153.3a1.93,1.93,0,0,1,1.91,1.91,1.88,1.88,0,0,1-1.85,1.9ZM8.05,61a4.16,4.16,0,1,0,4.16,4.16A4.15,4.15,0,0,0,8.05,61Zm0,12.09A7.91,7.91,0,0,1,.13,65.2v0A7.9,7.9,0,0,1,8,57.23h0A7.92,7.92,0,0,1,16,65.13v0A8,8,0,0,1,8.05,73.1ZM29.2,67H14.12a1.91,1.91,0,0,1,0-3.81H29.21a1.91,1.91,0,0,1,1.9,1.91,1.94,1.94,0,0,1-1.9,1.9ZM139,118a4.16,4.16,0,1,0,4.16,4.16A4.16,4.16,0,0,0,139,118Zm0,12.09a7.92,7.92,0,0,1-7.93-7.9v0a7.93,7.93,0,0,1,7.9-7.94h0a7.93,7.93,0,0,1,7.94,7.9v0A8,8,0,0,1,139,130.13Zm-4.22-10.26a1.85,1.85,0,0,1-1.56-.82l-12.83-12.79a1.88,1.88,0,0,1,0-2.65l0,0a1.88,1.88,0,0,1,2.66,0l0,0,13.06,13a2,2,0,0,1,.58,1.32v0a2,2,0,0,1-1.94,1.9ZM137.26,3.94a4.16,4.16,0,1,0,4.16,4.16,4.16,4.16,0,0,0-4.16-4.16Zm0,12.09a7.9,7.9,0,0,1-7.93-7.9v0A7.93,7.93,0,1,1,137.26,16ZM120.62,26.69a1.74,1.74,0,0,1-1.32-.59,1.9,1.9,0,0,1,0-2.68L131.69,11a1.9,1.9,0,0,1,2.69,2.68L121.94,26.1a1.77,1.77,0,0,1-1.33.59ZM28.44,118.05a4.16,4.16,0,1,0,4.16,4.16A4.22,4.22,0,0,0,28.44,118.05Zm0,12.09a7.91,7.91,0,0,1-7.93-7.89v0a7.92,7.92,0,0,1,7.9-7.94h0a7.92,7.92,0,0,1,7.93,7.9v0A7.93,7.93,0,0,1,28.44,130.14Zm4.28-10.26A1.92,1.92,0,0,1,30.81,118a1.85,1.85,0,0,1,.78-1.51l12.79-12.83a1.88,1.88,0,0,1,2.66,0l0,0a1.88,1.88,0,0,1,0,2.65l0,0-13,13a1.86,1.86,0,0,1-1.36.54ZM30.19,4a4.16,4.16,0,1,0,4.16,4.16A4.17,4.17,0,0,0,30.19,4Zm0,12.09a7.91,7.91,0,0,1-7.93-7.9v0A7.93,7.93,0,1,1,38.12,8v0a8,8,0,0,1-7.93,8ZM47,26.77a1.73,1.73,0,0,1-1.33-.58L33.11,13.67a1.87,1.87,0,0,1,0-2.65l0,0a1.86,1.86,0,0,1,2.65,0l0,0L48.35,23.51a1.88,1.88,0,0,1,0,2.65l0,0a1.77,1.77,0,0,1-1.36.58ZM83.71,164.05a13.6,13.6,0,0,1-13.6-13.6,1.91,1.91,0,1,1,3.81,0,9.8,9.8,0,0,0,19.59,0,1.91,1.91,0,1,1,3.81,0,13.6,13.6,0,0,1-13.6,13.6Zm16.88-11.73H66.89a7.77,7.77,0,0,1-7.78-7.77v-6a1.91,1.91,0,1,1,3.81,0v6a4,4,0,0,0,4,4h33.71a4,4,0,0,0,4-4h0v-6a1.9,1.9,0,1,1,3.8,0v6a7.91,7.91,0,0,1-7.85,7.77ZM55.46,128.61a4,4,0,0,0,0,8.08H112a4.09,4.09,0,0,0,4-4,4,4,0,0,0-4-4ZM112,140.46H55.45a7.82,7.82,0,1,1,0-15.63H112a7.82,7.82,0,0,1,0,15.63ZM55.46,128.57A1.89,1.89,0,0,1,53.58,127a52.37,52.37,0,0,0-12.51-24.88A58.26,58.26,0,0,1,29.81,82,56.71,56.71,0,0,1,45.07,23.91a56.47,56.47,0,0,1,95.07,39.62A57.73,57.73,0,0,1,137.58,82,56.06,56.06,0,0,1,126,102.56,50.7,50.7,0,0,0,113.82,127a1.91,1.91,0,1,1-3.77-.66,54.17,54.17,0,0,1,13.06-26.26A52.06,52.06,0,0,0,134,81a54.88,54.88,0,0,0,2.42-17.26A52.68,52.68,0,0,0,31,65.14a53.46,53.46,0,0,0,2.41,15.79,52.83,52.83,0,0,0,10.5,18.7,56.35,56.35,0,0,1,13.34,26.73,1.92,1.92,0,0,1-1.52,2.22,1,1,0,0,1-.3,0Z" style="stroke:#000;stroke-miterlimit:10;stroke-width:0.25px"/></g></g></g></svg>