<svg xmlns="http://www.w3.org/2000/svg" viewBox="0 0 164.23 164.24"><g id="Layer_2" data-name="Layer 2"><g id="Layer_1-2" data-name="Layer 1"><g id="Group_85" data-name="Group 85" style="opacity:0.6700000166893005"><path id="Path_340" data-name="Path 340" d="M82.11,44.57a37.54,37.54,0,1,0,37.53,37.54A37.58,37.58,0,0,0,82.11,44.57Zm0,81a43.48,43.48,0,1,1,43.47-43.47A43.53,43.53,0,0,1,82.11,125.59Z"/><path id="Path_341" data-name="Path 341" d="M15.27,73.71a2.81,2.81,0,0,1-.5,0,3,3,0,0,1-2.43-3.42A71,71,0,0,1,50.16,19a3,3,0,0,1,2.68,5.29,65,65,0,0,0-34.64,47,3,3,0,0,1-2.93,2.48Z"/><path id="Path_342" data-name="Path 342" d="M70.91,151.92a4.21,4.21,0,0,1-.5,0A70.52,70.52,0,0,1,20.58,117a3,3,0,0,1,5.16-2.93A64.59,64.59,0,0,0,71.4,146a3,3,0,0,1,2.43,3.4h0a3,3,0,0,1-2.92,2.48Z"/><path id="Path_343" data-name="Path 343" d="M115.68,144a3,3,0,0,1-1.48-5.54h0A64.58,64.58,0,0,0,146,93a3,3,0,0,1,3.41-2.42h0A3,3,0,0,1,151.88,94a70.47,70.47,0,0,1-34.73,49.61,2.88,2.88,0,0,1-1.46.39Z"/><path id="Path_344" data-name="Path 344" d="M142.74,54.73a3,3,0,0,1-2.66-1.64A65,65,0,0,0,93,18.2a3,3,0,0,1,.94-5.86h0a71,71,0,0,1,51.46,38.08,3,3,0,0,1-1.32,4h0a3,3,0,0,1-1.32.31Z"/><path id="Path_345" data-name="Path 345" d="M62.86,85.14l0,0a10.61,10.61,0,0,0,2.65,2.3,3.47,3.47,0,0,1,.38.29l13,11.34a4.87,4.87,0,0,0,6.42,0l13-11.35a4.73,4.73,0,0,1,.39-.28,10.79,10.79,0,0,0,2.64-2.31l.07-.07a10.64,10.64,0,0,0,2.17-8.56h0a10.65,10.65,0,0,0-19.06-4.4,3.07,3.07,0,0,1-4.32.45,2.4,2.4,0,0,1-.45-.45,10.65,10.65,0,1,0-16.87,13Zm19.25,21.12A10.77,10.77,0,0,1,75,103.6L62.2,92.4a16.59,16.59,0,0,1-3.8-3.34l-.11-.13a16.7,16.7,0,0,1-3.47-13.36A16.58,16.58,0,0,1,82.11,66,16.58,16.58,0,1,1,102,92.42l-12.8,11.2a10.81,10.81,0,0,1-7.11,2.66Z"/><path id="Path_346" data-name="Path 346" d="M82.12,5.93a8.4,8.4,0,1,0,8.39,8.4A8.41,8.41,0,0,0,82.12,5.93Zm0,22.73A14.33,14.33,0,1,1,96.45,14.33,14.35,14.35,0,0,1,82.12,28.66Z"/><path id="Path_347" data-name="Path 347" d="M14.33,73.71a8.4,8.4,0,1,0,8.4,8.4A8.42,8.42,0,0,0,14.33,73.71Zm0,22.74A14.34,14.34,0,1,1,28.66,82.12,14.35,14.35,0,0,1,14.33,96.45Z"/><path id="Path_348" data-name="Path 348" d="M82.12,141.49a8.4,8.4,0,1,0,8.39,8.4A8.41,8.41,0,0,0,82.12,141.49Zm0,22.74a14.33,14.33,0,1,1,14.35-14.32,14.36,14.36,0,0,1-14.35,14.32Z"/><path id="Path_349" data-name="Path 349" d="M149.89,73.71a8.4,8.4,0,1,0,8.4,8.4A8.4,8.4,0,0,0,149.89,73.71Zm0,22.74a14.34,14.34,0,1,1,14.34-14.33A14.35,14.35,0,0,1,149.89,96.45Z"/><path id="Path_350" data-name="Path 350" d="M82.12,44.59a3,3,0,0,1-3-3V25.7a3,3,0,1,1,5.93,0V41.61a3,3,0,0,1-3,3Z"/><path id="Path_351" data-name="Path 351" d="M41.59,85.08H25.68a3,3,0,0,1-3-3h0a3,3,0,0,1,3-3H41.59a3,3,0,0,1,0,5.94Z"/><path id="Path_352" data-name="Path 352" d="M82.12,141.49a3,3,0,0,1-3-3V122.62a3,3,0,0,1,5.93,0v15.91a3,3,0,0,1-3,3Z"/><path id="Path_353" data-name="Path 353" d="M138.53,85.08H122.62a3,3,0,0,1-3-3h0a3,3,0,0,1,3-3h15.91a3,3,0,0,1,0,5.94Z"/></g></g></g></svg>