<svg xmlns="http://www.w3.org/2000/svg" viewBox="0 0 164.25 120.63"><g id="Layer_2" data-name="Layer 2"><g id="Layer_1-2" data-name="Layer 1"><g id="Group_89" data-name="Group 89" style="opacity:0.6700000166893005"><path id="Path_380" data-name="Path 380" d="M160.63,116.56H84.92a1,1,0,0,1-1-1h0v-6.9h76.52Zm-81.07,0H3.81v-7.93H80.32v6.9a1,1,0,0,1-.92,1ZM11,84.82H60.47a20.66,20.66,0,0,1,19.78,19.83H11V84.82Zm93,0h49.45v19.83H84A20.62,20.62,0,0,1,103.86,85l.15-.16Zm58.3,19.83H157.1V83a1.91,1.91,0,0,0-1.83-2H103.86A23.64,23.64,0,0,0,82,96.88,23.62,23.62,0,0,0,60.32,81H9.05a1.92,1.92,0,0,0-1.84,2h0v21.65H2a1.9,1.9,0,0,0-1.84,2h0v11.89a1.94,1.94,0,0,0,1.84,2H79.4a4,4,0,0,0,2.73-1,4.3,4.3,0,0,0,2.76,1h77.39a1.9,1.9,0,0,0,1.84-2h0V106.63a1.89,1.89,0,0,0-1.82-2h0Z" style="stroke:#000;stroke-miterlimit:10;stroke-width:0.25px"/><path id="Path_381" data-name="Path 381" d="M82.15,3.1a20.28,20.28,0,0,1,19.38,21,44.16,44.16,0,0,1-5,13.75q-2.84,5.81-5.13,11.9H87.23L90.4,37.31a2,2,0,0,0-1.12-2.46l-.12,0a1.84,1.84,0,0,0-2.24,1.32s0,0,0,.06L83.44,49.71H80.82L77.36,36.19a1.89,1.89,0,0,0-2.2-1.49l-.1,0a2.07,2.07,0,0,0-1.35,2.49l3.17,12.49H73q-2.31-6.08-5.14-11.89a44.82,44.82,0,0,1-5-13.76,20.25,20.25,0,0,1,19.28-21Zm8.63,61.41a8.67,8.67,0,1,1-17.27,0V63.2H90.79v1.31Zm0-10.67v5.39H73.51V53.84ZM69.86,52.21V64.5A12.87,12.87,0,0,0,82.14,77.84,12.88,12.88,0,0,0,94.42,64.5V52.33a120.82,120.82,0,0,1,5.33-12.59,44.46,44.46,0,0,0,5.42-15.57A23.91,23.91,0,0,0,81.38.13h-.12A24.12,24.12,0,0,0,59.18,24.17,44.53,44.53,0,0,0,64.6,39.74a120.09,120.09,0,0,1,5.28,12.49Z" style="stroke:#000;stroke-miterlimit:10;stroke-width:0.25px"/></g></g></g></svg>