<svg xmlns="http://www.w3.org/2000/svg" xmlns:xlink="http://www.w3.org/1999/xlink" width="360.857" height="94.103" viewBox="0 0 360.857 94.103">
  <defs>
    <clipPath id="clip-path">
      <rect id="Rectangle_181" data-name="Rectangle 181" width="360.857" height="94.103" fill="none"/>
    </clipPath>
  </defs>
  <g id="Group_417" data-name="Group 417" transform="translate(-2098.886 -394.33)" opacity="0.8">
    <g id="Group_411" data-name="Group 411" transform="translate(2098.886 394.33)" clip-path="url(#clip-path)">
      <g id="Group_410" data-name="Group 410" transform="translate(-96.116 -375.333)">
        <path id="Path_2207" data-name="Path 2207" d="M2062.267,648.849c.535-22.5,4.75-53.472,25.5-69.026,23.3-17.468,46.847-.039,69.536-17.7,29.413-22.893,15.711-72.32,40.742-85.491,16.218-8.536,29.087,8.475,43.056-1.045,13.245-9.027,16.84-30.316,22.017-63.876,3.328-21.576,2.436-29.775,8.457-32.957,13.126-6.935,32.482,26.778,48.813,19.707,23.082-9.992,11.651-73.659,41.673-91.662,23.983-14.384,54.942,12.066,66.974-.732,11.053-11.759-9.5-40,1.9-50.989,6.053-5.83,17.649-3.79,26.817-.984" transform="translate(-2062.267 -251.333)" fill="none" stroke="#fff" stroke-miterlimit="10" stroke-width="1"/>
        <path id="Path_2208" data-name="Path 2208" d="M2062.838,651.413c.662-22.565,5.045-53.619,25.885-69.247a42.417,42.417,0,0,1,6.452-4.008c21.384-10.72,42.679,2.315,63.473-13.809,29.633-22.985,16.008-72.391,41.2-85.746a21.49,21.49,0,0,1,11.707-2.494c11.16.659,21.048,8.3,31.528,1.249,7.717-5.152,12.24-14.331,15.733-27.683,2.622-9.869,4.541-21.932,6.767-36.156,1.65-10.552,2.344-17.919,3.338-23.074,1.029-5.326,2.315-8.25,5.41-9.864,8.357-4.344,19.124,7.37,30.1,14.722,6.438,4.333,12.9,7.2,18.925,4.509,17.368-7.8,15.063-45.983,26.006-71.9,3.578-8.462,8.533-15.591,15.977-19.956,24.106-14.187,55.155,12.231,67.3-.661,11.139-11.83-9.311-40.151,2.175-51.178a11.674,11.674,0,0,1,2.615-1.887c6.457-3.441,16.323-1.567,24.318.879" transform="translate(-2061.34 -249.688)" fill="none" stroke="#fff" stroke-miterlimit="10" stroke-width="1"/>
        <path id="Path_2209" data-name="Path 2209" d="M2063.41,653.979c.788-22.633,5.337-53.763,26.271-69.467a42.779,42.779,0,0,1,6.478-4.029c21.573-10.864,42.849,2.3,63.832-13.906,29.854-23.077,16.3-72.459,41.666-86a21.847,21.847,0,0,1,11.738-2.564c11.234.554,21.145,8.066,31.676,1.123,7.779-5.131,12.362-14.2,16.029-27.542,2.727-9.932,4.692-22.038,6.953-36.261,1.674-10.544,2.438-17.925,3.52-23.1,1.1-5.3,2.407-8.216,5.52-9.819,8.449-4.32,19.252,7.365,30.3,14.531,6.473,4.231,12.93,7,18.927,4.226,17.35-8.019,14.938-46.38,26.1-72.244,3.653-8.447,8.691-15.51,16.192-19.812,24.227-13.99,55.367,12.4,67.619-.591,11.229-11.9-9.118-40.3,2.446-51.367a11.756,11.756,0,0,1,2.63-1.9c6.51-3.473,16.415-1.588,24.421.866" transform="translate(-2060.41 -248.043)" fill="none" stroke="#fff" stroke-miterlimit="10" stroke-width="1"/>
        <path id="Path_2210" data-name="Path 2210" d="M2063.982,656.541c.912-22.7,5.628-53.9,26.657-69.682a43.29,43.29,0,0,1,6.5-4.055c21.762-11.006,43.021,2.294,64.191-14,30.075-23.166,16.6-72.528,42.125-86.25a22.25,22.25,0,0,1,11.772-2.635c11.308.446,21.256,7.851,31.823.995,7.851-5.092,12.515-14.058,16.326-27.4,2.854-9.992,4.845-22.14,7.139-36.366,1.7-10.538,2.533-17.927,3.7-23.132,1.184-5.271,2.5-8.187,5.633-9.772,8.536-4.318,19.4,7.326,30.507,14.336,6.516,4.11,12.959,6.788,18.928,3.942,17.323-8.263,14.812-46.779,26.193-72.583,3.734-8.431,8.858-15.415,16.41-19.67,24.378-13.741,55.58,12.562,67.942-.52,11.315-11.977-8.927-40.44,2.716-51.556a11.926,11.926,0,0,1,2.644-1.9c6.564-3.5,16.512-1.612,24.526.848" transform="translate(-2059.481 -246.398)" fill="none" stroke="#fff" stroke-miterlimit="10" stroke-width="1"/>
        <path id="Path_2211" data-name="Path 2211" d="M2064.554,659.106c1.034-22.762,5.919-54.049,27.041-69.9a43.9,43.9,0,0,1,6.533-4.076c21.951-11.147,43.188,2.284,64.548-14.1,30.3-23.258,16.9-72.6,42.59-86.5a22.6,22.6,0,0,1,11.8-2.706c11.379.339,21.366,7.633,31.968.869,7.926-5.058,12.672-13.919,16.625-27.256,2.979-10.053,5-22.242,7.326-36.471,1.719-10.531,2.627-17.932,3.879-23.161,1.257-5.244,2.588-8.153,5.746-9.727,8.622-4.3,19.533,7.307,30.712,14.145,6.546,4,12.985,6.58,18.927,3.659,17.3-8.5,14.688-47.178,26.288-72.921,3.811-8.415,9.018-15.331,16.625-19.528,24.507-13.525,55.789,12.73,68.265-.449,11.405-12.048-8.735-40.584,2.987-51.745a12.026,12.026,0,0,1,2.656-1.908c6.617-3.536,16.607-1.63,24.634.835" transform="translate(-2058.552 -244.753)" fill="none" stroke="#fff" stroke-miterlimit="10" stroke-width="1"/>
        <path id="Path_2212" data-name="Path 2212" d="M2065.126,661.668c1.157-22.825,6.21-54.191,27.426-70.121a44.26,44.26,0,0,1,6.56-4.1c22.14-11.289,43.358,2.273,64.908-14.19,30.518-23.35,17.158-72.727,43.052-86.759a22.885,22.885,0,0,1,11.835-2.774c11.452.234,21.476,7.418,32.114.74,8-5.018,12.825-13.78,16.922-27.111,3.105-10.111,5.15-22.345,7.512-36.576,1.74-10.525,2.719-17.932,4.061-23.192,1.328-5.213,2.677-8.118,5.855-9.68,8.714-4.284,19.67,7.292,30.92,13.953,6.581,3.9,13.011,6.37,18.928,3.373,17.271-8.748,14.562-47.571,26.381-73.257,3.888-8.4,9.179-15.247,16.844-19.387,24.636-13.313,56,12.9,68.585-.378,11.491-12.121-8.543-40.729,3.257-51.934a12.3,12.3,0,0,1,2.67-1.916c6.672-3.564,16.7-1.651,24.738.819" transform="translate(-2057.622 -243.107)" fill="none" stroke="#fff" stroke-miterlimit="10" stroke-width="1"/>
        <path id="Path_2213" data-name="Path 2213" d="M2065.7,664.233c1.281-22.893,6.5-54.335,27.81-70.341a44.873,44.873,0,0,1,6.588-4.121c22.329-11.433,43.529,2.263,65.268-14.287,30.738-23.442,17.447-72.809,43.514-87.011a23.378,23.378,0,0,1,11.864-2.848c11.527.155,21.591,7.2,32.264.617,8.073-4.984,12.981-13.641,17.218-26.967,3.234-10.174,5.3-22.45,7.7-36.686,1.761-10.515,2.812-17.932,4.239-23.219,1.4-5.184,2.769-8.084,5.968-9.635,8.8-4.268,19.8,7.276,31.125,13.759,6.617,3.79,13.04,6.163,18.93,3.092,17.245-8.993,14.436-47.97,26.476-73.6,3.966-8.386,9.339-15.163,17.059-19.245,24.765-13.1,56.212,13.061,68.911-.3,11.578-12.2-8.355-40.876,3.525-52.125a12.322,12.322,0,0,1,2.683-1.921c6.727-3.6,16.8-1.672,24.843.8" transform="translate(-2056.693 -241.462)" fill="none" stroke="#fff" stroke-miterlimit="10" stroke-width="1"/>
        <path id="Path_2214" data-name="Path 2214" d="M2066.269,666.8c1.406-22.959,6.795-54.48,28.2-70.559a45.024,45.024,0,0,1,6.614-4.147c22.521-11.575,43.7,2.255,65.627-14.381,30.959-23.531,17.736-72.887,43.976-87.263a23.778,23.778,0,0,1,11.9-2.919c11.6.05,21.7,6.987,32.411.491,8.15-4.948,13.137-13.5,17.515-26.825,3.362-10.234,5.452-22.555,7.887-36.791,1.782-10.51,2.9-17.935,4.418-23.248,1.472-5.155,2.861-8.05,6.079-9.588,8.9-4.252,19.935,7.257,31.332,13.565,6.648,3.682,13.068,5.956,18.93,2.808,17.218-9.239,14.313-48.369,26.57-73.935,4.042-8.373,9.5-15.079,17.274-19.1,24.894-12.888,56.425,13.226,69.233-.234,11.665-12.271-8.16-41.02,3.8-52.314a12.424,12.424,0,0,1,2.7-1.929c6.78-3.627,16.89-1.693,24.945.787" transform="translate(-2055.765 -239.817)" fill="none" stroke="#fff" stroke-miterlimit="10" stroke-width="1"/>
        <path id="Path_2215" data-name="Path 2215" d="M2066.841,669.36c1.53-23.022,7.086-54.621,28.583-70.777a45.914,45.914,0,0,1,6.638-4.171c22.712-11.714,43.873,2.247,65.989-14.476,31.18-23.623,18.025-72.966,44.438-87.515a24.167,24.167,0,0,1,11.927-2.99c11.672-.052,21.814,6.772,32.555.362,8.226-4.908,13.3-13.363,17.814-26.681,3.491-10.294,5.6-22.657,8.074-36.9,1.8-10.5,2.992-17.935,4.6-23.276,1.541-5.126,2.95-8.019,6.189-9.544,8.987-4.234,20.069,7.239,31.54,13.373,6.68,3.575,13.095,5.746,18.929,2.525,17.192-9.486,14.187-48.768,26.663-74.276,4.124-8.355,9.659-14.993,17.492-18.959,25.021-12.675,56.637,13.392,69.556-.163,11.754-12.342-7.969-41.167,4.068-52.5a12.677,12.677,0,0,1,2.709-1.937c6.835-3.659,16.985-1.711,25.051.772" transform="translate(-2054.836 -238.172)" fill="none" stroke="#fff" stroke-miterlimit="10" stroke-width="1"/>
        <path id="Path_2216" data-name="Path 2216" d="M2067.413,671.925c1.656-23.09,7.378-54.766,28.966-71a46.513,46.513,0,0,1,6.667-4.192c22.9-11.859,44.044,2.234,66.349-14.573,31.4-23.712,18.313-73.045,44.9-87.767a24.547,24.547,0,0,1,11.958-3.061c11.746-.155,21.928,6.559,32.7.236,8.3-4.872,13.457-13.226,18.111-26.539,3.619-10.355,5.756-22.759,8.26-37,1.827-10.5,3.081-17.935,4.776-23.305,1.612-5.1,3.045-7.985,6.305-9.5,9.074-4.218,20.2,7.223,31.741,13.182,6.717,3.467,13.124,5.536,18.932,2.242,17.166-9.735,14.062-49.165,26.757-74.614,4.2-8.342,9.819-14.909,17.707-18.82,25.147-12.462,56.85,13.56,69.878-.089,11.841-12.415-7.777-41.311,4.339-52.692a12.685,12.685,0,0,1,2.722-1.942c6.89-3.693,17.079-1.735,25.156.756" transform="translate(-2053.906 -236.527)" fill="none" stroke="#fff" stroke-miterlimit="10" stroke-width="1"/>
        <path id="Path_2217" data-name="Path 2217" d="M2067.985,674.488c1.779-23.153,7.671-54.907,29.352-71.213a46.849,46.849,0,0,1,6.693-4.218c23.09-12,44.214,2.226,66.708-14.665,31.621-23.807,18.6-73.123,45.361-88.022a25,25,0,0,1,11.99-3.134c11.82-.257,22.043,6.347,32.849.11,8.378-4.835,13.615-13.084,18.408-26.395,3.748-10.415,5.908-22.862,8.446-37.109,1.848-10.486,3.171-17.932,4.958-23.334,1.678-5.066,3.134-7.948,6.415-9.452,9.166-4.2,20.332,7.208,31.949,12.99,6.748,3.36,13.15,5.323,18.933,1.958,17.14-9.985,13.885-49.59,26.852-74.953,4.26-8.334,9.979-14.825,17.925-18.678,25.273-12.25,57.06,13.725,70.2-.018,11.93-12.489-7.585-41.456,4.609-52.879a12.744,12.744,0,0,1,2.735-1.953c6.945-3.722,17.176-1.756,25.261.74" transform="translate(-2052.977 -234.881)" fill="none" stroke="#fff" stroke-miterlimit="10" stroke-width="1"/>
        <path id="Path_2218" data-name="Path 2218" d="M2068.557,677.053c1.9-23.219,7.964-55.055,29.736-71.433a47.548,47.548,0,0,1,6.722-4.239c23.279-12.142,44.385,2.215,67.065-14.762,31.843-23.9,18.893-73.2,45.826-88.274a25.422,25.422,0,0,1,12.022-3.2c11.893-.36,22.155,6.134,33-.016,8.455-4.8,13.775-12.948,18.7-26.25,3.88-10.478,6.061-22.967,8.633-37.217,1.872-10.481,3.26-17.932,5.139-23.363,1.743-5.037,3.226-7.914,6.525-9.4,9.257-4.184,20.462,7.189,32.156,12.8,6.78,3.252,13.179,5.113,18.932,1.672,17.113-10.231,13.757-49.989,26.946-75.289,4.336-8.321,10.137-14.743,18.139-18.536,25.4-12.04,57.273,13.89,70.523.052,12.016-12.562-7.395-41.6,4.879-53.068a13.012,13.012,0,0,1,2.749-1.961c7-3.753,17.271-1.774,25.369.727" transform="translate(-2052.048 -233.236)" fill="none" stroke="#fff" stroke-miterlimit="10" stroke-width="1"/>
        <path id="Path_2219" data-name="Path 2219" d="M2069.128,679.615c2.029-23.282,8.257-55.2,30.125-71.651A48.052,48.052,0,0,1,2106,603.7c23.468-12.284,44.555,2.2,67.425-14.856,32.064-23.988,19.185-73.281,46.288-88.526a25.886,25.886,0,0,1,12.053-3.276c11.966-.465,22.271,5.921,33.141-.144,8.533-4.759,13.94-12.806,19-26.106,4.011-10.539,6.213-23.072,8.819-37.322,1.893-10.473,3.347-17.932,5.318-23.392,1.809-5.008,3.317-7.882,6.638-9.36,9.35-4.166,20.594,7.174,32.363,12.6,6.812,3.144,13.206,4.9,18.933,1.388,17.087-10.481,13.627-50.388,27.04-75.628,4.412-8.307,10.294-14.659,18.355-18.394,25.526-11.827,57.485,14.056,70.845.123,12.105-12.633-7.2-41.744,5.153-53.256a12.887,12.887,0,0,1,2.761-1.966c7.05-3.785,17.363-1.8,25.47.709" transform="translate(-2051.12 -231.591)" fill="none" stroke="#fff" stroke-miterlimit="10" stroke-width="1"/>
        <path id="Path_2220" data-name="Path 2220" d="M2069.7,682.18c2.152-23.35,8.549-55.341,30.51-71.871a48.169,48.169,0,0,1,6.775-4.284c23.657-12.428,44.726,2.194,67.784-14.953,32.285-24.077,19.473-73.357,46.75-88.777a26.294,26.294,0,0,1,12.084-3.347c12.04-.567,22.387,5.709,33.287-.27,8.609-4.719,14.1-12.67,19.3-25.964,4.142-10.6,6.365-23.174,9.006-37.427,1.916-10.468,3.433-17.93,5.5-23.421,1.871-4.979,3.409-7.848,6.749-9.315,9.441-4.147,20.725,7.155,32.568,12.413,6.845,3.037,13.234,4.69,18.935,1.105,17.061-10.733,13.5-50.789,27.133-75.966,4.491-8.294,10.457-14.575,18.573-18.253,25.652-11.617,57.7,14.221,71.168.194,12.192-12.706-7.008-41.889,5.422-53.446a13.155,13.155,0,0,1,2.775-1.974c7.105-3.816,17.459-1.816,25.576.693" transform="translate(-2050.191 -229.946)" fill="none" stroke="#fff" stroke-miterlimit="10" stroke-width="1"/>
        <path id="Path_2221" data-name="Path 2221" d="M2070.272,684.746c2.275-23.416,8.84-55.485,30.894-72.089a48.869,48.869,0,0,1,6.8-4.31c23.846-12.57,44.9,2.186,68.144-15.045,32.505-24.172,19.765-73.436,47.209-89.032a26.765,26.765,0,0,1,12.119-3.417c12.113-.672,22.5,5.5,33.434-.4,8.686-4.68,14.266-12.528,19.6-25.82,4.273-10.659,6.517-23.276,9.192-37.534,1.937-10.457,3.52-17.927,5.68-23.447,1.934-4.948,3.5-7.814,6.858-9.271,9.534-4.129,20.856,7.139,32.776,12.221,6.877,2.929,13.26,4.478,18.935.822,17.038-10.985,13.371-51.191,27.227-76.307,4.567-8.276,10.614-14.491,18.788-18.108,25.778-11.407,57.908,14.389,71.494.265,12.278-12.78-6.82-42.033,5.69-53.635a13.311,13.311,0,0,1,2.788-1.982c7.16-3.848,17.554-1.837,25.68.68" transform="translate(-2049.261 -228.301)" fill="none" stroke="#fff" stroke-miterlimit="10" stroke-width="1"/>
        <path id="Path_2222" data-name="Path 2222" d="M2070.844,687.307c2.4-23.479,9.131-55.627,31.279-72.307a49.819,49.819,0,0,1,6.827-4.333c24.038-12.709,45.069,2.179,68.506-15.14,32.726-24.261,20.054-73.512,47.671-89.284a27.249,27.249,0,0,1,12.15-3.491c12.187-.774,22.618,5.286,33.582-.522,8.761-4.643,14.428-12.392,19.893-25.678,4.407-10.722,6.669-23.379,9.378-37.639,1.961-10.449,3.6-17.925,5.858-23.476,2-4.919,3.593-7.78,6.974-9.223,9.623-4.113,20.983,7.124,32.981,12.027,6.905,2.822,13.287,4.268,18.935.538,17.011-11.237,13.243-51.59,27.321-76.646,4.643-8.263,10.775-14.407,19.006-17.967,25.9-11.2,58.117,14.554,71.813.336,12.365-12.854-6.627-42.177,5.96-53.823a13.432,13.432,0,0,1,2.8-1.987c7.215-3.879,17.648-1.858,25.786.661" transform="translate(-2048.332 -226.655)" fill="none" stroke="#fff" stroke-miterlimit="10" stroke-width="1"/>
        <path id="Path_2223" data-name="Path 2223" d="M2071.416,689.873c2.525-23.544,9.423-55.771,31.666-72.528a50.846,50.846,0,0,1,6.854-4.354c24.252-12.8,45.237,2.165,68.865-15.237,32.946-24.353,20.342-73.588,48.134-89.536a27.682,27.682,0,0,1,12.181-3.562c12.26-.877,22.736,5.076,33.729-.648,8.84-4.606,14.594-12.252,20.19-25.536,4.541-10.783,6.821-23.481,9.564-37.744,1.982-10.444,3.69-17.925,6.04-23.507,2.058-4.887,3.683-7.743,7.084-9.176,9.715-4.095,21.114,7.108,33.185,11.835,6.94,2.717,13.318,4.055,18.938.252,16.985-11.486,13.113-51.989,27.416-76.982,4.719-8.25,10.932-14.323,19.221-17.825,26.025-10.99,58.331,14.72,72.137.407,12.454-12.924-6.437-42.324,6.231-54.013a13.641,13.641,0,0,1,2.813-1.995c7.271-3.911,17.744-1.879,25.891.648" transform="translate(-2047.402 -225.011)" fill="none" stroke="#fff" stroke-miterlimit="10" stroke-width="1"/>
        <path id="Path_2224" data-name="Path 2224" d="M2071.987,692.435c2.651-23.61,9.717-55.913,32.051-72.743a51.362,51.362,0,0,1,6.882-4.381c24.445-12.943,45.409,2.158,69.223-15.331,33.169-24.442,20.636-73.664,48.6-89.788a28.189,28.189,0,0,1,12.213-3.633c12.333-.982,22.851,4.864,33.873-.777,8.921-4.564,14.761-12.111,20.489-25.389,4.675-10.846,6.974-23.586,9.751-37.852,2.005-10.436,3.772-17.922,6.221-23.536,2.118-4.858,3.774-7.709,7.194-9.132,9.806-4.074,21.242,7.092,33.393,11.643,6.971,2.609,13.344,3.843,18.938-.031,16.958-11.741,12.985-52.39,27.507-77.32,4.8-8.237,11.093-14.242,19.439-17.683,26.148-10.783,58.543,14.885,72.459.478,12.542-13-6.244-42.469,6.5-54.2a13.62,13.62,0,0,1,2.827-2c7.32-3.94,17.837-1.9,25.993.633" transform="translate(-2046.474 -223.366)" fill="none" stroke="#fff" stroke-miterlimit="10" stroke-width="1"/>
        <path id="Path_2225" data-name="Path 2225" d="M2072.559,695c2.774-23.675,10.008-56.057,32.437-72.963a51.684,51.684,0,0,1,6.909-4.4c24.634-13.084,45.579,2.147,69.583-15.428,33.39-24.534,20.927-73.74,49.06-90.04a28.641,28.641,0,0,1,12.245-3.7c12.407-1.087,22.969,4.654,34.02-.9,9-4.525,14.93-11.972,20.783-25.248,4.812-10.906,7.129-23.691,9.94-37.959,2.026-10.428,3.856-17.917,6.4-23.563,2.179-4.83,3.866-7.675,7.308-9.087,9.9-4.055,21.371,7.076,33.6,11.449,7,2.5,13.371,3.633,18.938-.312,16.932-12,12.858-52.789,27.6-77.659,4.874-8.221,11.25-14.158,19.654-17.541,26.274-10.573,58.755,15.05,72.782.551,12.63-13.074-6.052-42.616,6.775-54.393a13.957,13.957,0,0,1,2.84-2.011c7.375-3.971,17.933-1.919,26.1.617" transform="translate(-2045.545 -221.721)" fill="none" stroke="#fff" stroke-miterlimit="10" stroke-width="1"/>
        <path id="Path_2226" data-name="Path 2226" d="M2073.131,697.563c2.9-23.738,10.3-56.2,32.82-73.181a52.436,52.436,0,0,1,6.938-4.425c24.825-13.224,45.75,2.137,69.942-15.52,33.61-24.626,21.216-73.819,49.521-90.295a29.115,29.115,0,0,1,12.276-3.774c12.481-1.192,23.087,4.444,34.167-1.031,9.077-4.486,15.1-11.83,21.08-25.1,4.945-10.966,7.281-23.794,10.126-38.064,2.05-10.42,3.937-17.917,6.58-23.591,2.236-4.8,3.958-7.641,7.417-9.04,9.992-4.04,21.5,7.061,33.807,11.255,7.03,2.4,13.4,3.42,18.938-.6,16.9-12.252,12.73-53.191,27.7-78,4.95-8.208,11.407-14.077,19.87-17.4,26.4-10.365,58.968,15.216,73.105.622,12.717-13.145-5.859-42.76,7.044-54.58a13.945,13.945,0,0,1,2.854-2.018c7.43-4.005,18.026-1.942,26.205.6" transform="translate(-2044.616 -220.076)" fill="none" stroke="#fff" stroke-miterlimit="10" stroke-width="1"/>
        <path id="Path_2227" data-name="Path 2227" d="M2073.7,700.128c3.021-23.807,10.591-56.346,33.206-73.4a52.993,52.993,0,0,1,6.964-4.446c25.014-13.365,45.92,2.126,70.3-15.617,33.83-24.717,21.507-73.892,49.983-90.547a29.661,29.661,0,0,1,12.307-3.848c12.554-1.294,23.206,4.236,34.313-1.155,9.156-4.446,15.263-11.693,21.376-24.962,5.082-11.024,7.434-23.9,10.313-38.169,2.071-10.415,4.019-17.914,6.762-23.62,2.291-4.772,4.05-7.607,7.53-9,10.082-4.019,21.625,7.045,34.009,11.063,7.063,2.291,13.426,3.207,18.94-.879,16.877-12.507,12.6-53.593,27.791-78.336,5.026-8.195,11.565-14,20.087-17.258,26.515-10.158,59.178,15.381,73.425.693,12.807-13.218-5.667-42.9,7.315-54.768a14.151,14.151,0,0,1,2.866-2.026c7.485-4.034,18.124-1.961,26.311.585" transform="translate(-2043.687 -218.43)" fill="none" stroke="#fff" stroke-miterlimit="10" stroke-width="1"/>
        <path id="Path_2228" data-name="Path 2228" d="M2074.275,702.693c3.145-23.872,10.882-56.49,33.592-73.62a53.592,53.592,0,0,1,6.99-4.473c25.2-13.5,46.09,2.118,70.661-15.712,34.051-24.807,21.8-73.969,50.445-90.8a30.161,30.161,0,0,1,12.339-3.919c12.628-1.4,23.324,4.029,34.458-1.283,9.236-4.4,15.433-11.552,21.675-24.817,5.218-11.084,7.586-24,10.5-38.274,2.095-10.407,4.1-17.911,6.94-23.652,2.349-4.74,4.142-7.57,7.644-8.948,10.174-4,21.754,7.032,34.216,10.872,7.092,2.186,13.452,2.992,18.94-1.163,16.851-12.764,12.476-53.991,27.886-78.677,5.105-8.179,11.722-13.909,20.3-17.114,26.639-9.95,59.391,15.547,73.749.764,12.893-13.292-5.475-43.049,7.585-54.957a14.248,14.248,0,0,1,2.882-2.034c7.538-4.066,18.216-1.982,26.413.572" transform="translate(-2042.757 -216.786)" fill="none" stroke="#fff" stroke-miterlimit="10" stroke-width="1"/>
        <path id="Path_2229" data-name="Path 2229" d="M2074.846,705.255c3.273-23.935,11.176-56.632,33.978-73.838a54.2,54.2,0,0,1,7.019-4.5c25.394-13.644,46.262,2.108,71.021-15.806,34.272-24.9,22.09-74.042,50.907-91.053a30.727,30.727,0,0,1,12.371-3.987c12.7-1.5,23.441,3.819,34.6-1.409,9.315-4.365,15.6-11.413,21.972-24.673,5.354-11.147,7.738-24.1,10.686-38.382,2.115-10.4,4.179-17.911,7.121-23.681,2.4-4.712,4.234-7.536,7.754-8.9,10.265-3.979,21.88,7.019,34.424,10.68,7.121,2.079,13.478,2.78,18.94-1.449,16.825-13.019,12.347-54.391,27.978-79.013,5.184-8.163,11.882-13.827,20.521-16.972,26.762-9.746,59.6,15.712,74.073.835,12.98-13.365-5.286-43.193,7.856-55.146a14.266,14.266,0,0,1,2.893-2.039c7.593-4.1,18.31-2,26.518.554" transform="translate(-2041.829 -215.14)" fill="none" stroke="#fff" stroke-miterlimit="10" stroke-width="1"/>
        <path id="Path_2230" data-name="Path 2230" d="M2075.418,707.82c3.4-24,11.468-56.776,34.364-74.058a55.071,55.071,0,0,1,7.042-4.517c25.585-13.788,46.435,2.1,71.383-15.9,34.492-24.99,22.381-74.118,51.369-91.308a31.192,31.192,0,0,1,12.4-4.058c12.775-1.609,23.563,3.612,34.752-1.535,9.4-4.326,15.775-11.271,22.269-24.531,5.491-11.208,7.89-24.208,10.872-38.49,2.137-10.392,4.258-17.906,7.3-23.707,2.457-4.685,4.323-7.5,7.864-8.856,10.359-3.963,22.009,7,34.628,10.486,7.153,1.974,13.507,2.564,18.943-1.732,16.8-13.276,12.221-54.789,28.072-79.352,5.26-8.15,12.04-13.746,20.736-16.83,26.882-9.538,59.813,15.877,74.4.906,13.066-13.436-5.094-43.338,8.126-55.335a14.582,14.582,0,0,1,2.906-2.047c7.648-4.129,18.4-2.024,26.623.541" transform="translate(-2040.9 -213.495)" fill="none" stroke="#fff" stroke-miterlimit="10" stroke-width="1"/>
        <path id="Path_2231" data-name="Path 2231" d="M2075.99,710.383c3.52-24.067,11.759-56.918,34.75-74.273a55.371,55.371,0,0,1,7.069-4.543c25.777-13.927,46.6,2.089,71.739-16,34.716-25.082,22.676-74.192,51.834-91.56a31.776,31.776,0,0,1,12.434-4.129c12.848-1.714,23.681,3.4,34.9-1.664,9.476-4.284,15.946-11.129,22.566-24.387,5.627-11.268,8.042-24.311,11.058-38.595,2.16-10.386,4.334-17.906,7.481-23.736,2.515-4.656,4.417-7.467,7.976-8.811,10.452-3.942,22.135,6.99,34.836,10.294,7.181,1.869,13.534,2.352,18.942-2.016,16.768-13.536,12.1-55.191,28.167-79.691,5.336-8.137,12.2-13.665,20.951-16.688,27.007-9.334,60.026,16.043,74.72.976,13.152-13.51-4.9-43.485,8.4-55.524a14.71,14.71,0,0,1,2.919-2.055c7.7-4.158,18.5-2.045,26.728.525" transform="translate(-2039.971 -211.85)" fill="none" stroke="#fff" stroke-miterlimit="10" stroke-width="1"/>
        <path id="Path_2232" data-name="Path 2232" d="M2076.562,712.948c3.643-24.132,12.05-57.062,35.132-74.494a55.988,55.988,0,0,1,7.1-4.564c25.967-14.069,46.776,2.079,72.1-16.093,34.935-25.172,22.967-74.265,52.293-91.812a32.348,32.348,0,0,1,12.467-4.2c12.922-1.816,23.8,3.2,35.043-1.787,9.559-4.242,16.119-10.99,22.864-24.245,5.767-11.326,8.195-24.413,11.245-38.7,2.181-10.378,4.413-17.9,7.662-23.765,2.566-4.628,4.509-7.433,8.086-8.767,10.544-3.921,22.264,6.977,35.043,10.1,7.21,1.764,13.56,2.137,18.943-2.3,16.741-13.8,11.967-55.59,28.261-80.029a40.222,40.222,0,0,1,21.166-16.547c27.127-9.129,60.238,16.211,75.042,1.047,13.242-13.583-4.709-43.629,8.667-55.713a14.828,14.828,0,0,1,2.932-2.06c7.756-4.192,18.6-2.066,26.835.507" transform="translate(-2039.041 -210.205)" fill="none" stroke="#fff" stroke-miterlimit="10" stroke-width="1"/>
        <path id="Path_2233" data-name="Path 2233" d="M2077.134,715.511c3.767-24.2,12.341-57.2,35.518-74.711a56.935,56.935,0,0,1,7.124-4.588c26.156-14.208,46.947,2.068,72.46-16.187,35.156-25.263,23.257-74.339,52.755-92.064a32.963,32.963,0,0,1,12.5-4.273c13-1.921,23.925,2.995,35.193-1.916,9.638-4.2,16.289-10.848,23.161-24.1,5.906-11.386,8.347-24.515,11.432-38.8,2.2-10.373,4.488-17.9,7.842-23.8,2.617-4.6,4.6-7.4,8.2-8.719,10.636-3.9,22.387,6.963,35.249,9.911,7.239,1.659,13.583,1.924,18.942-2.583,16.712-14.056,11.84-55.992,28.353-80.368a40.318,40.318,0,0,1,21.387-16.407c27.245-8.922,60.448,16.379,75.362,1.121,13.328-13.657-4.517-43.773,8.938-55.9a14.976,14.976,0,0,1,2.948-2.068c7.808-4.223,18.688-2.087,26.938.493" transform="translate(-2038.112 -208.561)" fill="none" stroke="#fff" stroke-miterlimit="10" stroke-width="1"/>
        <path id="Path_2234" data-name="Path 2234" d="M2077.7,718.075c3.893-24.263,12.638-57.349,35.9-74.932a57.17,57.17,0,0,1,7.152-4.609c26.348-14.349,47.115,2.058,72.819-16.284,35.376-25.353,23.549-74.412,53.217-92.316a33.472,33.472,0,0,1,12.528-4.344c13.071-2.026,24.046,2.788,35.34-2.042,9.719-4.158,16.462-10.706,23.458-23.956,6.045-11.449,8.5-24.62,11.617-38.915,2.226-10.363,4.564-17.9,8.021-23.822,2.672-4.572,4.693-7.363,8.313-8.672,10.728-3.885,22.513,6.948,35.453,9.717,7.271,1.554,13.612,1.709,18.946-2.869,16.683-14.313,11.714-56.388,28.447-80.706a40.391,40.391,0,0,1,21.6-16.263c27.366-8.717,60.661,16.544,75.685,1.192,13.418-13.728-4.326-43.918,9.21-56.091a15.043,15.043,0,0,1,2.958-2.076c7.864-4.252,18.786-2.105,27.043.478" transform="translate(-2037.184 -206.915)" fill="none" stroke="#fff" stroke-miterlimit="10" stroke-width="1"/>
        <path id="Path_2235" data-name="Path 2235" d="M2078.277,720.641c4.016-24.329,12.929-57.493,36.29-75.15a57.845,57.845,0,0,1,7.178-4.635c26.537-14.491,47.286,2.05,73.179-16.376,35.6-25.447,23.841-74.486,53.679-92.57a34.088,34.088,0,0,1,12.56-4.415c13.145-2.134,24.166,2.583,35.487-2.171,9.8-4.113,16.636-10.562,23.754-23.812,6.184-11.507,8.651-24.725,11.806-39.02,2.247-10.357,4.636-17.9,8.2-23.851,2.722-4.543,4.785-7.328,8.423-8.628,10.822-3.864,22.639,6.937,35.66,9.525,7.3,1.449,13.639,1.494,18.946-3.152,16.654-14.575,11.588-56.79,28.542-81.045A40.468,40.468,0,0,1,2453.8,339.22c27.486-8.515,60.874,16.709,76.008,1.262,13.5-13.8-4.134-44.062,9.481-56.28a15.135,15.135,0,0,1,2.972-2.081c7.918-4.286,18.879-2.129,27.147.462" transform="translate(-2036.255 -205.27)" fill="none" stroke="#fff" stroke-miterlimit="10" stroke-width="1"/>
        <path id="Path_2236" data-name="Path 2236" d="M2078.849,723.2c4.142-24.392,13.221-57.635,36.676-75.368a58.79,58.79,0,0,1,7.2-4.659c26.726-14.63,47.456,2.039,73.539-16.47,35.817-25.536,24.132-74.559,54.141-92.822A34.681,34.681,0,0,1,2263,529.395c13.218-2.236,24.287,2.381,35.631-2.294,9.882-4.071,16.812-10.423,24.054-23.67,6.323-11.565,8.8-24.828,11.992-39.125,2.268-10.349,4.709-17.9,8.381-23.88,2.771-4.517,4.874-7.294,8.533-8.583,10.914-3.843,22.765,6.927,35.868,9.331,7.328,1.346,13.665,1.281,18.946-3.433,16.623-14.835,11.462-57.189,28.636-81.384a40.535,40.535,0,0,1,22.033-15.98c27.607-8.313,61.086,16.875,76.331,1.336,13.593-13.877-3.943-44.209,9.75-56.469a15.315,15.315,0,0,1,2.984-2.092c7.974-4.315,18.974-2.147,27.253.446" transform="translate(-2035.325 -203.625)" fill="none" stroke="#fff" stroke-miterlimit="10" stroke-width="1"/>
        <path id="Path_2237" data-name="Path 2237" d="M2079.421,725.768c4.265-24.458,13.513-57.782,37.06-75.588a59.133,59.133,0,0,1,7.231-4.68c26.92-14.775,47.629,2.029,73.9-16.568,36.041-25.628,24.429-74.63,54.605-93.074a35.32,35.32,0,0,1,12.623-4.559c13.292-2.341,24.411,2.176,35.779-2.423,9.963-4.026,16.984-10.279,24.35-23.526,6.465-11.625,8.953-24.93,12.179-39.23,2.291-10.344,4.782-17.9,8.559-23.909,2.824-4.491,4.968-7.26,8.646-8.538,11.008-3.822,22.891,6.916,36.072,9.139,7.36,1.244,13.691,1.066,18.948-3.717,16.594-15.1,11.337-57.59,28.731-81.722a40.61,40.61,0,0,1,22.248-15.838c27.728-8.108,61.3,17.04,76.656,1.407,13.678-13.951-3.753-44.353,10.019-56.658a15.628,15.628,0,0,1,3-2.1c8.027-4.347,19.069-2.168,27.358.43" transform="translate(-2034.396 -201.98)" fill="none" stroke="#fff" stroke-miterlimit="10" stroke-width="1"/>
        <path id="Path_2238" data-name="Path 2238" d="M2079.993,728.331c4.389-24.523,13.8-57.923,37.445-75.8a59.806,59.806,0,0,1,7.257-4.706c27.109-14.914,47.8,2.021,74.257-16.662,36.261-25.718,24.72-74.7,55.067-93.326a35.866,35.866,0,0,1,12.654-4.63c13.365-2.449,24.531,1.971,35.925-2.549,10.044-3.984,17.161-10.137,24.647-23.384,6.6-11.683,9.1-25.032,12.365-39.337,2.313-10.334,4.855-17.9,8.74-23.935,2.872-4.465,5.061-7.223,8.759-8.491,11.1-3.8,23.014,6.9,36.277,8.945,7.389,1.139,13.717.85,18.948-4,16.562-15.36,11.21-57.989,28.823-82.061a40.713,40.713,0,0,1,22.468-15.7c27.846-7.906,61.508,17.205,76.976,1.478,13.768-14.022-3.559-44.5,10.289-56.847a15.676,15.676,0,0,1,3.014-2.105c8.079-4.381,19.163-2.192,27.46.415" transform="translate(-2033.467 -200.336)" fill="none" stroke="#fff" stroke-miterlimit="10" stroke-width="1"/>
        <path id="Path_2239" data-name="Path 2239" d="M2080.564,730.9c4.514-24.589,14.1-58.068,37.833-76.024a60.009,60.009,0,0,1,7.283-4.727c27.3-15.056,47.971,2.008,74.617-16.757,36.482-25.812,25.011-74.774,55.529-93.581a36.546,36.546,0,0,1,12.686-4.7c13.439-2.554,24.652,1.766,36.073-2.675,10.126-3.942,17.334-10,24.943-23.242,6.746-11.741,9.258-25.135,12.552-39.442,2.336-10.328,4.929-17.9,8.921-23.967,2.919-4.436,5.15-7.187,8.87-8.444,11.192-3.782,23.14,6.893,36.484,8.754,7.415,1.034,13.741.635,18.948-4.284,16.534-15.623,11.085-58.388,28.917-82.4a40.786,40.786,0,0,1,22.683-15.554c27.967-7.706,61.719,17.371,77.3,1.549,13.853-14.095-3.368-44.645,10.562-57.036a15.642,15.642,0,0,1,3.023-2.113c8.135-4.41,19.258-2.21,27.568.4" transform="translate(-2032.539 -198.69)" fill="none" stroke="#fff" stroke-miterlimit="10" stroke-width="1"/>
        <path id="Path_2240" data-name="Path 2240" d="M2081.136,733.459c4.638-24.652,14.389-58.21,38.217-76.242a61.05,61.05,0,0,1,7.313-4.751c27.487-15.2,48.141,2,74.977-16.851,36.7-25.9,25.305-74.848,55.991-93.833a37.1,37.1,0,0,1,12.717-4.772c13.512-2.661,24.775,1.564,36.216-2.8,10.211-3.9,17.513-9.851,25.242-23.1,6.888-11.8,9.411-25.242,12.738-39.55,2.357-10.321,5-17.9,9.1-24,2.969-4.412,5.244-7.152,8.982-8.4,11.283-3.761,23.263,6.882,36.691,8.562,7.444.932,13.767.42,18.948-4.57,16.5-15.885,10.958-58.787,29.012-82.738a40.884,40.884,0,0,1,22.9-15.41c28.085-7.5,61.932,17.536,77.623,1.62,13.942-14.169-3.176-44.789,10.832-57.225a15.976,15.976,0,0,1,3.037-2.121c8.189-4.441,19.353-2.231,27.673.386" transform="translate(-2031.609 -197.046)" fill="none" stroke="#fff" stroke-miterlimit="10" stroke-width="1"/>
        <path id="Path_2241" data-name="Path 2241" d="M2081.708,736.023c4.761-24.718,14.681-58.354,38.6-76.462a61.667,61.667,0,0,1,7.339-4.772c27.679-15.339,48.312,1.99,75.336-16.948,36.922-25.99,25.6-74.919,56.453-94.085a37.815,37.815,0,0,1,12.749-4.845c13.586-2.764,24.9,1.365,36.363-2.927,10.294-3.853,17.688-9.709,25.539-22.954,7.029-11.859,9.562-25.345,12.924-39.655,2.381-10.313,5.072-17.9,9.282-24.025,3.016-4.386,5.336-7.118,9.092-8.355,11.379-3.74,23.39,6.874,36.9,8.37,7.475.829,13.792.2,18.951-4.853,16.47-16.148,10.832-59.186,29.106-83.077a40.99,40.99,0,0,1,23.113-15.268c28.206-7.3,62.144,17.7,77.945,1.69,14.029-14.242-2.984-44.933,11.1-57.414a16.213,16.213,0,0,1,3.05-2.129c8.245-4.47,19.45-2.249,27.778.37" transform="translate(-2030.68 -195.4)" fill="none" stroke="#fff" stroke-miterlimit="10" stroke-width="1"/>
        <path id="Path_2242" data-name="Path 2242" d="M2082.28,738.589c4.888-24.786,14.972-58.5,38.986-76.68a62.5,62.5,0,0,1,7.368-4.8c27.867-15.481,48.482,1.982,75.7-17.042,37.143-26.082,25.891-74.987,56.915-94.337a38.453,38.453,0,0,1,12.78-4.916c13.659-2.872,25.02,1.16,36.511-3.055,10.376-3.806,17.867-9.565,25.835-22.809,7.171-11.917,9.714-25.447,13.111-39.76,2.4-10.307,5.142-17.906,9.462-24.053,3.063-4.362,5.428-7.084,9.2-8.307,11.471-3.722,23.515,6.861,37.1,8.176,7.5.724,13.82-.013,18.952-5.137,16.438-16.413,10.708-59.585,29.2-83.415a41.1,41.1,0,0,1,23.332-15.127c28.324-7.1,62.356,17.869,78.268,1.761,14.119-14.313-2.792-45.078,11.373-57.6a16.341,16.341,0,0,1,3.063-2.134c8.3-4.5,19.544-2.273,27.883.354" transform="translate(-2029.751 -193.755)" fill="none" stroke="#fff" stroke-miterlimit="10" stroke-width="1"/>
        <path id="Path_2243" data-name="Path 2243" d="M2082.852,741.152c5.011-24.849,15.263-58.64,39.372-76.9a63.107,63.107,0,0,1,7.394-4.822c28.056-15.623,48.653,1.971,76.053-17.137,37.366-26.172,26.188-75.058,57.377-94.589a39.134,39.134,0,0,1,12.814-4.987c13.732-2.976,25.143.958,36.658-3.181,10.457-3.761,18.042-9.423,26.132-22.667,7.315-11.974,9.866-25.55,13.3-39.868,2.425-10.3,5.21-17.906,9.641-24.08,3.112-4.336,5.519-7.047,9.317-8.263,11.562-3.7,23.636,6.853,37.309,7.984,7.53.622,13.843-.228,18.951-5.42,16.4-16.678,10.583-59.984,29.292-83.754a41.211,41.211,0,0,1,23.55-14.985c28.442-6.9,62.566,18.035,78.588,1.832,14.206-14.386-2.6-45.222,11.644-57.792a16.4,16.4,0,0,1,3.079-2.142c8.353-4.536,19.636-2.294,27.985.339" transform="translate(-2028.821 -192.111)" fill="none" stroke="#fff" stroke-miterlimit="10" stroke-width="1"/>
        <path id="Path_2244" data-name="Path 2244" d="M2083.424,743.717c5.134-24.914,15.555-58.784,39.757-77.118a63.408,63.408,0,0,1,7.42-4.843c28.245-15.764,48.824,1.961,76.413-17.232,37.587-26.266,26.481-75.131,57.839-94.843a39.808,39.808,0,0,1,12.846-5.058c13.806-3.084,25.266.759,36.8-3.31,10.542-3.714,18.219-9.276,26.429-22.523,7.457-12.029,10.019-25.652,13.483-39.973,2.446-10.292,5.278-17.909,9.822-24.111,3.158-4.31,5.612-7.011,9.428-8.216,11.657-3.677,23.762,6.845,37.513,7.793,7.56.52,13.869-.444,18.953-5.7,16.374-16.943,10.458-60.383,29.387-84.092a41.3,41.3,0,0,1,23.764-14.843c28.561-6.7,62.78,18.2,78.912,1.9,14.294-14.46-2.407-45.367,11.916-57.981a16.549,16.549,0,0,1,3.089-2.15c8.405-4.565,19.731-2.312,28.091.323" transform="translate(-2027.892 -190.466)" fill="none" stroke="#fff" stroke-miterlimit="10" stroke-width="1"/>
        <path id="Path_2245" data-name="Path 2245" d="M2084,746.279c5.26-24.98,15.848-58.926,40.143-77.334a64.513,64.513,0,0,1,7.446-4.869c28.437-15.906,49,1.953,76.774-17.326,37.807-26.355,26.775-75.2,58.3-95.1a40.527,40.527,0,0,1,12.877-5.126c13.88-3.189,25.39.556,36.949-3.436,10.625-3.669,18.4-9.134,26.728-22.379,7.6-12.09,10.171-25.759,13.67-40.08,2.47-10.284,5.347-17.911,10-24.14,3.2-4.286,5.7-6.977,9.538-8.168,11.749-3.659,23.888,6.835,37.721,7.6,7.588.417,13.893-.661,18.953-5.99,16.339-17.205,10.334-60.782,29.481-84.428a41.41,41.41,0,0,1,23.979-14.7c28.679-6.5,62.992,18.366,79.237,1.974,14.378-14.531-2.218-45.511,12.184-58.17a16.681,16.681,0,0,1,3.1-2.155c8.46-4.6,19.828-2.336,28.2.307" transform="translate(-2026.964 -188.821)" fill="none" stroke="#fff" stroke-miterlimit="10" stroke-width="1"/>
        <path id="Path_2246" data-name="Path 2246" d="M2084.567,748.844c5.384-25.046,16.14-59.07,40.53-77.554a64.826,64.826,0,0,1,7.473-4.89c28.625-16.048,49.164,1.94,77.134-17.423,38.028-26.447,27.066-75.271,58.763-95.35a41.274,41.274,0,0,1,12.909-5.2c13.953-3.294,25.513.359,37.1-3.562,10.709-3.622,18.579-8.987,27.025-22.234,7.746-12.147,10.352-25.854,13.856-40.185,2.511-10.273,5.415-17.917,10.181-24.169,3.252-4.263,5.8-6.94,9.651-8.124,11.843-3.638,24.011,6.827,37.928,7.407,7.618.315,13.919-.877,18.954-6.273,16.305-17.473,10.208-61.181,29.576-84.77a41.544,41.544,0,0,1,24.195-14.557c28.8-6.307,63.2,18.531,79.56,2.045,14.468-14.6-2.026-45.655,12.454-58.357a16.814,16.814,0,0,1,3.116-2.165c8.515-4.627,19.922-2.354,28.3.291" transform="translate(-2026.035 -187.175)" fill="none" stroke="#fff" stroke-miterlimit="10" stroke-width="1"/>
        <path id="Path_2247" data-name="Path 2247" d="M2085.139,751.41c5.507-25.111,16.431-59.217,40.916-77.775a65.9,65.9,0,0,1,7.5-4.914c28.815-16.19,49.335,1.932,77.494-17.518,38.248-26.536,27.361-75.339,59.226-95.6a41.982,41.982,0,0,1,12.94-5.271c14.026-3.4,25.635.158,37.243-3.688,10.791-3.575,18.756-8.843,27.321-22.093,7.891-12.2,10.5-25.956,14.043-40.293,2.532-10.263,5.483-17.919,10.362-24.2,3.3-4.239,5.887-6.906,9.762-8.079,11.937-3.614,24.138,6.822,38.135,7.215,7.643.213,13.943-1.094,18.954-6.557,16.271-17.738,10.082-61.58,29.667-85.108a41.673,41.673,0,0,1,24.413-14.415c28.917-6.108,63.417,18.7,79.882,2.116,14.555-14.678-1.834-45.8,12.725-58.545a17.1,17.1,0,0,1,3.128-2.173c8.57-4.659,20.017-2.375,28.408.278" transform="translate(-2025.106 -185.531)" fill="none" stroke="#fff" stroke-miterlimit="10" stroke-width="1"/>
        <path id="Path_2248" data-name="Path 2248" d="M2085.711,753.972c5.63-25.174,16.723-59.359,41.3-77.99a65.809,65.809,0,0,1,7.528-4.937c29.006-16.334,49.506,1.921,77.854-17.612,38.468-26.631,27.654-75.41,59.688-95.857a42.7,42.7,0,0,1,12.971-5.341c14.1-3.507,25.759-.042,37.39-3.814,10.875-3.53,18.935-8.7,27.618-21.951,8.034-12.258,10.656-26.059,14.229-40.4,2.557-10.258,5.549-17.925,10.544-24.224,3.341-4.218,5.979-6.872,9.872-8.034,12.029-3.593,24.282,6.231,38.34,7.021,7.664.433,13.969-1.307,18.956-6.838,16.237-18.006,9.959-61.979,29.763-85.447,6.656-7.887,14.872-12.289,24.631-14.273,29.033-5.911,63.627,18.862,80.2,2.189,14.644-14.754-1.643-45.949,13-58.737a17.109,17.109,0,0,1,3.145-2.179c8.623-4.693,20.111-2.4,28.51.26" transform="translate(-2024.176 -183.886)" fill="none" stroke="#fff" stroke-miterlimit="10" stroke-width="1"/>
        <path id="Path_2249" data-name="Path 2249" d="M2086.283,756.537c5.756-25.242,17.014-59.5,41.684-78.21a66.511,66.511,0,0,1,7.554-4.961c29.2-16.476,49.676,1.913,78.213-17.707,38.689-26.72,27.949-75.481,60.149-96.109a43.419,43.419,0,0,1,13-5.412c14.174-3.614,25.883-.241,37.534-3.942,10.958-3.48,19.116-8.552,27.917-21.807,8.179-12.313,10.809-26.164,14.415-40.5,2.578-10.25,5.615-17.93,10.722-24.253,3.386-4.194,6.074-6.835,9.988-7.987,12.121-3.572,24.4,6.223,38.544,6.827,7.7.331,13.993-1.525,18.957-7.121,16.2-18.271,9.835-62.378,29.857-85.785,6.735-7.874,15.029-12.21,24.846-14.132,29.154-5.714,63.837,19.027,80.526,2.26,14.729-14.825-1.449-46.094,13.268-58.926a17.263,17.263,0,0,1,3.154-2.186c8.678-4.722,20.206-2.417,28.616.244" transform="translate(-2023.247 -182.241)" fill="none" stroke="#fff" stroke-miterlimit="10" stroke-width="1"/>
        <path id="Path_2250" data-name="Path 2250" d="M2086.854,759.1c5.882-25.305,17.308-59.645,42.07-78.428a67.732,67.732,0,0,1,7.583-4.984c29.384-16.615,49.847,1.9,78.57-17.8,38.912-26.812,28.248-75.549,60.614-96.361a44.064,44.064,0,0,1,13.034-5.483c14.247-3.722,26.007-.441,37.682-4.068,11.042-3.433,19.294-8.407,28.213-21.665,8.323-12.37,10.961-26.266,14.6-40.608,2.6-10.244,5.68-17.938,10.9-24.284,3.431-4.168,6.166-6.8,10.1-7.94,12.215-3.549,24.515,6.218,38.751,6.635,7.728.228,14.017-1.74,18.956-7.4,16.166-18.539,9.709-62.777,29.952-86.124,6.811-7.859,15.184-12.132,25.061-13.99,29.271-5.517,64.05,19.192,80.848,2.331,14.819-14.9-1.257-46.238,13.538-59.115a17.538,17.538,0,0,1,3.168-2.194c8.73-4.753,20.3-2.438,28.721.231" transform="translate(-2022.319 -180.596)" fill="none" stroke="#fff" stroke-miterlimit="10" stroke-width="1"/>
        <path id="Path_2251" data-name="Path 2251" d="M2087.426,761.665c6.005-25.371,17.6-59.79,42.456-78.649a68.5,68.5,0,0,1,7.609-5.005c29.574-16.759,50.018,1.892,78.93-17.9,39.133-26.9,28.542-75.617,61.076-96.613a44.982,44.982,0,0,1,13.066-5.557c14.32-3.827,26.132-.635,37.828-4.194,11.126-3.383,19.476-8.26,28.511-21.518,8.468-12.428,11.113-26.371,14.788-40.718,2.622-10.234,5.746-17.94,11.084-24.311,3.475-4.147,6.255-6.764,10.208-7.9,12.308-3.528,24.637,6.8,38.959,6.444,7.759-.189,14.04-1.958,18.957-7.691,16.132-18.8,9.585-63.173,30.043-86.46,6.893-7.845,15.344-12.053,25.279-13.851,29.389-5.318,64.262,19.36,81.171,2.4,14.906-14.972-1.066-46.382,13.809-59.3a17.525,17.525,0,0,1,3.181-2.2c8.786-4.785,20.395-2.459,28.826.213" transform="translate(-2021.39 -178.951)" fill="none" stroke="#fff" stroke-miterlimit="10" stroke-width="1"/>
        <path id="Path_2252" data-name="Path 2252" d="M2088,764.228c6.128-25.437,17.893-59.931,42.841-78.864a68.721,68.721,0,0,1,7.633-5.032c29.765-16.9,50.191,1.885,79.292-17.993,39.353-26.993,28.836-75.683,61.538-96.865a45.715,45.715,0,0,1,13.1-5.628c14.391-3.935,26.255-.835,37.975-4.32,11.21-3.336,19.654-8.116,28.807-21.376,8.614-12.481,11.265-26.473,14.974-40.823,2.646-10.229,5.811-17.948,11.263-24.339,3.52-4.126,6.349-6.727,10.32-7.851,12.4-3.5,24.76,6.79,39.165,6.252,7.788-.291,14.066-2.176,18.958-7.974,16.1-19.072,9.459-63.572,30.137-86.8,6.969-7.827,15.5-11.972,25.495-13.707,29.508-5.121,64.475,19.526,81.494,2.475,15-15.045-.874-46.527,14.079-59.493a17.9,17.9,0,0,1,3.2-2.207c8.838-4.816,20.489-2.48,28.928.2" transform="translate(-2020.46 -177.306)" fill="none" stroke="#fff" stroke-miterlimit="10" stroke-width="1"/>
        <path id="Path_2253" data-name="Path 2253" d="M2088.57,766.792c6.251-25.5,18.184-60.076,43.225-79.084a69.629,69.629,0,0,1,7.662-5.053c29.954-17.045,50.361,1.871,79.651-18.087,39.574-27.085,29.129-75.753,62-97.119a46.451,46.451,0,0,1,13.126-5.7c14.468-4.042,26.382-1.031,38.122-4.449,11.294-3.284,19.838-7.969,29.106-21.232,8.761-12.536,11.417-26.576,15.16-40.928,2.667-10.221,5.875-17.956,11.444-24.368,3.564-4.105,6.441-6.693,10.431-7.8,12.5-3.483,24.885,6.782,39.371,6.058,7.817-.391,14.087-2.391,18.959-8.258,16.058-19.339,9.336-63.968,30.231-87.14,7.048-7.814,15.657-11.893,25.713-13.565,29.623-4.927,64.685,19.694,81.816,2.546,15.08-15.116-.685-46.671,14.347-59.682a17.977,17.977,0,0,1,3.209-2.215c8.894-4.845,20.583-2.5,29.035.184" transform="translate(-2019.531 -175.661)" fill="none" stroke="#fff" stroke-miterlimit="10" stroke-width="1"/>
        <path id="Path_2254" data-name="Path 2254" d="M2089.142,769.358c6.375-25.568,18.476-60.22,43.611-79.3a69.989,69.989,0,0,1,7.688-5.076c30.142-17.187,50.532,1.864,80.01-18.182,39.794-27.177,29.426-75.822,62.459-97.371a47.338,47.338,0,0,1,13.161-5.769c14.541-4.147,26.5-1.228,38.269-4.575,11.378-3.236,20.017-7.822,29.4-21.09,8.906-12.591,11.57-26.678,15.347-41.033,2.69-10.216,5.94-17.967,11.625-24.4,3.606-4.084,6.532-6.656,10.543-7.759,12.588-3.46,25.009,6.777,39.576,5.866,7.846-.491,14.111-2.609,18.958-8.541,16.022-19.61,9.213-64.367,30.327-87.478,7.126-7.8,15.812-11.814,25.928-13.423,29.741-4.73,64.9,19.859,82.14,2.617,15.168-15.19-.494-46.815,14.62-59.871a18.009,18.009,0,0,1,3.221-2.221c8.948-4.879,20.678-2.522,29.14.168" transform="translate(-2018.601 -174.016)" fill="none" stroke="#fff" stroke-miterlimit="10" stroke-width="1"/>
        <path id="Path_2255" data-name="Path 2255" d="M2089.713,771.921c6.5-25.631,18.77-60.362,44-79.52a70.361,70.361,0,0,1,7.714-5.1c30.332-17.331,50.7,1.853,80.37-18.279,40.015-27.266,29.72-75.887,62.921-97.623a48.252,48.252,0,0,1,13.192-5.843c14.615-4.252,26.631-1.425,38.416-4.7,11.462-3.186,20.2-7.677,29.7-20.948,9.053-12.646,11.723-26.783,15.534-41.138,2.711-10.208,6-17.974,11.8-24.429,3.651-4.061,6.625-6.62,10.657-7.712,12.681-3.438,25.135,6.775,39.781,5.675,7.877-.593,14.137-2.827,18.961-8.824,15.982-19.877,9.089-64.766,30.421-87.817,7.2-7.785,15.969-11.735,26.143-13.281,29.862-4.536,65.11,20.024,82.462,2.688,15.255-15.263-.3-46.962,14.891-60.06a18.29,18.29,0,0,1,3.233-2.228c9-4.911,20.775-2.541,29.246.152" transform="translate(-2017.674 -172.371)" fill="none" stroke="#fff" stroke-miterlimit="10" stroke-width="1"/>
        <path id="Path_2256" data-name="Path 2256" d="M2090.285,774.486c6.628-25.7,19.062-60.509,44.383-79.741a71.33,71.33,0,0,1,7.743-5.124c30.521-17.47,50.873,1.843,80.727-18.373,40.238-27.358,30.02-75.955,63.386-97.875a49.025,49.025,0,0,1,13.223-5.914c14.688-4.36,26.754-1.62,38.563-4.827,11.546-3.134,20.378-7.528,30-20.8,9.2-12.7,11.875-26.888,15.722-41.248,2.732-10.2,6.063-17.982,11.982-24.455,3.7-4.04,6.717-6.583,10.767-7.667,12.775-3.415,25.258,6.772,39.989,5.483,7.9-.693,14.16-3.045,18.961-9.108,15.945-20.145,8.964-65.165,30.513-88.156,7.283-7.769,16.126-11.657,26.36-13.14,29.98-4.341,65.322,20.19,82.785,2.759,15.344-15.336-.107-47.107,15.161-60.246a18.313,18.313,0,0,1,3.247-2.239c9.059-4.94,20.87-2.562,29.351.137" transform="translate(-2016.745 -170.726)" fill="none" stroke="#fff" stroke-miterlimit="10" stroke-width="1"/>
        <path id="Path_2257" data-name="Path 2257" d="M2090.857,777.049c6.751-25.762,19.353-60.651,44.768-79.958a72.124,72.124,0,0,1,7.77-5.147c30.709-17.612,51.042,1.835,81.087-18.465,40.458-27.45,30.316-76.024,63.848-98.13a49.781,49.781,0,0,1,13.255-5.984c14.761-4.467,26.877-1.816,38.707-4.953,11.633-3.087,20.562-7.381,30.295-20.66,9.347-12.754,12.027-26.99,15.909-41.353,2.753-10.192,6.126-17.993,12.163-24.484,3.738-4.021,6.809-6.549,10.877-7.62,12.87-3.394,25.384,6.764,40.2,5.289,7.932-.793,14.182-3.26,18.961-9.394,15.906-20.413,8.84-65.559,30.607-88.492,7.36-7.756,16.285-11.578,26.576-13,30.1-4.147,65.535,20.355,83.108,2.83,15.431-15.407.084-47.251,15.431-60.435a18.756,18.756,0,0,1,3.262-2.247c9.108-4.971,20.961-2.583,29.453.123" transform="translate(-2015.815 -169.082)" fill="none" stroke="#fff" stroke-miterlimit="10" stroke-width="1"/>
        <path id="Path_2258" data-name="Path 2258" d="M2091.429,779.613c6.875-25.828,19.644-60.795,45.151-80.179a73.086,73.086,0,0,1,7.8-5.168c30.9-17.757,51.211,1.824,81.446-18.562,40.678-27.542,30.61-76.092,64.31-98.382a50.675,50.675,0,0,1,13.287-6.055c14.833-4.575,27-2.013,38.854-5.082,11.717-3.032,20.743-7.231,30.592-20.515,9.494-12.809,12.179-27.093,16.095-41.458,2.774-10.184,6.187-18,12.342-24.513,3.782-4,6.9-6.512,10.99-7.575,12.963-3.37,25.51,6.761,40.4,5.1,7.961-.892,14.206-3.478,18.962-9.677,15.866-20.683,8.717-65.958,30.7-88.83,7.439-7.74,16.441-11.5,26.792-12.856,30.216-3.953,65.745,20.521,83.43,2.9,15.521-15.481.276-47.4,15.7-60.624a18.655,18.655,0,0,1,3.275-2.252c9.163-5,21.056-2.6,29.558.1" transform="translate(-2014.886 -167.436)" fill="none" stroke="#fff" stroke-miterlimit="10" stroke-width="1"/>
        <path id="Path_2259" data-name="Path 2259" d="M2092,782.176c7-25.891,19.935-60.937,45.538-80.394a73.816,73.816,0,0,1,7.824-5.194c31.088-17.9,51.382,1.816,81.806-18.657,40.9-27.631,30.907-76.158,64.771-98.634a51.493,51.493,0,0,1,13.318-6.126c14.906-4.683,27.127-2.208,39-5.208,11.8-2.982,20.925-7.084,30.889-20.373,9.644-12.861,12.3-27.2,16.282-41.563,2.776-10.184,6.249-18.014,12.522-24.542,3.824-3.982,6.995-6.478,11.1-7.53,13.056-3.347,25.636,6.759,40.608,4.9,7.992-.99,14.229-3.693,18.963-9.958,15.828-20.951,8.594-66.357,30.8-89.171,7.515-7.722,16.6-11.42,27.009-12.712,30.332-3.761,65.955,20.686,83.751,2.974,15.607-15.557.467-47.542,15.972-60.816a19.006,19.006,0,0,1,3.289-2.26c9.218-5.034,21.153-2.625,29.663.092" transform="translate(-2013.956 -165.792)" fill="none" stroke="#fff" stroke-miterlimit="10" stroke-width="1"/>
        <path id="Path_2260" data-name="Path 2260" d="M2092.572,784.742c7.124-25.959,20.229-61.081,45.926-80.615a73.68,73.68,0,0,1,7.848-5.215c31.279-18.043,51.555,1.8,82.168-18.754,41.12-27.723,31.2-76.223,65.234-98.885a52.468,52.468,0,0,1,13.349-6.2c14.98-4.788,27.253-2.4,39.148-5.333s21.108-6.935,31.186-20.229c9.79-12.914,12.452-27.306,16.467-41.671,2.8-10.174,6.31-18.024,12.7-24.568,3.867-3.961,7.085-6.441,11.213-7.486,13.147-3.323,25.76,6.759,40.813,4.711,8.021-1.089,14.253-3.911,18.964-10.242,15.788-21.221,8.47-66.753,30.889-89.51,7.6-7.709,16.756-11.344,27.226-12.57,30.45-3.567,66.168,20.851,84.077,3.045,15.693-15.628.656-47.687,16.243-61a19.2,19.2,0,0,1,3.3-2.268c9.273-5.066,21.248-2.643,29.771.076" transform="translate(-2013.029 -164.147)" fill="none" stroke="#fff" stroke-miterlimit="10" stroke-width="1"/>
        <path id="Path_2261" data-name="Path 2261" d="M2093.144,787.307c7.247-26.025,20.52-61.225,46.309-80.835a75.085,75.085,0,0,1,7.877-5.239c31.465-18.184,51.726,1.8,82.528-18.849,41.34-27.812,31.5-76.289,65.7-99.14a53.366,53.366,0,0,1,13.381-6.268c15.053-4.9,27.377-2.6,39.292-5.46,11.972-2.877,21.292-6.788,31.484-20.087,9.938-12.966,12.6-27.41,16.654-41.776,2.821-10.168,6.373-18.037,12.882-24.6,3.911-3.94,7.179-6.4,11.326-7.436,13.242-3.3,25.886,6.754,41.021,4.517,8.047-1.189,14.273-4.129,18.963-10.525,15.749-21.492,8.347-67.152,30.983-89.848,7.674-7.693,16.911-11.266,27.441-12.428,30.568-3.375,66.38,21.017,84.4,3.116,15.78-15.7.851-47.831,16.513-61.194a19.2,19.2,0,0,1,3.313-2.273c9.328-5.1,21.342-2.667,29.875.058" transform="translate(-2012.099 -162.502)" fill="none" stroke="#fff" stroke-miterlimit="10" stroke-width="1"/>
        <path id="Path_2262" data-name="Path 2262" d="M2093.716,789.869c7.373-26.088,20.812-61.367,46.695-81.05a75.554,75.554,0,0,1,7.9-5.263c31.654-18.331,51.9,1.785,82.887-18.943,41.561-27.907,31.8-76.357,66.157-99.395a54.226,54.226,0,0,1,13.412-6.339c15.127-5.005,27.5-2.79,39.44-5.588,12.056-2.822,21.473-6.638,31.78-19.94,10.087-13.021,12.757-27.515,16.841-41.883,2.845-10.16,6.434-18.051,13.063-24.628,3.953-3.921,7.271-6.368,11.436-7.391,13.336-3.278,26.014,6.751,41.225,4.326,8.08-1.286,14.3-4.347,18.967-10.811,15.707-21.759,8.224-67.546,31.077-90.185,7.751-7.68,17.069-11.189,27.658-12.287,30.688-3.184,66.593,21.182,84.723,3.187,15.869-15.775,1.042-47.978,16.782-61.383a19.426,19.426,0,0,1,3.328-2.281c9.381-5.129,21.437-2.685,29.978.045" transform="translate(-2011.17 -160.857)" fill="none" stroke="#fff" stroke-miterlimit="10" stroke-width="1"/>
        <path id="Path_2263" data-name="Path 2263" d="M2094.288,792.434c7.5-26.156,21.1-61.511,47.081-81.271a76.061,76.061,0,0,1,7.929-5.286c31.843-18.473,52.067,1.774,83.244-19.037,41.784-28,32.1-76.423,66.622-99.647a55.235,55.235,0,0,1,13.444-6.41c15.2-5.113,27.625-2.984,39.587-5.714,12.14-2.769,21.657-6.491,32.077-19.8,10.234-13.074,12.909-27.618,17.026-41.988,2.867-10.155,6.494-18.064,13.245-24.657,3.995-3.9,7.362-6.334,11.546-7.347,13.431-3.252,26.14,6.751,41.433,4.134,8.107-1.386,14.32-4.564,18.966-11.095,15.667-22.027,8.1-67.945,31.171-90.523,7.83-7.664,17.224-11.111,27.873-12.145,30.807-2.992,66.805,21.35,85.045,3.257,15.956-15.848,1.233-48.123,17.053-61.572a19.707,19.707,0,0,1,3.341-2.289c9.433-5.158,21.531-2.706,30.082.029" transform="translate(-2010.241 -159.212)" fill="none" stroke="#fff" stroke-miterlimit="10" stroke-width="1"/>
        <path id="Path_2264" data-name="Path 2264" d="M2094.86,795c7.619-26.219,21.394-61.653,47.464-81.489a77.479,77.479,0,0,1,7.958-5.31c32.032-18.615,52.238,1.766,83.6-19.132,42-28.088,32.393-76.488,67.084-99.9a56.115,56.115,0,0,1,13.476-6.48c15.271-5.221,27.751-3.179,39.733-5.84,12.224-2.717,21.838-6.341,32.374-19.657,10.384-13.124,13.061-27.72,17.213-42.1,2.887-10.145,6.554-18.077,13.423-24.683,4.039-3.885,7.457-6.3,11.659-7.3,13.523-3.228,26.267,6.748,41.64,3.942,8.137-1.486,14.342-4.78,18.967-11.378,15.625-22.3,7.976-68.341,31.266-90.862,7.909-7.649,17.381-11.035,28.091-12,30.922-2.8,67.016,21.515,85.365,3.328,16.045-15.919,1.425-48.267,17.323-61.761a19.848,19.848,0,0,1,3.354-2.294c9.488-5.192,21.625-2.73,30.188.013" transform="translate(-2009.311 -157.567)" fill="none" stroke="#fff" stroke-miterlimit="10" stroke-width="1"/>
        <path id="Path_2265" data-name="Path 2265" d="M2095.431,797.563c7.746-26.284,21.689-61.8,47.853-81.709a76.773,76.773,0,0,1,7.984-5.331c32.185-18.822,52.408,1.756,83.964-19.229,42.224-28.177,32.688-76.551,67.543-100.151a57.181,57.181,0,0,1,13.509-6.554c15.344-5.326,27.875-3.37,39.881-5.966,12.307-2.662,22.021-6.192,32.67-19.513,10.533-13.176,13.213-27.822,17.4-42.2,2.911-10.139,6.614-18.09,13.6-24.712,4.082-3.866,7.546-6.263,11.772-7.255,13.615-3.207,26.392,6.746,41.844,3.748,8.166-1.585,14.366-5,18.967-11.662,15.583-22.568,7.854-68.738,31.358-91.2,7.987-7.633,17.539-10.956,28.308-11.859,31.041-2.609,67.228,21.681,85.688,3.4,16.132-15.993,1.617-48.411,17.6-61.947a19.978,19.978,0,0,1,3.365-2.3c9.544-5.223,21.721-2.748,30.292,0" transform="translate(-2008.384 -155.923)" fill="none" stroke="#fff" stroke-miterlimit="10" stroke-width="1"/>
        <path id="Path_2266" data-name="Path 2266" d="M2096,800.125c7.869-26.347,21.98-61.942,48.235-81.924a77.48,77.48,0,0,1,8.014-5.357c32.374-18.964,52.579,1.748,84.323-19.321,42.445-28.271,32.985-76.62,68-100.405a58.054,58.054,0,0,1,13.541-6.625c15.416-5.433,28-3.562,40.025-6.092,12.394-2.609,22.206-6.042,32.97-19.371,10.683-13.226,13.365-27.927,17.585-42.306,2.932-10.132,6.672-18.106,13.786-24.744,4.124-3.848,7.638-6.223,11.882-7.208,13.709-3.181,26.518,6.743,42.049,3.557,8.2-1.683,14.389-5.215,18.969-11.945,15.541-22.838,7.729-69.136,31.453-91.541,8.066-7.617,17.7-10.877,28.523-11.717,31.162-2.42,67.441,21.846,86.011,3.47,16.221-16.066,1.809-48.556,17.867-62.136a20.011,20.011,0,0,1,3.378-2.312c9.6-5.252,21.817-2.769,30.4-.018" transform="translate(-2007.454 -154.278)" fill="none" stroke="#fff" stroke-miterlimit="10" stroke-width="1"/>
        <path id="Path_2267" data-name="Path 2267" d="M2096.575,802.69c7.993-26.416,22.271-62.086,48.622-82.145a77.908,77.908,0,0,1,8.037-5.378c32.566-19.106,52.753,1.735,84.686-19.418,42.665-28.361,33.282-76.683,68.467-100.657a59.022,59.022,0,0,1,13.573-6.7c15.489-5.543,28.125-3.756,40.172-6.221,12.478-2.551,22.389-5.89,33.266-19.224,10.833-13.281,13.518-28.032,17.772-42.414,2.956-10.126,6.733-18.124,13.964-24.773,4.166-3.83,7.733-6.187,12-7.163,13.8-3.158,26.646,6.743,42.256,3.365,8.229-1.782,14.41-5.433,18.969-12.229,15.5-23.108,7.606-69.533,31.547-91.88,8.145-7.6,17.851-10.8,28.738-11.575,31.279-2.228,67.653,22.011,86.334,3.541,16.307-16.14,2-48.7,18.137-62.325a20.08,20.08,0,0,1,3.394-2.318c9.651-5.286,21.909-2.79,30.5-.034" transform="translate(-2006.525 -152.632)" fill="none" stroke="#fff" stroke-miterlimit="10" stroke-width="1"/>
        <path id="Path_2268" data-name="Path 2268" d="M2097.147,805.255c8.119-26.481,22.565-62.231,49.007-82.365a79.173,79.173,0,0,1,8.063-5.4c32.754-19.247,52.923,1.727,85.045-19.513,42.886-28.452,33.581-76.748,68.929-100.909a59.964,59.964,0,0,1,13.6-6.767c15.563-5.651,28.248-3.948,40.319-6.347,12.563-2.5,22.573-5.743,33.563-19.082s13.67-28.135,17.959-42.521c2.976-10.116,6.792-18.137,14.145-24.8,4.208-3.814,7.825-6.152,12.106-7.118,13.9-3.134,26.772,6.743,42.463,3.173,8.257-1.879,14.431-5.651,18.969-12.515,15.455-23.379,7.483-69.926,31.642-92.216,8.221-7.586,18.009-10.725,28.954-11.436,31.4-2.037,67.863,22.179,86.659,3.614,16.395-16.211,2.192-48.844,18.405-62.514a20.484,20.484,0,0,1,3.407-2.326c9.706-5.315,22-2.811,30.608-.05" transform="translate(-2005.596 -150.988)" fill="none" stroke="#fff" stroke-miterlimit="10" stroke-width="1"/>
        <path id="Path_2269" data-name="Path 2269" d="M2097.719,807.818c8.241-26.544,22.856-62.372,49.39-82.581a79.439,79.439,0,0,1,8.092-5.425c32.944-19.392,53.091,1.717,85.4-19.61,43.109-28.542,33.88-76.811,69.394-101.161a61.186,61.186,0,0,1,13.636-6.84c15.633-5.756,28.374-4.137,40.466-6.473,12.646-2.441,22.757-5.591,33.859-18.938,11.132-13.381,13.822-28.237,18.146-42.626,3-10.111,6.85-18.156,14.323-24.828,4.252-3.8,7.918-6.116,12.218-7.071,13.99-3.11,26.9,6.74,42.668,2.979,8.289-1.979,14.455-5.869,18.972-12.8,15.41-23.649,7.359-70.326,31.733-92.555,8.3-7.573,18.168-10.649,29.174-11.294,31.515-1.845,68.073,22.345,86.979,3.685,16.481-16.284,2.383-48.989,18.675-62.7a20.692,20.692,0,0,1,3.42-2.333c9.762-5.347,22.1-2.83,30.712-.063" transform="translate(-2004.666 -149.343)" fill="none" stroke="#fff" stroke-miterlimit="10" stroke-width="1"/>
        <path id="Path_2270" data-name="Path 2270" d="M2098.29,810.384c8.368-26.61,23.15-62.517,49.778-82.8a80.671,80.671,0,0,1,8.118-5.449c33.133-19.531,53.262,1.706,85.762-19.7,43.33-28.634,34.177-76.874,69.855-101.413a62.161,62.161,0,0,1,13.667-6.911c15.706-5.864,28.5-4.328,40.61-6.6,12.733-2.386,22.94-5.441,34.159-18.8,11.281-13.431,13.974-28.34,18.331-42.731,3.021-10.1,6.911-18.171,14.5-24.857,4.294-3.78,8.008-6.079,12.331-7.026,14.082-3.087,27.027,6.74,42.873,2.788,8.318-2.076,14.476-6.087,18.972-13.082,15.365-23.92,7.236-70.722,31.828-92.893,8.381-7.557,18.324-10.573,29.39-11.153,31.634-1.656,68.286,22.51,87.3,3.756,16.57-16.358,2.575-49.136,18.948-62.892a20.626,20.626,0,0,1,3.431-2.339c9.814-5.381,22.195-2.853,30.817-.081" transform="translate(-2003.738 -147.698)" fill="none" stroke="#fff" stroke-miterlimit="10" stroke-width="1"/>
        <path id="Path_2271" data-name="Path 2271" d="M2098.862,812.946c8.491-26.676,23.442-62.658,50.165-83.019a80.86,80.86,0,0,1,8.144-5.473c33.322-19.673,53.433,1.7,86.122-19.8,43.55-28.725,34.476-76.943,70.317-101.668a63.129,63.129,0,0,1,13.7-6.982c15.78-5.974,28.623-4.52,40.758-6.727,12.817-2.328,23.124-5.289,34.455-18.651,11.431-13.481,14.127-28.445,18.518-42.836,3.045-10.1,6.969-18.19,14.686-24.888,4.336-3.761,8.1-6.042,12.441-6.979,14.177-3.061,27.156,6.74,43.081,2.593,8.347-2.173,14.5-6.3,18.972-13.363,15.323-24.19,7.113-71.118,31.923-93.234,8.457-7.538,18.48-10.494,29.6-11.008,31.755-1.467,68.5,22.675,87.625,3.829,16.657-16.434,2.767-49.283,19.219-63.084a20.975,20.975,0,0,1,3.444-2.347c9.869-5.41,22.29-2.874,30.922-.094" transform="translate(-2002.809 -146.053)" fill="none" stroke="#fff" stroke-miterlimit="10" stroke-width="1"/>
        <path id="Path_2272" data-name="Path 2272" d="M2099.434,815.512c8.615-26.741,23.733-62.8,50.547-83.239a81.662,81.662,0,0,1,8.174-5.494c33.511-19.817,53.6,1.688,86.481-19.893,43.771-28.817,34.775-77.005,70.779-101.92a64.226,64.226,0,0,1,13.728-7.053c15.854-6.082,28.75-4.711,40.907-6.853,12.9-2.273,23.308-5.139,34.752-18.51,11.581-13.531,14.279-28.547,18.7-42.941,3.066-10.09,7.026-18.211,14.864-24.917,4.378-3.746,8.194-6.005,12.554-6.935,14.271-3.037,27.284,6.743,43.288,2.4,8.378-2.27,14.518-6.52,18.971-13.646,15.279-24.46,6.993-71.515,32.017-93.573,8.536-7.523,18.636-10.418,29.82-10.867,31.873-1.278,68.711,22.841,87.948,3.9,16.746-16.5,2.958-49.427,19.489-63.273a21.209,21.209,0,0,1,3.459-2.354c9.921-5.441,22.381-2.893,31.025-.11" transform="translate(-2001.879 -144.408)" fill="none" stroke="#fff" stroke-miterlimit="10" stroke-width="1"/>
        <path id="Path_2273" data-name="Path 2273" d="M2100.006,818.074c8.738-26.8,24.024-62.945,50.933-83.455a82.462,82.462,0,0,1,8.2-5.52c33.7-19.959,53.773,1.677,86.841-19.988,43.991-28.907,35.072-77.068,71.241-102.172a65.087,65.087,0,0,1,13.759-7.124c15.927-6.189,28.873-4.9,41.054-6.979,12.985-2.215,23.492-4.987,35.049-18.365,11.73-13.583,14.431-28.652,18.891-43.052,3.089-10.082,7.084-18.226,15.045-24.943,4.42-3.73,8.286-5.971,12.664-6.887,14.366-3.013,27.414,6.74,43.493,2.207,8.41-2.37,14.542-6.738,18.975-13.932,15.231-24.728,6.869-71.908,32.111-93.909,8.614-7.509,18.793-10.342,30.035-10.725,31.994-1.089,68.924,23.009,88.271,3.971,16.833-16.578,3.153-49.571,19.759-63.462a21.37,21.37,0,0,1,3.473-2.362c9.977-5.47,22.479-2.913,31.13-.126" transform="translate(-2000.95 -142.764)" fill="none" stroke="#fff" stroke-miterlimit="10" stroke-width="1"/>
        <path id="Path_2274" data-name="Path 2274" d="M2100.578,820.639c8.862-26.872,24.316-63.089,51.317-83.675a83.215,83.215,0,0,1,8.229-5.541c33.892-20.1,53.944,1.667,87.2-20.085,44.211-29,35.371-77.132,71.7-102.424a66.285,66.285,0,0,1,13.791-7.2c16-6.294,29-5.092,41.2-7.105,13.071-2.157,23.678-4.835,35.348-18.221,11.882-13.63,14.583-28.754,19.077-43.156,3.111-10.074,7.142-18.247,15.227-24.972,4.462-3.714,8.375-5.935,12.774-6.843,14.458-2.99,27.542,6.74,43.7,2.016,8.441-2.467,14.563-6.956,18.975-14.216,15.187-25,6.746-72.3,32.2-94.248,8.7-7.494,18.954-10.266,30.256-10.583,32.108-.9,69.133,23.174,88.591,4.042,16.922-16.652,3.344-49.716,20.03-63.651a21.663,21.663,0,0,1,3.485-2.368c10.032-5.5,22.573-2.934,31.238-.142" transform="translate(-2000.021 -141.118)" fill="none" stroke="#fff" stroke-miterlimit="10" stroke-width="1"/>
        <path id="Path_2275" data-name="Path 2275" d="M2101.149,823.2c8.99-26.938,24.609-63.236,51.705-83.9a84.619,84.619,0,0,1,8.252-5.564c34.083-20.242,54.118,1.659,87.56-20.177,44.435-29.09,35.673-77.195,72.167-102.678a67.4,67.4,0,0,1,13.822-7.268c16.072-6.4,29.122-5.281,41.345-7.231,13.155-2.1,23.862-4.685,35.645-18.079,12.032-13.68,14.735-28.857,19.263-43.261,3.134-10.069,7.2-18.268,15.405-25,4.506-3.7,8.469-5.9,12.887-6.8,14.552-2.963,27.67,6.743,43.907,1.824,8.47-2.565,14.583-7.174,18.975-14.5,15.142-25.271,6.622-72.7,32.3-94.586,8.772-7.478,19.108-10.189,30.471-10.441,32.229-.714,69.346,23.339,88.914,4.113,17.009-16.722,3.536-49.86,20.3-63.837a21.555,21.555,0,0,1,3.5-2.378c10.087-5.533,22.667-2.956,31.342-.157" transform="translate(-1999.093 -139.474)" fill="none" stroke="#fff" stroke-miterlimit="10" stroke-width="1"/>
        <path id="Path_2276" data-name="Path 2276" d="M2101.721,825.767c9.114-27,24.9-63.378,52.091-84.111a84.466,84.466,0,0,1,8.279-5.588c34.272-20.387,54.288,1.648,87.919-20.274,44.655-29.18,35.973-77.257,72.627-102.93a68.64,68.64,0,0,1,13.856-7.339c16.145-6.512,29.246-5.473,41.493-7.36,13.239-2.039,24.045-4.53,35.94-17.935,12.185-13.728,14.888-28.962,19.449-43.366,3.156-10.061,7.258-18.289,15.586-25.03,4.549-3.682,8.563-5.861,13-6.754,14.644-2.937,27.8,6.743,44.109,1.633,8.5-2.664,14.607-7.391,18.977-14.783,15.1-25.542,6.5-73.1,32.393-94.925,8.851-7.462,19.266-10.113,30.686-10.3,32.348-.525,69.559,23.5,89.24,4.184,17.1-16.8,3.724-50,20.571-64.026a22.026,22.026,0,0,1,3.511-2.386c10.137-5.565,22.763-2.974,31.445-.171" transform="translate(-1998.163 -137.829)" fill="none" stroke="#fff" stroke-miterlimit="10" stroke-width="1"/>
        <path id="Path_2277" data-name="Path 2277" d="M2102.293,828.333c9.237-27.067,25.193-63.522,52.475-84.331a85.28,85.28,0,0,1,8.307-5.612c34.461-20.526,54.459,1.638,88.279-20.368,44.875-29.271,36.269-77.32,73.089-103.185a69.881,69.881,0,0,1,13.888-7.407c16.215-6.622,29.368-5.662,41.639-7.486,13.323-1.982,24.229-4.381,36.237-17.793,12.334-13.777,15.041-29.064,19.639-43.474,3.176-10.053,7.312-18.308,15.764-25.059,4.588-3.664,8.654-5.824,13.111-6.7,14.738-2.913,27.925,6.74,44.316,1.438a32.341,32.341,0,0,0,18.977-15.066c15.048-25.812,6.378-73.494,32.487-95.266,8.93-7.444,19.423-10.034,30.9-10.155,32.469-.339,69.769,23.67,89.563,4.255,17.182-16.869,3.916-50.149,20.84-64.215a21.945,21.945,0,0,1,3.525-2.391c10.192-5.6,22.856-3,31.55-.189" transform="translate(-1997.234 -136.184)" fill="none" stroke="#fff" stroke-miterlimit="10" stroke-width="1"/>
        <path id="Path_2278" data-name="Path 2278" d="M2102.865,830.9c9.36-27.132,25.484-63.664,52.86-84.549a86.5,86.5,0,0,1,8.333-5.635c34.649-20.667,54.629,1.63,88.639-20.463,45.1-29.361,36.568-77.384,73.551-103.437a70.968,70.968,0,0,1,13.919-7.478c16.29-6.73,29.495-5.851,41.784-7.615,13.41-1.921,24.416-4.226,36.537-17.646,12.486-13.827,15.192-29.169,19.825-43.582,3.2-10.045,7.371-18.329,15.943-25.087,4.632-3.651,8.749-5.788,13.224-6.659,14.832-2.89,28.056,6.743,44.523,1.247a32.734,32.734,0,0,0,18.977-15.35c15-26.085,6.255-73.89,32.582-95.6,9.008-7.428,19.581-9.79,31.117-10.013,32.584-.633,69.981,23.836,89.885,4.326,17.271-16.943,4.111-50.3,21.111-64.4a22.082,22.082,0,0,1,3.538-2.4c10.248-5.627,22.951-3.018,31.655-.2" transform="translate(-1996.305 -134.539)" fill="none" stroke="#fff" stroke-miterlimit="10" stroke-width="1"/>
        <path id="Path_2279" data-name="Path 2279" d="M2103.437,833.461c9.483-27.2,25.775-63.808,53.243-84.77a87.71,87.71,0,0,1,8.363-5.656c34.838-20.812,54.8,1.62,89-20.56,45.317-29.453,36.871-77.444,74.013-103.689A72.276,72.276,0,0,1,2342,611.235c16.36-6.835,29.618-6.04,41.931-7.738,13.494-1.864,24.6-4.076,36.833-17.5,12.635-13.875,15.344-29.271,20.011-43.687,3.221-10.037,7.428-18.352,16.124-25.116,4.675-3.635,8.837-5.751,13.334-6.614,14.927-2.864,28.185,6.746,44.731,1.055a33.152,33.152,0,0,0,18.977-15.636c14.953-26.353,6.131-74.284,32.673-95.941,9.086-7.415,19.741-9.722,31.337-9.872,32.7-.428,70.191,24,90.205,4.4,17.358-17.014,4.3-50.44,21.381-64.593a22.732,22.732,0,0,1,3.552-2.407c10.3-5.659,23.045-3.037,31.76-.218" transform="translate(-1995.375 -132.895)" fill="none" stroke="#fff" stroke-miterlimit="10" stroke-width="1"/>
        <path id="Path_2280" data-name="Path 2280" d="M2104.009,836.026c9.606-27.264,26.066-63.953,53.629-84.987a87.656,87.656,0,0,1,8.389-5.683c35.027-20.953,54.968,1.609,89.357-20.652,45.538-29.544,37.17-77.509,74.475-103.943a73.452,73.452,0,0,1,13.983-7.622c16.434-6.945,29.741-6.229,42.078-7.866,13.577-1.8,24.785-3.921,37.13-17.36,12.788-13.924,15.5-29.374,20.2-43.792,3.242-10.032,7.486-18.376,16.305-25.145,4.716-3.622,8.929-5.717,13.444-6.57,15.019-2.837,28.316,6.746,44.936.864a33.569,33.569,0,0,0,18.98-15.919c14.906-26.623,6.008-74.68,32.768-96.279,9.166-7.4,19.9-9.809,31.553-9.73,32.825.223,70.4,24.166,90.528,4.467,17.447-17.087,4.493-50.585,21.654-64.782a22.489,22.489,0,0,1,3.562-2.412c10.357-5.69,23.142-3.06,31.864-.236" transform="translate(-1994.446 -131.249)" fill="none" stroke="#fff" stroke-miterlimit="10" stroke-width="1"/>
        <path id="Path_2281" data-name="Path 2281" d="M2104.58,838.588c9.732-27.329,26.36-64.094,54.017-85.205a88.352,88.352,0,0,1,8.416-5.7c35.216-21.1,55.139,1.6,89.717-20.749,45.757-29.636,37.468-77.57,74.937-104.2a74.54,74.54,0,0,1,14.014-7.693c16.5-7.053,29.864-6.418,42.225-7.992,13.662-1.743,24.969-3.769,37.427-17.219,12.94-13.972,15.648-29.479,20.384-43.9,3.262-10.021,7.543-18.4,16.483-25.172,4.762-3.609,9.024-5.68,13.56-6.523,15.111-2.814,28.445,6.746,45.141.669a33.993,33.993,0,0,0,18.98-16.2c14.858-26.9,5.887-75.076,32.862-96.618,9.245-7.383,20.053-9.735,31.767-9.588,32.946.409,70.617,24.332,90.852,4.538,17.534-17.161,4.686-50.729,21.925-64.971a22.772,22.772,0,0,1,3.578-2.42c10.41-5.722,23.234-3.079,31.969-.249" transform="translate(-1993.518 -129.605)" fill="none" stroke="#fff" stroke-miterlimit="10" stroke-width="1"/>
        <path id="Path_2282" data-name="Path 2282" d="M2105.152,841.154c9.858-27.395,26.651-64.239,54.4-85.426a90.629,90.629,0,0,1,8.441-5.727c35.408-21.237,55.312,1.591,90.077-20.843,45.98-29.726,37.77-77.63,75.4-104.448a75.755,75.755,0,0,1,14.045-7.764c16.578-7.163,29.988-6.6,42.369-8.118,13.746-1.682,25.156-3.617,37.725-17.077,13.093-14.019,15.8-29.581,20.571-44,3.286-10.016,7.6-18.421,16.665-25.2,4.8-3.591,9.116-5.641,13.67-6.475,15.205-2.787,28.573,6.746,45.348.475a34.4,34.4,0,0,0,18.979-16.484c14.812-27.166,5.806-75.42,32.957-96.956,9.336-7.349,20.211-9.659,31.983-9.447,33.067.593,70.83,24.5,91.174,4.609,17.62-17.234,4.876-50.873,22.2-65.16a23.085,23.085,0,0,1,3.59-2.428c10.462-5.754,23.329-3.1,32.075-.265" transform="translate(-1992.589 -127.96)" fill="none" stroke="#fff" stroke-miterlimit="10" stroke-width="1"/>
        <path id="Path_2283" data-name="Path 2283" d="M2105.724,843.716c9.982-27.458,26.943-64.38,54.786-85.641a90.1,90.1,0,0,1,8.468-5.751c35.6-21.381,55.482,1.578,90.437-20.94,46.2-29.817,38.069-77.691,75.863-104.7a76.806,76.806,0,0,1,14.077-7.835c16.649-7.271,30.112-6.793,42.516-8.247,13.83-1.62,25.34-3.462,38.022-16.932,13.242-14.063,15.951-29.684,20.757-44.109,3.307-10.008,7.656-18.444,16.846-25.232,4.845-3.578,9.208-5.6,13.78-6.431,15.3-2.761,28.7,6.748,45.553.283a34.827,34.827,0,0,0,18.982-16.767c14.761-27.437,5.68-75.817,33.048-97.295,9.415-7.336,20.368-9.586,32.2-9.3,33.188.78,71.042,24.662,91.5,4.683,17.709-17.308,5.069-51.02,22.465-65.352a23.125,23.125,0,0,1,3.6-2.433c10.518-5.785,23.426-3.121,32.18-.281" transform="translate(-1991.66 -126.315)" fill="none" stroke="#fff" stroke-miterlimit="10" stroke-width="1"/>
        <path id="Path_2284" data-name="Path 2284" d="M2106.3,846.282c10.106-27.523,27.235-64.525,55.173-85.861a90.873,90.873,0,0,1,8.494-5.775c35.786-21.521,55.652,1.57,90.8-21.032,46.424-29.909,38.371-77.756,76.325-104.954a77.544,77.544,0,0,1,14.108-7.908c16.707-7.41,30.235-6.979,42.663-8.37,13.914-1.559,25.523-3.31,38.319-16.788,13.395-14.113,16.1-29.788,20.943-44.217,3.331-10,7.714-18.471,17.025-25.261,4.89-3.564,9.3-5.57,13.893-6.386,15.395-2.735,28.836,6.751,45.761.092a35.247,35.247,0,0,0,18.982-17.053c14.714-27.7,5.554-76.213,33.143-97.634,9.494-7.318,20.526-9.507,32.416-9.16,33.308.966,71.254,24.83,91.822,4.753,17.793-17.381,5.261-51.165,22.734-65.54a23.74,23.74,0,0,1,3.617-2.441c10.573-5.816,23.52-3.142,32.285-.3" transform="translate(-1990.73 -124.67)" fill="none" stroke="#fff" stroke-miterlimit="10" stroke-width="1"/>
        <path id="Path_2285" data-name="Path 2285" d="M2106.868,848.845c10.229-27.589,27.529-64.669,55.556-86.079a92.524,92.524,0,0,1,8.522-5.8c35.976-21.662,55.824,1.562,91.156-21.127,46.645-30,38.67-77.817,76.788-105.206a78.758,78.758,0,0,1,14.14-7.979c16.779-7.517,30.358-7.168,42.81-8.5,14-1.5,25.71-3.155,38.616-16.644,13.546-14.161,16.255-29.891,21.129-44.322,3.352-10,7.772-18.5,17.206-25.29,4.932-3.551,9.391-5.533,14-6.339,15.488-2.711,28.967,6.751,45.967-.1a35.7,35.7,0,0,0,18.982-17.337c14.665-27.977,5.431-76.612,33.237-97.972,9.57-7.3,20.684-9.434,32.634-9.021,33.426,1.155,71.464,25,92.143,4.827,17.882-17.455,5.451-51.309,23.006-65.727a23.44,23.44,0,0,1,3.627-2.452c10.628-5.845,23.615-3.163,32.39-.312" transform="translate(-1989.801 -123.026)" fill="none" stroke="#fff" stroke-miterlimit="10" stroke-width="1"/>
        <path id="Path_2286" data-name="Path 2286" d="M2107.439,851.41c10.355-27.655,27.823-64.813,55.944-86.3a92.936,92.936,0,0,1,8.549-5.819c36.165-21.807,55.994,1.551,91.515-21.224,46.865-30.09,38.973-77.877,77.25-105.458a80.032,80.032,0,0,1,14.171-8.05c16.854-7.622,30.481-7.354,42.957-8.625,14.082-1.436,25.894-3,38.912-16.5,13.7-14.205,16.407-30,21.316-44.43,3.375-9.987,7.827-18.518,17.387-25.316a33.971,33.971,0,0,1,14.113-6.294c15.581-2.685,29.1,6.751,46.175-.294a36.143,36.143,0,0,0,18.982-17.62c14.614-28.248,5.3-77.008,33.332-98.311,9.649-7.289,20.841-9.357,32.849-8.88,33.55,1.339,71.675,25.164,92.465,4.9,17.97-17.528,5.644-51.456,23.277-65.916a23.5,23.5,0,0,1,3.643-2.457c10.68-5.88,23.707-3.184,32.492-.328" transform="translate(-1988.873 -121.38)" fill="none" stroke="#fff" stroke-miterlimit="10" stroke-width="1"/>
        <path id="Path_2287" data-name="Path 2287" d="M2108.011,853.976c10.478-27.72,28.114-64.958,56.327-86.518a94.189,94.189,0,0,1,8.578-5.845c36.354-21.948,56.165,1.541,91.875-21.318,47.086-30.182,39.272-77.937,77.712-105.71a81.353,81.353,0,0,1,14.2-8.121c16.924-7.73,30.6-7.544,43.1-8.754,14.166-1.37,26.08-2.848,39.212-16.358,13.851-14.253,16.559-30.1,21.5-44.534,3.4-9.979,7.884-18.544,17.564-25.345a34.451,34.451,0,0,1,14.229-6.25c15.672-2.659,29.227,6.754,46.377-.485a36.582,36.582,0,0,0,18.984-17.9c14.565-28.518,5.179-77.407,33.427-98.649,9.725-7.273,21-9.284,33.064-8.738,33.671,1.525,71.888,25.329,92.789,4.969,18.058-17.6,5.834-51.6,23.547-66.1a24.019,24.019,0,0,1,3.656-2.465c10.736-5.911,23.8-3.2,32.6-.344" transform="translate(-1987.944 -119.736)" fill="none" stroke="#fff" stroke-miterlimit="10" stroke-width="1"/>
        <path id="Path_2288" data-name="Path 2288" d="M2108.583,856.538c10.6-27.783,28.405-65.1,56.713-86.736a94.989,94.989,0,0,1,8.6-5.866c36.542-22.09,56.335,1.53,92.231-21.415,47.309-30.271,39.577-78,78.173-105.962a82.969,82.969,0,0,1,14.237-8.195c17-7.835,30.729-7.727,43.249-8.877,14.25-1.31,26.264-2.693,39.508-16.216,14-14.3,16.711-30.2,21.688-44.64,3.42-9.974,7.943-18.573,17.746-25.376a34.921,34.921,0,0,1,14.339-6.2c15.767-2.633,29.358,6.756,46.584-.677a37.026,37.026,0,0,0,18.985-18.187c14.515-28.788,5.056-77.806,33.519-98.988,9.806-7.26,21.158-9.208,33.282-8.6,33.792,1.709,72.1,25.494,93.111,5.039,18.145-17.673,6.026-51.745,23.817-66.294a24.023,24.023,0,0,1,3.669-2.473c10.791-5.94,23.9-3.223,32.7-.357" transform="translate(-1987.015 -118.091)" fill="none" stroke="#fff" stroke-miterlimit="10" stroke-width="1"/>
        <path id="Path_2289" data-name="Path 2289" d="M2109.155,859.1c10.727-27.851,28.7-65.244,57.1-86.956a94.883,94.883,0,0,1,8.631-5.89c36.733-22.232,56.506,1.522,92.591-21.507,47.53-30.366,39.878-78.058,78.635-106.217a84.268,84.268,0,0,1,14.269-8.265c17.072-7.94,30.852-7.914,43.4-9,14.332-1.247,26.45-2.541,39.8-16.071,14.156-14.347,16.864-30.306,21.875-44.747,3.441-9.966,8-18.6,17.927-25.405a35.308,35.308,0,0,1,14.45-6.155c15.861-2.609,29.489,6.756,46.792-.871,8.911-3.929,14.875-10.218,18.985-18.471,14.465-29.061,4.93-78.2,33.613-99.326,9.882-7.244,21.315-9.134,33.5-8.454,33.912,1.9,72.313,25.66,93.434,5.11,18.234-17.746,6.219-51.889,24.088-66.483a24.4,24.4,0,0,1,3.683-2.48c10.842-5.971,23.993-3.244,32.81-.373" transform="translate(-1986.085 -116.447)" fill="none" stroke="#fff" stroke-miterlimit="10" stroke-width="1"/>
        <path id="Path_2290" data-name="Path 2290" d="M2109.727,861.666c10.851-27.914,28.988-65.385,57.482-87.171a95.906,95.906,0,0,1,8.657-5.914c36.925-22.376,56.679,1.509,92.954-21.6,47.75-30.455,40.235-78.042,79.1-106.469a86.449,86.449,0,0,1,14.3-8.336c17.145-8.048,30.974-8.1,43.542-9.132,14.415-1.181,26.633-2.383,40.1-15.927,14.308-14.392,17.017-30.408,22.062-44.855,3.464-9.958,8.055-18.625,18.105-25.432a35.757,35.757,0,0,1,14.562-6.11c15.956-2.583,29.621,6.759,47-1.063,8.945-4.026,14.9-10.433,18.988-18.757,14.415-29.329,4.8-78.6,33.708-99.665,9.958-7.229,21.47-9.058,33.715-8.31,34.032,2.079,72.522,25.825,93.754,5.181,18.321-17.82,6.412-52.033,24.36-66.672a24.513,24.513,0,0,1,3.693-2.486c10.9-6,24.09-3.268,32.915-.391" transform="translate(-1985.156 -114.802)" fill="none" stroke="#fff" stroke-miterlimit="10" stroke-width="1"/>
        <path id="Path_2291" data-name="Path 2291" d="M2110.3,864.231c10.977-27.98,29.282-65.53,57.871-87.392a97.262,97.262,0,0,1,8.683-5.937c37.114-22.515,56.85,1.5,93.313-21.7,47.97-30.547,40.529-78.11,79.56-106.72a87.541,87.541,0,0,1,14.331-8.407c17.216-8.155,31.1-8.289,43.687-9.257,14.5-1.118,26.819-2.231,40.4-15.785,14.46-14.436,17.169-30.513,22.248-44.96,3.485-9.951,8.11-18.652,18.287-25.46a36.376,36.376,0,0,1,14.672-6.066c16.053-2.522,29.755,6.761,47.2-1.255,8.977-4.123,14.916-10.651,18.987-19.04,14.363-29.6,4.68-79,33.8-100,10.037-7.213,21.628-8.982,33.93-8.168,34.153,2.263,72.735,25.991,94.077,5.252,18.411-17.89,6.6-52.178,24.631-66.861a24.767,24.767,0,0,1,3.709-2.494c10.95-6.034,24.182-3.286,33.017-.4" transform="translate(-1984.228 -113.157)" fill="none" stroke="#fff" stroke-miterlimit="10" stroke-width="1"/>
        <path id="Path_2292" data-name="Path 2292" d="M2110.87,866.794c11.1-28.046,29.573-65.672,58.256-87.61a98.226,98.226,0,0,1,8.709-5.961c37.3-22.657,57.018,1.494,93.672-21.793,48.19-30.636,40.823-78.179,80.021-106.973a88.963,88.963,0,0,1,14.36-8.478c17.292-8.26,31.222-8.475,43.836-9.386,14.583-1.053,27.006-2.074,40.694-15.641,14.615-14.481,17.324-30.615,22.437-45.065,3.509-9.945,8.168-18.681,18.468-25.489a36.818,36.818,0,0,1,14.785-6.021c16.145-2.5,29.883,6.764,47.408-1.446,9.009-4.223,14.935-10.869,18.988-19.323,14.313-29.87,4.553-79.4,33.893-100.342,10.116-7.2,21.788-8.908,34.148-8.026,34.277,2.446,72.947,26.156,94.4,5.323,18.494-17.964,6.793-52.322,24.9-67.05a25.029,25.029,0,0,1,3.722-2.5c11.005-6.063,24.277-3.307,33.122-.42" transform="translate(-1983.298 -111.512)" fill="none" stroke="#fff" stroke-miterlimit="10" stroke-width="1"/>
        <path id="Path_2293" data-name="Path 2293" d="M2111.442,869.359c11.224-28.111,29.865-65.816,58.64-87.83a98.937,98.937,0,0,1,8.738-5.982c37.492-22.8,57.188,1.483,94.032-21.888,48.412-30.731,41.12-78.25,80.484-107.227a90.664,90.664,0,0,1,14.391-8.551c17.366-8.365,31.345-8.659,43.983-9.51,14.667-.99,27.19-1.921,40.991-15.5,14.767-14.526,17.476-30.718,22.623-45.17,3.53-9.937,8.224-18.709,18.646-25.521a37.239,37.239,0,0,1,14.9-5.971c16.237-2.48,30.017,6.764,47.616-1.641,9.042-4.32,14.956-11.087,18.987-19.607,14.261-30.14,4.428-79.8,33.988-100.681,10.195-7.184,21.948-8.859,34.364-7.885,34.4,2.564,73.16,26.321,94.726,5.394,18.583-18.037,6.984-52.467,25.168-67.239a25.09,25.09,0,0,1,3.735-2.507c11.06-6.1,24.371-3.328,33.227-.436" transform="translate(-1982.37 -109.867)" fill="none" stroke="#fff" stroke-miterlimit="10" stroke-width="1"/>
        <path id="Path_2294" data-name="Path 2294" d="M2112.014,871.925c11.347-28.177,30.156-65.96,59.026-88.048a99.458,99.458,0,0,1,8.764-6.008c37.681-22.943,57.359,1.472,94.392-21.982,48.632-30.82,41.414-78.318,80.946-107.482a92.04,92.04,0,0,1,14.423-8.62c17.439-8.473,31.466-8.843,44.13-9.638,14.749-.924,27.374-1.764,41.287-15.355,14.922-14.57,17.628-30.82,22.81-45.277,3.554-9.93,8.28-18.736,18.827-25.547a37.713,37.713,0,0,1,15.008-5.927c16.331-2.459,30.164,6.8,47.821-1.835,9.084-4.4,14.961-11.31,18.99-19.888,14.15-30.439,4.3-80.192,34.083-101.02,10.271-7.168,22.106-8.78,34.579-7.743,34.526,2.761,73.373,26.489,95.048,5.467,18.67-18.111,7.176-52.616,25.439-67.43a25.489,25.489,0,0,1,3.748-2.515c11.116-6.129,24.468-3.349,33.332-.451" transform="translate(-1981.44 -108.223)" fill="none" stroke="#fff" stroke-miterlimit="10" stroke-width="1"/>
        <path id="Path_2295" data-name="Path 2295" d="M2112.586,874.487c11.473-28.24,30.447-66.1,59.409-88.266a100.134,100.134,0,0,1,8.793-6.029c37.87-23.085,57.53,1.462,94.749-22.08,48.855-30.912,41.713-78.386,81.41-107.734a93.4,93.4,0,0,1,14.454-8.691c17.51-8.578,31.59-9.029,44.275-9.764,14.832-.858,27.589-1.583,41.587-15.211,15.1-14.589,17.78-30.925,23-45.385,3.575-9.922,8.339-18.767,19.009-25.576a38.141,38.141,0,0,1,15.119-5.882c16.423-2.436,30.292,6.793,48.028-2.026,9.113-4.5,14.982-11.526,18.99-20.172,14.113-30.7,4.179-80.591,34.177-101.358,10.35-7.155,22.263-8.7,34.8-7.6,34.644,2.958,73.583,26.654,95.368,5.538,18.759-18.184,7.367-52.76,25.712-67.617a25.56,25.56,0,0,1,3.762-2.525c11.166-6.158,24.56-3.368,33.437-.467" transform="translate(-1980.511 -106.577)" fill="none" stroke="#fff" stroke-miterlimit="10" stroke-width="1"/>
        <path id="Path_2296" data-name="Path 2296" d="M2113.157,877.053c11.6-28.308,30.741-66.249,59.8-88.486a101.587,101.587,0,0,1,8.82-6.053c38.059-23.227,57.7,1.454,95.108-22.174,49.076-31,42.007-78.454,81.873-107.986a94.646,94.646,0,0,1,14.486-8.761c17.583-8.685,31.709-9.215,44.421-9.893,14.917-.793,27.765-1.433,41.883-15.066,15.245-14.641,17.933-31.03,23.182-45.49,3.6-9.916,8.394-18.8,19.188-25.6a38.623,38.623,0,0,1,15.231-5.837c16.518-2.412,30.424,6.788,48.235-2.218,9.145-4.6,15.006-11.74,18.991-20.457,14.076-30.964,4.052-80.987,34.271-101.7,10.425-7.137,22.42-8.62,35.012-7.457,34.765,3.155,73.793,26.82,95.691,5.609,18.846-18.258,7.562-52.9,25.983-67.806a25.528,25.528,0,0,1,3.774-2.53c11.221-6.192,24.655-3.391,33.542-.483" transform="translate(-1979.583 -104.933)" fill="none" stroke="#fff" stroke-miterlimit="10" stroke-width="1"/>
        <path id="Path_2297" data-name="Path 2297" d="M2113.729,879.616c11.723-28.371,31.033-66.391,60.183-88.7a101.148,101.148,0,0,1,8.843-6.076c38.251-23.371,57.873,1.441,95.47-22.271,49.3-31.093,42.3-78.523,82.334-108.238a96.117,96.117,0,0,1,14.518-8.832c17.656-8.793,31.833-9.386,44.568-10.019,15-.711,27.941-1.289,42.18-14.925,15.389-14.7,18.084-31.132,23.368-45.595,3.62-9.908,8.439-18.846,19.369-25.633a38.832,38.832,0,0,1,15.341-5.79c16.609-2.394,30.552,6.78,48.44-2.412,9.176-4.7,15.032-11.956,18.993-20.741,14.037-31.229,3.929-81.384,34.363-102.035,10.5-7.124,22.581-8.541,35.229-7.315,34.888,3.352,74.005,26.985,96.014,5.68,18.936-18.331,7.754-53.049,26.253-67.995a25.749,25.749,0,0,1,3.788-2.538c11.276-6.221,24.751-3.412,33.647-.5" transform="translate(-1978.653 -103.288)" fill="none" stroke="#fff" stroke-miterlimit="10" stroke-width="1"/>
        <path id="Path_2298" data-name="Path 2298" d="M2114.3,882.181c13.006-31.221,35.211-74.087,69.438-95.022,38.439-23.51,58.044,1.433,95.831-22.363,54.781-34.5,40.486-88.864,97.344-117.4,38.682-19.41,60.679.255,87.192-24.925,26.161-24.843,15.93-54.611,43.1-71.362,24.353-15.014,40.9,3.759,64.1-8.349,41.954-21.893,14.179-97.019,53.451-123.4,39.736-26.691,101.634,27.744,131.782-1.423,20.2-19.541,6.459-57.559,30.324-70.73,11.331-6.252,24.846-3.43,33.751-.512" transform="translate(-1977.724 -101.643)" fill="none" stroke="#fff" stroke-miterlimit="10" stroke-width="1"/>
      </g>
    </g>
  </g>
</svg>
