<svg id="Group_294" data-name="Group 294" xmlns="http://www.w3.org/2000/svg" width="88.644" height="118.261" viewBox="0 0 88.644 118.261">
  <path id="Path_1763" data-name="Path 1763" d="M1911.124,4949.782a1.286,1.286,0,0,0-1.286,1.286v1.749a4.015,4.015,0,0,1-3.909,4.014H1835.39a3.991,3.991,0,0,1-3.96-4.014V4852a3.99,3.99,0,0,1,3.96-4.013h2.546a1.286,1.286,0,1,0,0-2.572h-2.546a6.567,6.567,0,0,0-6.532,6.585v100.822a6.567,6.567,0,0,0,6.532,6.585h70.538a6.542,6.542,0,0,0,6.482-6.585v-1.749a1.286,1.286,0,0,0-1.286-1.286Z" transform="translate(-1828.858 -4841.141)" fill="#4d4d4d"/>
  <path id="Path_1764" data-name="Path 1764" d="M1952.572,4930.53a1.222,1.222,0,0,1-1.209,1.233h-70.538a1.222,1.222,0,0,1-1.209-1.233V4829.706a1.222,1.222,0,0,1,1.209-1.233h70.538a1.222,1.222,0,0,1,1.209,1.233V4930.53Zm-1.209-104.631h-70.538a3.8,3.8,0,0,0-3.781,3.806V4930.53a3.8,3.8,0,0,0,3.781,3.806h70.538a3.8,3.8,0,0,0,3.781-3.806V4829.706a3.8,3.8,0,0,0-3.781-3.806Z" transform="translate(-1866.501 -4825.899)" fill="#4d4d4d"/>
  <path id="Path_1765" data-name="Path 1765" d="M1986.792,5255.887h-49.811a1.286,1.286,0,1,0,0,2.572h49.811a1.286,1.286,0,1,0,0-2.572Z" transform="translate(-1912.318 -5161.804)" fill="#4d4d4d"/>
  <path id="Path_1766" data-name="Path 1766" d="M1986.792,5217.572h-49.811a1.286,1.286,0,0,0,0,2.572h49.811a1.286,1.286,0,1,0,0-2.572Z" transform="translate(-1912.318 -5131.873)" fill="#4d4d4d"/>
  <path id="Path_1767" data-name="Path 1767" d="M1986.792,5179.249h-49.811a1.286,1.286,0,0,0,0,2.572h49.811a1.286,1.286,0,1,0,0-2.572Z" transform="translate(-1912.318 -5101.935)" fill="#4d4d4d"/>
  <path id="Path_1768" data-name="Path 1768" d="M1986.792,5102.372h-49.811a1.286,1.286,0,0,0,0,2.572h49.811a1.286,1.286,0,1,0,0-2.572Z" transform="translate(-1912.318 -5041.878)" fill="#4d4d4d"/>
  <path id="Path_1769" data-name="Path 1769" d="M1986.792,5140.925h-49.811a1.286,1.286,0,0,0,0,2.572h49.811a1.286,1.286,0,1,0,0-2.572Z" transform="translate(-1912.318 -5071.997)" fill="#4d4d4d"/>
  <path id="Path_1770" data-name="Path 1770" d="M1988.8,4877.837l-8.817-5.575-11.151-.584-12.123,8.882-2.612,6.095-1.278,7.325,2.2,8.233,5.964,8.817,8.558,4.02h10.892l8.363-5.381.389-1.361-12.772-13.55-.778-.778-.648-.615,2.529-3.08,9.206-9.854,2.464-2.2" transform="translate(-1925.698 -4861.661)" fill="#fc0"/>
  <path id="Path_1771" data-name="Path 1771" d="M1955.378,4875.09a19.956,19.956,0,0,1,27.5-.876l-14.2,14.343a1.286,1.286,0,0,0,0,1.811l14.2,14.344a19.843,19.843,0,0,1-13.29,5.069h0a19.863,19.863,0,0,1-14.21-5.947,20.492,20.492,0,0,1,0-28.744Zm14.21,37.262h0a22.427,22.427,0,0,0,16.041-6.708,1.287,1.287,0,0,0,0-1.811l-14.232-14.372,14.232-14.372a1.287,1.287,0,0,0,0-1.811,22.533,22.533,0,0,0-32.081,0,23.079,23.079,0,0,0,0,32.365,22.424,22.424,0,0,0,16.039,6.708Z" transform="translate(-1921.092 -4857.672)" fill="#4d4d4d"/>
  <path id="Path_1772" data-name="Path 1772" d="M2074.3,4918.131l14.717-14.749,5.77,7.715v12.188l-5.057,9.465-6.807-5.122Z" transform="translate(-2020.598 -4886.429)" fill="#fc0"/>
  <path id="Path_1773" data-name="Path 1773" d="M2083.355,4925.526l-13.288-13.421,13.288-13.421a20.509,20.509,0,0,1,0,26.842Zm-.884-29.6-15.127,15.276a1.286,1.286,0,0,0,0,1.811l15.127,15.277a1.285,1.285,0,0,0,1.828,0,23.07,23.07,0,0,0,0-32.364,1.322,1.322,0,0,0-1.828,0Z" transform="translate(-2014.872 -4880.315)" fill="#4d4d4d"/>
</svg>
