<svg xmlns="http://www.w3.org/2000/svg" width="97.331" height="118.261" viewBox="0 0 97.331 118.261">
  <g id="Group_299" data-name="Group 299" transform="translate(-1019.749 -4756.01)">
    <path id="Path_1815" data-name="Path 1815" d="M1093.043,4756.01h-63.279a10.027,10.027,0,0,0-10.015,10.015v84.531a11.9,11.9,0,0,0,.073,1.332,11.166,11.166,0,0,0,.475,2.205c.024.071.049.143.075.218l-.03.027.69,1.677h.057a12.033,12.033,0,0,0,5.188,5.188l1.638.723.026-.023c.089.034.177.063.266.093a11.382,11.382,0,0,0,3.528.546h40.079v-2.665h-40.079a8.7,8.7,0,0,1-2.694-.41c-.29-.1-.607-.218-.9-.338l-.307-.127a9.373,9.373,0,0,1-4.533-4.514l-.142-.341c-.12-.29-.242-.605-.337-.887a7.924,7.924,0,0,1-.25-.979c-.024-.112-.041-.227-.059-.341a.44.44,0,0,1-.008-.052,8.683,8.683,0,0,1-.089-1.023c0-.124-.006-.248-.006-.376v-84.464a7.358,7.358,0,0,1,7.35-7.35h63.279a1.279,1.279,0,0,1,1.277,1.277V4858.6a1.279,1.279,0,0,1-1.277,1.277h-8.424v2.665h8.424a3.947,3.947,0,0,0,3.94-3.942v-98.646A3.947,3.947,0,0,0,1093.043,4756.01Z" transform="translate(0)" fill="#4d4d4d"/>
    <path id="Path_1816" data-name="Path 1816" d="M1029.764,4756.01a10.027,10.027,0,0,0-10.015,10.015v85.863h2.761a9.924,9.924,0,0,1-.091-1.023c0-.124-.006-.248-.006-.376a9.269,9.269,0,0,1,.1-1.264h-.1v-83.2a7.358,7.358,0,0,1,7.35-7.35h7.3v82.56h2.665V4756.01Zm6.447,93.243a1.331,1.331,0,0,0-.268,2.635h3.782v-2.635Z" transform="translate(0)" fill="#4d4d4d"/>
    <path id="Path_1817" data-name="Path 1817" d="M1094.32,5174.954a3.238,3.238,0,0,0-.639-.062h-61.947a12,12,0,0,0-11.913,13.316,11.182,11.182,0,0,0,.475,2.205c.024.071.049.142.075.217l-.03.027.69,1.677h.051a11.977,11.977,0,0,0,5.194,5.191l1.638.72.026-.024c.089.034.177.063.266.093a11.368,11.368,0,0,0,3.528.546h40.079V5196.2h-40.079a8.713,8.713,0,0,1-2.694-.41c-.29-.1-.607-.218-.9-.339l-.365-.147a9.276,9.276,0,0,1-4.453-4.435l-.024-.057-.142-.341c-.12-.29-.242-.605-.337-.887a7.954,7.954,0,0,1-.25-.98c-.022-.112-.041-.227-.059-.341,0-.018,0-.034-.006-.051a9.963,9.963,0,0,1-.091-1.023c0-.125-.006-.249-.006-.377a9.275,9.275,0,0,1,.1-1.264,9.3,9.3,0,0,1,9.224-7.99h61.947a.632.632,0,0,1,.639.64v16.724a1.28,1.28,0,0,1-1.277,1.277h-8.424v2.665h8.424a3.947,3.947,0,0,0,3.94-3.942v-16.724A3.306,3.306,0,0,0,1094.32,5174.954Zm-62.585-.062a11.858,11.858,0,0,0-9.321,4.45v6.2h.1a9.3,9.3,0,0,1,9.224-7.99h5.326v-2.663Z" transform="translate(0 -336.32)" fill="#4d4d4d"/>
    <path id="Path_1818" data-name="Path 1818" d="M1158.614,5230.413a1.33,1.33,0,0,1-1.33,1.33h-59.442a1.331,1.331,0,1,1,0-2.663h59.442A1.33,1.33,0,0,1,1158.614,5230.413Z" transform="translate(-61.631 -379.828)" fill="#4d4d4d"/>
    <path id="Path_1819" data-name="Path 1819" d="M1287.188,5229.08h-15.469a1.33,1.33,0,0,0-1.33,1.333v22.353a1.329,1.329,0,0,0,.822,1.23,1.311,1.311,0,0,0,.508.1,1.332,1.332,0,0,0,.942-.391l6.794-6.793,6.792,6.793a1.332,1.332,0,0,0,2.273-.942v-22.353A1.331,1.331,0,0,0,1287.188,5229.08Zm-1.331,20.471-5.462-5.461a1.329,1.329,0,0,0-1.882,0l-5.462,5.461v-17.808h12.806Z" transform="translate(-201.239 -379.828)" fill="#4d4d4d"/>
    <path id="Path_1820" data-name="Path 1820" d="M1367.03,5022.226v22.354l7.575-7.895,7.895,7.895v-22.354Z" transform="translate(-278.831 -213.745)" fill="#fc0"/>
    <path id="Path_1821" data-name="Path 1821" d="M1369.18,5029.928a1.332,1.332,0,0,1,.941.39l5.622,5.622v-17.807h-12.807v17.711l5.282-5.506a1.331,1.331,0,0,1,.947-.409Zm-7.575,10.558a1.315,1.315,0,0,1-.5-.1,1.33,1.33,0,0,1-.835-1.235V5016.8a1.331,1.331,0,0,1,1.332-1.332h15.47a1.331,1.331,0,0,1,1.332,1.332v22.354a1.332,1.332,0,0,1-2.273.941l-6.934-6.934-6.633,6.915a1.334,1.334,0,0,1-.961.409Z" transform="translate(-273.406 -208.319)" fill="#4d4d4d"/>
    <path id="Path_1822" data-name="Path 1822" d="M1341.586,4857.682c1.207,1.664.764,4.14,1.366,5.995.624,1.922,2.415,3.676,2.412,5.655,0,2-1.806,3.751-2.423,5.652-.611,1.882-.176,4.361-1.365,6-1.148,1.577-3.622,1.938-5.286,3.145s-2.774,3.448-4.629,4.05c-1.922.624-4.145-.559-6.123-.562-2,0-4.224,1.168-6.124.551-1.882-.611-2.994-2.858-4.628-4.047-1.577-1.147-4.068-1.494-5.275-3.158s-.765-4.14-1.367-5.994c-.624-1.923-2.415-3.677-2.413-5.656,0-2,1.806-3.75,2.423-5.651.611-1.882.176-4.362,1.365-6,1.147-1.577,3.622-1.937,5.286-3.145s2.774-3.448,4.629-4.05c1.922-.623,4.145.559,6.124.562,2,0,4.223-1.168,6.124-.551,1.882.611,2.994,2.858,4.628,4.047,1.577,1.147,4.068,1.495,5.275,3.158Z" transform="translate(-229.616 -75.693)" fill="#fc0"/>
    <path id="Path_1823" data-name="Path 1823" d="M1320.1,4880.848h.013a12.465,12.465,0,0,1,2.7.4,3.913,3.913,0,0,0,5.237-1.664,9.946,9.946,0,0,1,4.532-3.29,3.914,3.914,0,0,0,3.208-4.462,12.469,12.469,0,0,1,.457-2.693,12.643,12.643,0,0,1,1.224-2.474,3.938,3.938,0,0,0,.013-5.517,12.854,12.854,0,0,1-1.226-2.493,12.109,12.109,0,0,1-.446-2.655,6.193,6.193,0,0,0-.732-2.968h0a6.2,6.2,0,0,0-2.593-1.614,12.3,12.3,0,0,1-2.388-1.25,12.864,12.864,0,0,1-1.992-1.94,3.931,3.931,0,0,0-5.245-1.7,12.727,12.727,0,0,1-2.724.4,9.434,9.434,0,0,1-2.711-.4,3.911,3.911,0,0,0-5.237,1.666,9.954,9.954,0,0,1-4.533,3.289,3.912,3.912,0,0,0-3.206,4.461,12.333,12.333,0,0,1-.456,2.693,12.586,12.586,0,0,1-1.225,2.476,3.935,3.935,0,0,0-.012,5.516,12.867,12.867,0,0,1,1.226,2.494,12.264,12.264,0,0,1,.446,2.654,4.054,4.054,0,0,0,3.326,4.584,12.218,12.218,0,0,1,2.386,1.248,12.849,12.849,0,0,1,1.992,1.94,3.931,3.931,0,0,0,5.243,1.7,12.707,12.707,0,0,1,2.722-.395Zm4.9,3.4a12.669,12.669,0,0,1-2.77-.405,5.9,5.9,0,0,0-2.129-.335,10.542,10.542,0,0,0-2.148.333,6.386,6.386,0,0,1-7.81-2.531,10.872,10.872,0,0,0-1.567-1.554,10.232,10.232,0,0,0-1.876-.957,6.515,6.515,0,0,1-4.921-6.783,10.17,10.17,0,0,0-.328-2.078,10.748,10.748,0,0,0-.991-1.97,6.386,6.386,0,0,1,.016-8.213,10.516,10.516,0,0,0,.986-1.945,10.283,10.283,0,0,0,.338-2.123,6.362,6.362,0,0,1,4.792-6.65,7.49,7.49,0,0,0,3.609-2.619,6.367,6.367,0,0,1,7.81-2.494,10.405,10.405,0,0,0,2.122.337h.005a10.577,10.577,0,0,0,2.15-.333,6.385,6.385,0,0,1,7.811,2.529,10.855,10.855,0,0,0,1.567,1.554,10.117,10.117,0,0,0,1.878.959,8.29,8.29,0,0,1,3.692,2.494h0a8.3,8.3,0,0,1,1.228,4.288,10.216,10.216,0,0,0,.327,2.08,10.743,10.743,0,0,0,.991,1.968,6.391,6.391,0,0,1-.017,8.215,10.527,10.527,0,0,0-.985,1.945,10.371,10.371,0,0,0-.338,2.122,6.366,6.366,0,0,1-4.793,6.651,7.472,7.472,0,0,0-3.609,2.619,8.167,8.167,0,0,1-3.4,2.653,5.266,5.266,0,0,1-1.644.245Z" transform="translate(-224.19 -70.26)" fill="#4d4d4d"/>
    <path id="Path_1824" data-name="Path 1824" d="M1378.169,4909.614a9.144,9.144,0,1,1-9.144-9.144,9.143,9.143,0,0,1,9.144,9.144Z" transform="translate(-273.093 -115.987)" fill="#fc0"/>
    <path id="Path_1825" data-name="Path 1825" d="M1363.6,4896.377a7.813,7.813,0,1,0,7.812,7.812,7.821,7.821,0,0,0-7.812-7.812Zm0,18.288a10.476,10.476,0,1,1,10.475-10.476,10.488,10.488,0,0,1-10.475,10.476Z" transform="translate(-267.669 -110.563)" fill="#4d4d4d"/>
  </g>
</svg>
