<svg id="Group_298" data-name="Group 298" xmlns="http://www.w3.org/2000/svg" width="101.127" height="118.262" viewBox="0 0 101.127 118.262">
  <path id="Path_1798" data-name="Path 1798" d="M2963.3,4892.122h28.207l-.234,10.571H2962.9v-10.571" transform="translate(-2929.883 -4879.069)" fill="#fc0" fill-rule="evenodd"/>
  <path id="Path_1799" data-name="Path 1799" d="M2977.516,5305.73s14.542.033,14.542.472v21.462l-7.717-7.234-7.438,7.234-.525-19.973Z" transform="translate(-2940.708 -5211.154)" fill="#fc0"/>
  <path id="Path_1800" data-name="Path 1800" d="M3233.117,5297.174l3.562-9.2,6.249.409,4.08,8.791-7.191,10.816Z" transform="translate(-3146.844 -5196.898)" fill="#fc0"/>
  <g id="Group_297" data-name="Group 297" transform="translate(0 0)">
    <path id="Path_1801" data-name="Path 1801" d="M2868.7,4825.9h-63.28a10.024,10.024,0,0,0-10.013,10.013v84.533a11.869,11.869,0,0,0,.073,1.332,11.143,11.143,0,0,0,.473,2.206c.025.079.055.158.083.239l-.035.037.7,1.646h.047a12.027,12.027,0,0,0,5.186,5.186l1.669.725.016-.016c.083.031.164.059.246.086a11.371,11.371,0,0,0,3.528.544h25.243v-2.663H2807.4a8.623,8.623,0,0,1-2.695-.412c-.289-.1-.6-.215-.891-.337l-.355-.148a9.389,9.389,0,0,1-4.5-4.5l-.138-.329c-.118-.292-.24-.607-.335-.887a8.179,8.179,0,0,1-.252-.981q-.033-.169-.059-.341c0-.016-.006-.034-.008-.052a8.642,8.642,0,0,1-.089-1.023q-.006-.153-.006-.309v-84.533a7.359,7.359,0,0,1,7.35-7.35h63.28a1.281,1.281,0,0,1,1.279,1.279v98.646a1.282,1.282,0,0,1-1.279,1.282h-23.256v2.663H2868.7a3.947,3.947,0,0,0,3.942-3.944v-98.646A3.946,3.946,0,0,0,2868.7,4825.9Z" transform="translate(-2795.409 -4825.9)" fill="#4d4d4d"/>
    <path id="Path_1802" data-name="Path 1802" d="M2805.422,4825.9a10.024,10.024,0,0,0-10.013,10.013v85.865h2.76a9.715,9.715,0,0,1-.091-1.023c0-.124-.006-.25-.006-.376a9.251,9.251,0,0,1,.1-1.264h-.1v-83.2a7.359,7.359,0,0,1,7.35-7.35h7.3v82.562h2.663V4825.9Zm6.447,93.243a1.332,1.332,0,0,0-.276,2.635h3.791v-2.635Z" transform="translate(-2795.409 -4825.9)" fill="#4d4d4d"/>
    <path id="Path_1803" data-name="Path 1803" d="M2807.4,5244.78a12.028,12.028,0,0,0-8.487,3.51,12.468,12.468,0,0,0-.836.94v6.2h.1a9.3,9.3,0,0,1,9.224-7.991h5.325v-2.663Zm62.585.063a3.239,3.239,0,0,0-.638-.063H2807.4a12.028,12.028,0,0,0-8.487,3.51,12.468,12.468,0,0,0-.836.94,12.1,12.1,0,0,0-2.663,7.533,11.891,11.891,0,0,0,.073,1.333,11.165,11.165,0,0,0,.473,2.206c.025.079.055.157.083.239l-.035.037.7,1.646h.039a11.992,11.992,0,0,0,5.194,5.192l1.669.719.016-.016c.083.032.164.059.246.087a11.385,11.385,0,0,0,3.528.544h25.243v-2.663H2807.4a8.623,8.623,0,0,1-2.695-.412c-.289-.1-.6-.215-.891-.336l-.355-.148-.069-.027a9.285,9.285,0,0,1-4.4-4.413l-.026-.063-.138-.33c-.118-.292-.24-.606-.335-.887a8.2,8.2,0,0,1-.252-.981c-.022-.113-.042-.225-.059-.341,0-.016,0-.033-.006-.051a9.748,9.748,0,0,1-.091-1.023c0-.124-.006-.25-.006-.376a9.244,9.244,0,0,1,.1-1.263,9.3,9.3,0,0,1,9.224-7.991h61.947a.633.633,0,0,1,.638.641v16.722a1.282,1.282,0,0,1-1.279,1.281h-23.256v2.663H2868.7a3.947,3.947,0,0,0,3.942-3.944v-16.722A3.307,3.307,0,0,0,2869.98,5244.843Z" transform="translate(-2795.409 -5162.218)" fill="#4d4d4d"/>
    <path id="Path_1804" data-name="Path 1804" d="M2934.274,5300.3a1.331,1.331,0,0,1-1.33,1.332H2873.5a1.256,1.256,0,0,1-.276-.03,1.332,1.332,0,0,1,.276-2.635h59.444A1.33,1.33,0,0,1,2934.274,5300.3Z" transform="translate(-2857.04 -5205.728)" fill="#4d4d4d"/>
    <path id="Path_1805" data-name="Path 1805" d="M2959.453,4895.365h25.458v-7.633h-25.458v7.633Zm28.121,2.663H2956.79v-12.96h30.784v12.96Z" transform="translate(-2924.981 -4873.406)" fill="#4d4d4d"/>
    <path id="Path_1806" data-name="Path 1806" d="M2987.58,5298.971H2972.11a1.331,1.331,0,0,0-1.331,1.333v22.353a1.332,1.332,0,0,0,2.273.942l6.794-6.794,6.794,6.794a1.334,1.334,0,0,0,.94.391,1.312,1.312,0,0,0,.51-.1,1.33,1.33,0,0,0,.822-1.23V5300.3A1.331,1.331,0,0,0,2987.58,5298.971Zm-1.331,20.471-5.461-5.461a1.331,1.331,0,0,0-1.884,0l-5.462,5.461v-17.806h12.808Z" transform="translate(-2936.213 -5205.728)" fill="#4d4d4d"/>
    <path id="Path_1807" data-name="Path 1807" d="M3228.009,5293.46l5.886,8.937,5.886-8.937-3.657-8.192h-4.455l-3.66,8.192Zm5.883,12.565-8.151-12.383,4.632-10.372h7.045l4.63,10.375-8.156,12.38Z" transform="translate(-3140.922 -5193.122)" fill="#4d4d4d"/>
    <path id="Path_1808" data-name="Path 1808" d="M3265.728,5337.667v9.174l-.451.685-.451-.685v-9.174a.451.451,0,0,1,.9,0Z" transform="translate(-3172.303 -5236.435)" fill="#4d4d4d"/>
    <path id="Path_1809" data-name="Path 1809" d="M3262.924,5329.1a1.363,1.363,0,1,0-1.363,1.363,1.363,1.363,0,0,0,1.363-1.363Z" transform="translate(-3168.587 -5228.822)" fill="#4d4d4d"/>
    <path id="Path_1810" data-name="Path 1810" d="M3232.713,4894.574v70.51a1.272,1.272,0,0,0,1.271,1.272h7.808a1.272,1.272,0,0,0,1.272-1.272v-70.51Zm9.08,73.779h-7.808a3.273,3.273,0,0,1-3.269-3.269v-72.507h14.346v72.507a3.273,3.273,0,0,1-3.269,3.269Z" transform="translate(-3144.916 -4879.435)" fill="#4d4d4d"/>
    <path id="Path_1811" data-name="Path 1811" d="M3232.713,4877.575h10.351v-.364a1.323,1.323,0,0,0-1.321-1.321h-7.709a1.323,1.323,0,0,0-1.321,1.321v.364Zm12.349,2h-14.346v-2.361a3.321,3.321,0,0,1,3.319-3.319h7.709a3.321,3.321,0,0,1,3.319,3.319v2.361Z" transform="translate(-3144.916 -4864.433)" fill="#4d4d4d"/>
    <path id="Path_1812" data-name="Path 1812" d="M3245.75,4836.572h5.212v-4.408a2.582,2.582,0,0,0-2.577-2.578h-.057a2.582,2.582,0,0,0-2.577,2.578v4.408Zm7.21,2h-9.207v-6.406a4.58,4.58,0,0,1,4.575-4.575h.057a4.58,4.58,0,0,1,4.575,4.575v6.406Z" transform="translate(-3155.384 -4827.256)" fill="#4d4d4d"/>
    <path id="Path_1813" data-name="Path 1813" d="M3253.432,4913.628a1.364,1.364,0,0,0-1.36,1.361v19.883a1.36,1.36,0,0,0,2.721,0v-19.883a1.364,1.364,0,0,0-1.361-1.361Zm0,24.6a3.361,3.361,0,0,1-3.357-3.358v-19.883a3.358,3.358,0,1,1,6.715,0v19.883a3.361,3.361,0,0,1-3.358,3.358Z" transform="translate(-3160.459 -4894.733)" fill="#4d4d4d"/>
    <path id="Path_1814" data-name="Path 1814" d="M3233.238,5268.892a.615.615,0,1,0,0,1.23h9.157a.615.615,0,0,0,0-1.23Zm9.157,3.228h-9.157a2.612,2.612,0,1,1,0-5.225h9.157a2.612,2.612,0,0,1,0,5.225Z" transform="translate(-3144.842 -5179.974)" fill="#4d4d4d"/>
  </g>
</svg>
