<svg xmlns="http://www.w3.org/2000/svg" viewBox="0 0 163.92 78.2"><g id="Layer_2" data-name="Layer 2"><g id="Layer_1-2" data-name="Layer 1"><path d="M101.6,11.65V36.42l-6.22-1.08V11.59c0-5.32-2.1-8-7.06-8H52.25V0H89.77C98.3,0,101.6,3,101.6,11.65Z"/><path d="M0,36.42l1.1-3.58H35.65c5,0,6.9-2.69,6.9-8V17.57l.17,0c1.68-.27,4.54-.81,6.21-1.1v8.31c0,8.68-3.3,11.65-11.83,11.65Z"/><path d="M95.37,23.26c-1.64-.1-3.58-.22-5.93-.45s-4.54-.5-6.71-.78c-4-.51-8.13-1-15.77-1.52a300.14,300.14,0,0,0-37.58-.16Q20.83,20.88,12.3,22c-2,.26-4,.54-5.93.84l-.17,0c-1.67.26-4.53.81-6.2,1.1V18.51c1.67-.29,4.53-.78,6.2-1l.17,0c2.92-.16,5.9-.83,8.82-1.16s6.06-.65,9.1-.89q9.13-.72,18.31-.84,12.39-.17,24.79.65c7.84.5,12.28,1.07,16.19,1.56s7.83.93,11.78,1.17l6.22.23c4.7.19,9.4.26,13.13.18a168.72,168.72,0,0,0,32.8-3.84l-1.78,6a195,195,0,0,1-30.87,3.2c-1,0-2.08,0-3.2,0-3.1,0-6.58-.07-10.07-.22Z" style="fill:#ffce00"/><polygon points="58.72 0.01 58.72 36.41 52.25 35.32 52.25 0.01 58.72 0.01"/><path d="M111.61,11.59a13,13,0,0,1,.52-4h0c.78-2.4,2.46-3.74,5.33-4,.33,0,.69,0,1.05,0h34.93L154.53,0H117.22c-8.43,0-11.75,2.91-11.83,11.34V36.42h48.05l1.09-3.58H111.61Z"/><path d="M48.94,0l-1.1,3.58H13.29c-5,0-6.91,2.68-6.91,8V22.8l-.17,0c-1.67.26-4.53.8-6.2,1.09V11.65C0,3,3.31,0,11.84,0Z"/><polygon points="157.52 36.41 163.92 36.41 163.92 0.01 157.52 1.09 157.52 36.41"/><path d="M67.4,72.63c-1-.92-1.86-2.24-1.86-6.26,0-3.46,1.27-5,2.24-5.9a5,5,0,0,1,3.62-1.4h9.24a2.66,2.66,0,0,0,2.26-1.25l1.75-2.76H71a14,14,0,0,0-6.4,1.52,9.61,9.61,0,0,0-4,3.73A11.81,11.81,0,0,0,59,66.42,13.27,13.27,0,0,0,60.87,74H59.12C57.4,74,56,73.3,56,70.16V65.37c0-6.27-1.92-10.49-9.16-10.49h0c-8.41,0-12.11,6.86-15.73,11.44C28,70.23,25,74,20.94,74H12.88c-4.7,0-6.38-1.84-6.38-8C6.5,61,8,59.07,13,59.07H28.07a2.7,2.7,0,0,0,2.21-1.16l2.09-3H9.52C2.4,54.89,0,60.14,0,66.59S2.45,78.13,11.53,78.13H22.16c6.7,0,10.12-4.7,13.4-8.84s5.94-10.22,11.3-10.22c2.6,0,2.5,3.76,2.5,6.3v3.76c0,7.12,3.28,9,8.69,9l27.78.07a2.68,2.68,0,0,0,2.3-1.29L89.87,74H71A5,5,0,0,1,67.4,72.63Z" style="fill:#ffce00"/><path d="M157.42,58.5V73.19a.67.67,0,0,1-.68.67H155c-3.7,0-4.37-2.13-4.37-5.74V60.48l-4.77,1.59a2.55,2.55,0,0,0-1.73,2.41v3.65c0,2.93-.63,5.79-8.17,5.79-6.15,0-7.12-2.32-7.12-5.79V58.19l-4.78,1.66a2.52,2.52,0,0,0-1.7,2.39V67c0,5.7-7.9,6.86-13.15,6.86h-1.75c-6.2,0-8.54-2-8.54-5.74V46.88l-4.77,1.59a2.53,2.53,0,0,0-1.73,2.4V67.35c0,6.13,4.37,10.85,14,10.85h3.92c9.44,0,11.46-2.28,13.43-4.18a.6.6,0,0,1,.85,0s0,0,0,0a9.67,9.67,0,0,0,4.43,3.29,23.16,23.16,0,0,0,6.73.82,21.81,21.81,0,0,0,5.37-.55,11.6,11.6,0,0,0,5-2.33.63.63,0,0,1,.85,0,9.89,9.89,0,0,0,7.12,2.85h9a.69.69,0,0,0,.69-.69h0v-23l-4.76,1.59A2.52,2.52,0,0,0,157.42,58.5Z" style="fill:#ffce00"/></g></g></svg>