<svg xmlns="http://www.w3.org/2000/svg" width="99.142" height="137.138" viewBox="0 0 99.142 137.138">
  <g id="Group_386" data-name="Group 386" transform="translate(-920.167 -667.41)">
    <path id="Path_1907" data-name="Path 1907" d="M937.432,690.3h2.4a6.179,6.179,0,1,1,6.179-6.179,6.187,6.187,0,0,1-6.179,6.179h2.811a1.406,1.406,0,0,1,1.331.96l.216.664a8.977,8.977,0,1,0-8.368.19l.277-.85a1.4,1.4,0,0,1,1.331-.964Z" transform="translate(29.842 21.588)" fill="#333"/>
    <path id="Path_1908" data-name="Path 1908" d="M943.408,757.309a1.4,1.4,0,0,1-.781-2.568l2.393-1.6,8.053-24.633-.732-.486a1.4,1.4,0,0,1,.178-2.432l1.779-.842,3.323-10.162-.493-.235a1.4,1.4,0,1,1,1.191-2.534l.178.083,2.8-8.569h-.2a1.4,1.4,0,0,1,0-2.8h1.119l6.073-18.594h3.183l6.16,18.594h1.157a1.4,1.4,0,0,1,0,2.8h-.227l2.856,8.614.27-.129a1.4,1.4,0,0,1,1.2,2.534l-.58.273,3.338,10.063,1.912.9a1.4,1.4,0,0,1,.178,2.435l-.8.539,8.114,24.485,2.541,1.688a1.4,1.4,0,0,1-.778,2.572l-.372-.057,3.892,11.74H939.842l3.831-11.721-.266.038Zm-23.241,13.083a1.405,1.405,0,0,0,1.4,1.4H1017.9a1.4,1.4,0,1,0,0-2.8h-14.622L974.034,680.76l-.216-.664a1.406,1.406,0,0,0-1.331-.96h-5.212a1.4,1.4,0,0,0-1.331.963l-.277.85L936.9,768.993H921.57a1.4,1.4,0,0,0-1.4,1.4Z" transform="translate(0 32.753)" fill="#333"/>
    <path id="Path_1909" data-name="Path 1909" d="M949.68,687.58a1.4,1.4,0,0,0,0-2.8H931.989a1.4,1.4,0,0,0,0,2.8H949.68Z" transform="translate(29.11 48.509)" fill="#333"/>
    <path id="Path_1910" data-name="Path 1910" d="M987.469,742.215a1.385,1.385,0,0,0,.834-.277,41.338,41.338,0,1,0-51.341-1.627,1.4,1.4,0,0,0,1.813-2.139,38.534,38.534,0,1,1,47.855,1.517,1.4,1.4,0,0,0,.838,2.526Z" transform="translate(6.017 0)" fill="#333"/>
    <path id="Path_1911" data-name="Path 1911" d="M976.534,731.838a1.4,1.4,0,0,0,.781-.239,34.043,34.043,0,1,0-40.682-1.961,1.4,1.4,0,1,0,1.783-2.162,31.235,31.235,0,1,1,37.332,1.8,1.4,1.4,0,0,0,.785,2.564Z" transform="translate(11.391 5.374)" fill="#333"/>
    <path id="Path_1912" data-name="Path 1912" d="M967.138,719.988a1.414,1.414,0,0,0,.8-.251,26.589,26.589,0,1,0-32.56-1.771,1.4,1.4,0,1,0,1.836-2.117,23.781,23.781,0,1,1,29.127,1.585,1.4,1.4,0,0,0,.8,2.553Z" transform="translate(16.879 10.863)" fill="#333"/>
    <path id="Path_1913" data-name="Path 1913" d="M956.653,704.609a1.4,1.4,0,0,0,1.715,2.219,18.662,18.662,0,1,0-24.057-1.051,1.4,1.4,0,0,0,1.9-2.06,15.868,15.868,0,1,1,20.441.892Z" transform="translate(22.714 16.695)" fill="#333"/>
    <path id="Path_1914" data-name="Path 1914" d="M953.99,696.369l-2.534-1.681L928.94,709.705l-2.393,1.6a1.4,1.4,0,0,0,.781,2.568l.266-.038.508-.2,25.889-17.266Z" transform="translate(16.079 76.192)" fill="#333"/>
    <path id="Path_1915" data-name="Path 1915" d="M943.4,693.363l-11.52-5.428-.178-.083a1.4,1.4,0,1,0-1.191,2.534l.493.235,9.111,4.29,3.285-1.548Z" transform="translate(26.621 56.723)" fill="#333"/>
    <path id="Path_1916" data-name="Path 1916" d="M933.309,691.165l14.1,6.638-14.05,9.373,2.534,1.68,14.334-9.559.8-.538a1.4,1.4,0,0,0-.178-2.435l-1.912-.9L936.6,689.614l-3.289,1.551Z" transform="translate(36.708 62.02)" fill="#333"/>
    <path id="Path_1917" data-name="Path 1917" d="M946.84,715.838,972.8,733.1l.4.178.372.057a1.4,1.4,0,0,0,.778-2.572l-2.541-1.688-22.448-14.926-2.534-1.68-14.1-9.377,14.057-6.634,3.289-1.551,9-4.252.581-.273a1.4,1.4,0,0,0-1.2-2.534l-.269.129-11.4,5.382-3.285,1.548-12.434,5.872-1.779.842a1.4,1.4,0,0,0-.178,2.432l.732.486,14.464,9.615,2.534,1.68Z" transform="translate(23.23 56.723)" fill="#333"/>
  </g>
</svg>
